%TF.GenerationSoftware,KiCad,Pcbnew,(7.0.0-0)*%
%TF.CreationDate,2023-04-23T09:26:16-04:00*%
%TF.ProjectId,KwartzLab-SensorBoard-Rev3,4b776172-747a-44c6-9162-2d53656e736f,3*%
%TF.SameCoordinates,Original*%
%TF.FileFunction,Soldermask,Bot*%
%TF.FilePolarity,Negative*%
%FSLAX46Y46*%
G04 Gerber Fmt 4.6, Leading zero omitted, Abs format (unit mm)*
G04 Created by KiCad (PCBNEW (7.0.0-0)) date 2023-04-23 09:26:16*
%MOMM*%
%LPD*%
G01*
G04 APERTURE LIST*
G04 Aperture macros list*
%AMRoundRect*
0 Rectangle with rounded corners*
0 $1 Rounding radius*
0 $2 $3 $4 $5 $6 $7 $8 $9 X,Y pos of 4 corners*
0 Add a 4 corners polygon primitive as box body*
4,1,4,$2,$3,$4,$5,$6,$7,$8,$9,$2,$3,0*
0 Add four circle primitives for the rounded corners*
1,1,$1+$1,$2,$3*
1,1,$1+$1,$4,$5*
1,1,$1+$1,$6,$7*
1,1,$1+$1,$8,$9*
0 Add four rect primitives between the rounded corners*
20,1,$1+$1,$2,$3,$4,$5,0*
20,1,$1+$1,$4,$5,$6,$7,0*
20,1,$1+$1,$6,$7,$8,$9,0*
20,1,$1+$1,$8,$9,$2,$3,0*%
%AMFreePoly0*
4,1,17,0.356937,0.810921,0.810921,0.356937,0.825800,0.321016,0.825800,-0.321016,0.810921,-0.356937,0.356937,-0.810921,0.321016,-0.825800,-0.321016,-0.825800,-0.356937,-0.810921,-0.810921,-0.356937,-0.825800,-0.321016,-0.825800,0.321016,-0.810921,0.356937,-0.356937,0.810921,-0.321016,0.825800,0.321016,0.825800,0.356937,0.810921,0.356937,0.810921,$1*%
G04 Aperture macros list end*
%ADD10R,1.700000X1.700000*%
%ADD11O,1.700000X1.700000*%
%ADD12C,0.900000*%
%ADD13C,8.600000*%
%ADD14RoundRect,0.250000X0.265000X0.615000X-0.265000X0.615000X-0.265000X-0.615000X0.265000X-0.615000X0*%
%ADD15O,1.030000X1.730000*%
%ADD16C,3.000000*%
%ADD17R,2.600000X2.600000*%
%ADD18C,2.600000*%
%ADD19FreePoly0,180.000000*%
%ADD20C,0.650000*%
%ADD21O,1.000000X2.100000*%
%ADD22O,1.000000X1.800000*%
G04 APERTURE END LIST*
D10*
%TO.C,J8*%
X94999999Y-99269999D03*
D11*
X97539999Y-99269999D03*
X94999999Y-101809999D03*
X97539999Y-101809999D03*
%TD*%
D12*
%TO.C,H3*%
X169557188Y-66150000D03*
X170501769Y-63869581D03*
X170501769Y-68430419D03*
X172782188Y-62925000D03*
D13*
X172782188Y-66150000D03*
D12*
X172782188Y-69375000D03*
X175062607Y-63869581D03*
X175062607Y-68430419D03*
X176007188Y-66150000D03*
%TD*%
%TO.C,H1*%
X93600000Y-151650000D03*
X94544581Y-149369581D03*
X94544581Y-153930419D03*
X96825000Y-148425000D03*
D13*
X96825000Y-151650000D03*
D12*
X96825000Y-154875000D03*
X99105419Y-149369581D03*
X99105419Y-153930419D03*
X100050000Y-151650000D03*
%TD*%
D10*
%TO.C,J1*%
X169719999Y-103399999D03*
D11*
X172259999Y-103399999D03*
X174799999Y-103399999D03*
X177339999Y-103399999D03*
%TD*%
D12*
%TO.C,H4*%
X93600000Y-66150000D03*
X94544581Y-63869581D03*
X94544581Y-68430419D03*
X96825000Y-62925000D03*
D13*
X96825000Y-66150000D03*
D12*
X96825000Y-69375000D03*
X99105419Y-63869581D03*
X99105419Y-68430419D03*
X100050000Y-66150000D03*
%TD*%
D14*
%TO.C,J3*%
X137300000Y-125400000D03*
D15*
X135799999Y-125399999D03*
X134299999Y-125399999D03*
X132799999Y-125399999D03*
X131299999Y-125399999D03*
%TD*%
D16*
%TO.C,K2*%
X117800000Y-136700000D03*
X111800000Y-122500000D03*
X123800000Y-122500000D03*
X123800000Y-134700000D03*
X111800000Y-134700000D03*
%TD*%
D12*
%TO.C,H2*%
X169544581Y-151650000D03*
X170489162Y-149369581D03*
X170489162Y-153930419D03*
X172769581Y-148425000D03*
D13*
X172769581Y-151650000D03*
D12*
X172769581Y-154875000D03*
X175050000Y-149369581D03*
X175050000Y-153930419D03*
X175994581Y-151650000D03*
%TD*%
D17*
%TO.C,J6*%
X126214999Y-153399999D03*
D18*
X131295000Y-153400000D03*
X136375000Y-153400000D03*
%TD*%
D17*
%TO.C,J5*%
X107799999Y-153399999D03*
D18*
X112880000Y-153400000D03*
X117960000Y-153400000D03*
%TD*%
D16*
%TO.C,J4*%
X176023128Y-140594944D03*
X176023128Y-110114944D03*
X145543128Y-140594944D03*
X145543128Y-110114944D03*
D19*
X149482928Y-114684144D03*
X149482928Y-117224144D03*
X146942928Y-114684144D03*
X146942928Y-117224144D03*
X144402928Y-114684144D03*
X144402928Y-117224144D03*
%TD*%
D20*
%TO.C,J2*%
X155090000Y-152370000D03*
X160870000Y-152370000D03*
D21*
X153659999Y-151869999D03*
D22*
X153659999Y-156049999D03*
D21*
X162299999Y-151869999D03*
D22*
X162299999Y-156049999D03*
%TD*%
D10*
%TO.C,J9*%
X144799999Y-65259999D03*
D11*
X147339999Y-65259999D03*
X144799999Y-67799999D03*
X147339999Y-67799999D03*
%TD*%
D16*
%TO.C,K1*%
X99550000Y-136700000D03*
X93550000Y-122500000D03*
X105550000Y-122500000D03*
X105550000Y-134700000D03*
X93550000Y-134700000D03*
%TD*%
M02*
