%TF.GenerationSoftware,KiCad,Pcbnew,(7.0.0-0)*%
%TF.CreationDate,2023-03-25T06:16:28-04:00*%
%TF.ProjectId,KwartzLab-SensorBoard-Rev1-Panel,4b776172-747a-44c6-9162-2d53656e736f,1*%
%TF.SameCoordinates,Original*%
%TF.FileFunction,Soldermask,Bot*%
%TF.FilePolarity,Negative*%
%FSLAX46Y46*%
G04 Gerber Fmt 4.6, Leading zero omitted, Abs format (unit mm)*
G04 Created by KiCad (PCBNEW (7.0.0-0)) date 2023-03-25 06:16:28*
%MOMM*%
%LPD*%
G01*
G04 APERTURE LIST*
G04 Aperture macros list*
%AMRoundRect*
0 Rectangle with rounded corners*
0 $1 Rounding radius*
0 $2 $3 $4 $5 $6 $7 $8 $9 X,Y pos of 4 corners*
0 Add a 4 corners polygon primitive as box body*
4,1,4,$2,$3,$4,$5,$6,$7,$8,$9,$2,$3,0*
0 Add four circle primitives for the rounded corners*
1,1,$1+$1,$2,$3*
1,1,$1+$1,$4,$5*
1,1,$1+$1,$6,$7*
1,1,$1+$1,$8,$9*
0 Add four rect primitives between the rounded corners*
20,1,$1+$1,$2,$3,$4,$5,0*
20,1,$1+$1,$4,$5,$6,$7,0*
20,1,$1+$1,$6,$7,$8,$9,0*
20,1,$1+$1,$8,$9,$2,$3,0*%
%AMFreePoly0*
4,1,17,0.356937,0.810921,0.810921,0.356937,0.825800,0.321016,0.825800,-0.321016,0.810921,-0.356937,0.356937,-0.810921,0.321016,-0.825800,-0.321016,-0.825800,-0.356937,-0.810921,-0.810921,-0.356937,-0.825800,-0.321016,-0.825800,0.321016,-0.810921,0.356937,-0.356937,0.810921,-0.321016,0.825800,0.321016,0.825800,0.356937,0.810921,0.356937,0.810921,$1*%
G04 Aperture macros list end*
%ADD10C,0.900000*%
%ADD11C,8.600000*%
%ADD12C,2.000000*%
%ADD13R,1.700000X1.700000*%
%ADD14O,1.700000X1.700000*%
%ADD15RoundRect,0.250000X0.265000X0.615000X-0.265000X0.615000X-0.265000X-0.615000X0.265000X-0.615000X0*%
%ADD16O,1.030000X1.730000*%
%ADD17C,3.000000*%
%ADD18R,2.600000X2.600000*%
%ADD19C,2.600000*%
%ADD20FreePoly0,180.000000*%
%ADD21C,0.650000*%
%ADD22O,1.000000X2.100000*%
%ADD23O,1.000000X1.800000*%
%ADD24C,1.000000*%
G04 APERTURE END LIST*
D10*
%TO.C,H3*%
X129249994Y-34500000D03*
X130194575Y-32219581D03*
X130194575Y-36780419D03*
X132474994Y-31275000D03*
D11*
X132474994Y-34500000D03*
D10*
X132474994Y-37725000D03*
X134755413Y-32219581D03*
X134755413Y-36780419D03*
X135699994Y-34500000D03*
%TD*%
%TO.C,H3*%
X219207182Y-34500000D03*
X220151763Y-32219581D03*
X220151763Y-36780419D03*
X222432182Y-31275000D03*
D11*
X222432182Y-34500000D03*
D10*
X222432182Y-37725000D03*
X224712601Y-32219581D03*
X224712601Y-36780419D03*
X225657182Y-34500000D03*
%TD*%
%TO.C,H1*%
X53292806Y-120000000D03*
X54237387Y-117719581D03*
X54237387Y-122280419D03*
X56517806Y-116775000D03*
D11*
X56517806Y-120000000D03*
D10*
X56517806Y-123225000D03*
X58798225Y-117719581D03*
X58798225Y-122280419D03*
X59742806Y-120000000D03*
%TD*%
%TO.C,H1*%
X143249994Y-120000000D03*
X144194575Y-117719581D03*
X144194575Y-122280419D03*
X146474994Y-116775000D03*
D11*
X146474994Y-120000000D03*
D10*
X146474994Y-123225000D03*
X148755413Y-117719581D03*
X148755413Y-122280419D03*
X149699994Y-120000000D03*
%TD*%
D12*
%TO.C,REF\u002A\u002A*%
X57242806Y-22500000D03*
%TD*%
D13*
%TO.C,J1*%
X129412805Y-71749999D03*
D14*
X131952805Y-71749999D03*
X134492805Y-71749999D03*
X137032805Y-71749999D03*
%TD*%
D13*
%TO.C,J1*%
X219369993Y-71749999D03*
D14*
X221909993Y-71749999D03*
X224449993Y-71749999D03*
X226989993Y-71749999D03*
%TD*%
D10*
%TO.C,H4*%
X53292806Y-34500000D03*
X54237387Y-32219581D03*
X54237387Y-36780419D03*
X56517806Y-31275000D03*
D11*
X56517806Y-34500000D03*
D10*
X56517806Y-37725000D03*
X58798225Y-32219581D03*
X58798225Y-36780419D03*
X59742806Y-34500000D03*
%TD*%
%TO.C,H4*%
X143249994Y-34500000D03*
X144194575Y-32219581D03*
X144194575Y-36780419D03*
X146474994Y-31275000D03*
D11*
X146474994Y-34500000D03*
D10*
X146474994Y-37725000D03*
X148755413Y-32219581D03*
X148755413Y-36780419D03*
X149699994Y-34500000D03*
%TD*%
D15*
%TO.C,J3*%
X96992806Y-93750000D03*
D16*
X95492805Y-93749999D03*
X93992805Y-93749999D03*
X92492805Y-93749999D03*
X90992805Y-93749999D03*
%TD*%
D15*
%TO.C,J3*%
X186949994Y-93750000D03*
D16*
X185449993Y-93749999D03*
X183949993Y-93749999D03*
X182449993Y-93749999D03*
X180949993Y-93749999D03*
%TD*%
D17*
%TO.C,K2*%
X77492806Y-105050000D03*
X71492806Y-90850000D03*
X83492806Y-90850000D03*
X83492806Y-103050000D03*
X71492806Y-103050000D03*
%TD*%
%TO.C,K2*%
X167449994Y-105050000D03*
X161449994Y-90850000D03*
X173449994Y-90850000D03*
X173449994Y-103050000D03*
X161449994Y-103050000D03*
%TD*%
D10*
%TO.C,H2*%
X219194575Y-120000000D03*
X220139156Y-117719581D03*
X220139156Y-122280419D03*
X222419575Y-116775000D03*
D11*
X222419575Y-120000000D03*
D10*
X222419575Y-123225000D03*
X224699994Y-117719581D03*
X224699994Y-122280419D03*
X225644575Y-120000000D03*
%TD*%
%TO.C,H2*%
X129237387Y-120000000D03*
X130181968Y-117719581D03*
X130181968Y-122280419D03*
X132462387Y-116775000D03*
D11*
X132462387Y-120000000D03*
D10*
X132462387Y-123225000D03*
X134742806Y-117719581D03*
X134742806Y-122280419D03*
X135687387Y-120000000D03*
%TD*%
D18*
%TO.C,J6*%
X85907805Y-121749999D03*
D19*
X90987806Y-121750000D03*
X96067806Y-121750000D03*
%TD*%
D18*
%TO.C,J6*%
X175864993Y-121749999D03*
D19*
X180944994Y-121750000D03*
X186024994Y-121750000D03*
%TD*%
D18*
%TO.C,J5*%
X157449993Y-121749999D03*
D19*
X162529994Y-121750000D03*
X167609994Y-121750000D03*
%TD*%
D18*
%TO.C,J5*%
X67492805Y-121749999D03*
D19*
X72572806Y-121750000D03*
X77652806Y-121750000D03*
%TD*%
D12*
%TO.C,REF\u002A\u002A*%
X222157194Y-22500000D03*
%TD*%
D17*
%TO.C,J4*%
X225673122Y-108944944D03*
X225673122Y-78464944D03*
X195193122Y-108944944D03*
X195193122Y-78464944D03*
D20*
X199132922Y-83034144D03*
X199132922Y-85574144D03*
X196592922Y-83034144D03*
X196592922Y-85574144D03*
X194052922Y-83034144D03*
X194052922Y-85574144D03*
%TD*%
D17*
%TO.C,J4*%
X135715934Y-108944944D03*
X135715934Y-78464944D03*
X105235934Y-108944944D03*
X105235934Y-78464944D03*
D20*
X109175734Y-83034144D03*
X109175734Y-85574144D03*
X106635734Y-83034144D03*
X106635734Y-85574144D03*
X104095734Y-83034144D03*
X104095734Y-85574144D03*
%TD*%
D12*
%TO.C,REF\u002A\u002A*%
X57242806Y-131500000D03*
%TD*%
D21*
%TO.C,J2*%
X204739994Y-120720000D03*
X210519994Y-120720000D03*
D22*
X203309993Y-120219999D03*
D23*
X203309993Y-124399999D03*
D22*
X211949993Y-120219999D03*
D23*
X211949993Y-124399999D03*
%TD*%
D21*
%TO.C,J2*%
X114782806Y-120720000D03*
X120562806Y-120720000D03*
D22*
X113352805Y-120219999D03*
D23*
X113352805Y-124399999D03*
D22*
X121992805Y-120219999D03*
D23*
X121992805Y-124399999D03*
%TD*%
D17*
%TO.C,K1*%
X149199994Y-105050000D03*
X143199994Y-90850000D03*
X155199994Y-90850000D03*
X155199994Y-103050000D03*
X143199994Y-103050000D03*
%TD*%
%TO.C,K1*%
X59242806Y-105050000D03*
X53242806Y-90850000D03*
X65242806Y-90850000D03*
X65242806Y-103050000D03*
X53242806Y-103050000D03*
%TD*%
D12*
%TO.C,REF\u002A\u002A*%
X222157194Y-131500000D03*
%TD*%
D24*
%TO.C,REF\u002A\u002A*%
X227157194Y-22500000D03*
%TD*%
%TO.C,REF\u002A\u002A*%
X52242806Y-22500000D03*
%TD*%
%TO.C,REF\u002A\u002A*%
X52242806Y-131500000D03*
%TD*%
M02*
