%TF.GenerationSoftware,KiCad,Pcbnew,(7.0.0-0)*%
%TF.CreationDate,2023-03-25T06:16:28-04:00*%
%TF.ProjectId,KwartzLab-SensorBoard-Rev1-Panel,4b776172-747a-44c6-9162-2d53656e736f,1*%
%TF.SameCoordinates,Original*%
%TF.FileFunction,Profile,NP*%
%FSLAX46Y46*%
G04 Gerber Fmt 4.6, Leading zero omitted, Abs format (unit mm)*
G04 Created by KiCad (PCBNEW (7.0.0-0)) date 2023-03-25 06:16:28*
%MOMM*%
%LPD*%
G01*
G04 APERTURE LIST*
%TA.AperFunction,Profile*%
%ADD10C,0.100000*%
%TD*%
%TA.AperFunction,Profile*%
%ADD11C,0.400000*%
%TD*%
%ADD12C,0.400000*%
G04 APERTURE END LIST*
D10*
X142963467Y-27311239D02*
X142728214Y-27405210D01*
X229657182Y-122000000D02*
X229657194Y-32000000D01*
X229554843Y-30993505D02*
X229497579Y-30746735D01*
X70732103Y-27000000D02*
X62487454Y-27000000D01*
X228281153Y-28555161D02*
X228102024Y-28376031D01*
X139757652Y-31242861D02*
X139725647Y-31494158D01*
X53985667Y-126942341D02*
X54236964Y-126974346D01*
X138803810Y-124856338D02*
X138943214Y-124644817D01*
X141076030Y-28555165D02*
X140906203Y-28743137D01*
X229427878Y-123496814D02*
X229497567Y-123253261D01*
X118710697Y-27000000D02*
X118710697Y-25000000D01*
X225663676Y-27102348D02*
X225414322Y-27057656D01*
X137956863Y-28206205D02*
X137760530Y-28046117D01*
X70732103Y-25000000D02*
X70732103Y-27000000D01*
X229497567Y-123253261D02*
X229554831Y-123006491D01*
X51118842Y-28555165D02*
X50949015Y-28743137D01*
X205667894Y-25000000D02*
X205667894Y-25000000D01*
X59487454Y-27000000D02*
X54742806Y-27000000D01*
X137556334Y-126103811D02*
X137760523Y-125953873D01*
X140328260Y-124426509D02*
X140456772Y-124644820D01*
X50788927Y-28939470D02*
X50638988Y-29143658D01*
X51485943Y-125793790D02*
X51682276Y-125953878D01*
X229631540Y-31494157D02*
X229599535Y-31242859D01*
X53245990Y-27229303D02*
X53006279Y-27311239D01*
X194423244Y-129000000D02*
X186178594Y-129000000D01*
X142728214Y-27405210D02*
X142498023Y-27510977D01*
X160689294Y-27000000D02*
X152444644Y-27000000D01*
X208667894Y-126999990D02*
X216912544Y-126999989D01*
X49845156Y-30993507D02*
X49800464Y-31242861D01*
X141255159Y-125623963D02*
X141443131Y-125793790D01*
X126955345Y-25000000D02*
X126955345Y-27000000D01*
X134699994Y-27000000D02*
X129955345Y-27000000D01*
X107466048Y-27000000D02*
X107466048Y-25000000D01*
X84976751Y-27000000D02*
X84976751Y-25000000D01*
X229554831Y-123006491D02*
X229599523Y-122757138D01*
X208667894Y-27000000D02*
X208667894Y-25000000D01*
X118710697Y-126999990D02*
X126955345Y-126999989D01*
X139693576Y-122253245D02*
X139699994Y-122000000D01*
X50054045Y-123736526D02*
X50148016Y-123971779D01*
X216912544Y-126999989D02*
X216912544Y-129000000D01*
X160689294Y-129000000D02*
X152444644Y-129000000D01*
X81976751Y-27000000D02*
X73732103Y-27000000D01*
X73732103Y-25000000D02*
X81976751Y-25000000D01*
X138144836Y-28376031D02*
X137956863Y-28206205D01*
X142498023Y-126489022D02*
X142728214Y-126594789D01*
X216912544Y-25000000D02*
X216912544Y-27000000D01*
X229251981Y-30028217D02*
X229146215Y-29798026D01*
X140456772Y-29355179D02*
X140328260Y-29573490D01*
X229146215Y-29798026D02*
X229028925Y-29573486D01*
X226859157Y-27510973D02*
X226628965Y-27405207D01*
X227083696Y-27628262D02*
X226859157Y-27510973D01*
X96221400Y-126999993D02*
X104466048Y-126999992D01*
X126955345Y-27000000D02*
X118710697Y-27000000D01*
X49742806Y-122000000D02*
X49749223Y-122253245D01*
X49749223Y-122253245D02*
X49768459Y-122505841D01*
X228611069Y-28939466D02*
X228450981Y-28743133D01*
X134699994Y-126999987D02*
X134953239Y-126993571D01*
X118710697Y-25000000D02*
X126955345Y-25000000D01*
X136671772Y-126594781D02*
X136901963Y-126489015D01*
X135953258Y-27159611D02*
X135706488Y-27102348D01*
X49800464Y-122757138D02*
X49845156Y-123006492D01*
X228281145Y-125444830D02*
X228450971Y-125256858D01*
X174933944Y-25000000D02*
X183178594Y-25000000D01*
X228450981Y-28743133D02*
X228281153Y-28555161D01*
X143446731Y-27159614D02*
X143203178Y-27229303D01*
X228450971Y-125256858D02*
X228611060Y-125060526D01*
X104466048Y-27000000D02*
X96221400Y-27000000D01*
X140105204Y-30028220D02*
X140011233Y-30263473D01*
X205667894Y-129000000D02*
X197423244Y-129000000D01*
X49742806Y-32000000D02*
X49742806Y-122000000D01*
X51886464Y-27896182D02*
X51682276Y-28046121D01*
X141255159Y-28376036D02*
X141076030Y-28555165D01*
X70732103Y-126999997D02*
X70732103Y-129000000D01*
X53245990Y-126770696D02*
X53489543Y-126840385D01*
X160689294Y-25000000D02*
X160689294Y-27000000D01*
X227302007Y-27756774D02*
X227083696Y-27628262D01*
X143942855Y-126942341D02*
X144194152Y-126974346D01*
X144699994Y-127000000D02*
X149444644Y-126999999D01*
X149444644Y-25000000D02*
X149444644Y-25000000D01*
X224910428Y-27006416D02*
X224657182Y-27000000D01*
X50949015Y-28743137D02*
X50788927Y-28939470D01*
X54742806Y-127000000D02*
X59487454Y-126999999D01*
X226859151Y-126489015D02*
X227083690Y-126371726D01*
X52097985Y-27756778D02*
X51886464Y-27896182D01*
X152444644Y-126999998D02*
X160689294Y-126999997D01*
X229599535Y-31242859D02*
X229554843Y-30993505D01*
X140456772Y-124644820D02*
X140596176Y-124856341D01*
X229427889Y-30503182D02*
X229345953Y-30263471D01*
X139859608Y-30746737D02*
X139802344Y-30993507D01*
X143203178Y-27229303D02*
X142963467Y-27311239D01*
X53006279Y-27311239D02*
X52771026Y-27405210D01*
X171933944Y-129000000D02*
X163689294Y-129000000D01*
X140210971Y-29798029D02*
X140105204Y-30028220D01*
X62487454Y-126999998D02*
X70732103Y-126999997D01*
X129955345Y-126999988D02*
X134699994Y-126999987D01*
X142728214Y-126594789D02*
X142963467Y-126688760D01*
X70732103Y-129000000D02*
X62487454Y-129000000D01*
X52316296Y-126371733D02*
X52540835Y-126489022D01*
X81976751Y-126999995D02*
X81976751Y-126999995D01*
X219912544Y-25000000D02*
X229657194Y-25000000D01*
X93221400Y-25000000D02*
X93221400Y-25000000D01*
X229657194Y-20000000D02*
X49742806Y-20000000D01*
X49972109Y-123496815D02*
X50054045Y-123736526D01*
X138493793Y-28743133D02*
X138323965Y-28555161D01*
X183178594Y-126999994D02*
X183178594Y-129000000D01*
X141843652Y-27896182D02*
X141639464Y-28046121D01*
X129955345Y-129000000D02*
X129955345Y-126999988D01*
X229599523Y-122757138D02*
X229631528Y-122505841D01*
X139706411Y-31746754D02*
X139699999Y-31999763D01*
X227717711Y-125953873D02*
X227914043Y-125793785D01*
X50949015Y-125256862D02*
X51118842Y-125444834D01*
X139189016Y-124201968D02*
X139294782Y-123971777D01*
X229028925Y-29573486D02*
X228900413Y-29355176D01*
X54489560Y-27006417D02*
X54236964Y-27025653D01*
X227914043Y-125793785D02*
X228102015Y-125623959D01*
X52771026Y-27405210D02*
X52540835Y-27510977D01*
X52540835Y-27510977D02*
X52316296Y-27628266D01*
X135953255Y-126840376D02*
X136196808Y-126770687D01*
X208667894Y-25000000D02*
X216912544Y-25000000D01*
X228102024Y-28376031D02*
X227914051Y-28206205D01*
X50148016Y-123971779D02*
X50253783Y-124201970D01*
X141443131Y-28206209D02*
X141255159Y-28376036D01*
X219912544Y-126999988D02*
X224657182Y-126999987D01*
X219912544Y-27000000D02*
X219912544Y-25000000D01*
X136436523Y-27311236D02*
X136196812Y-27229300D01*
X137760530Y-28046117D02*
X137556341Y-27896178D01*
X50371072Y-29573490D02*
X50253783Y-29798029D01*
X140011233Y-30263473D02*
X139929297Y-30503184D01*
X137556341Y-27896178D02*
X137344819Y-27756774D01*
X62487454Y-27000000D02*
X62487454Y-25000000D01*
X197423244Y-25000000D02*
X205667894Y-25000000D01*
X149444644Y-25000000D02*
X149444644Y-27000000D01*
X96221400Y-27000000D02*
X96221400Y-25000000D01*
X50371072Y-124426509D02*
X50499584Y-124644820D01*
X50499584Y-29355179D02*
X50371072Y-29573490D01*
X226153996Y-126770687D02*
X226393707Y-126688752D01*
X194423244Y-126999992D02*
X194423244Y-126999992D01*
X54236964Y-27025653D02*
X53985667Y-27057658D01*
X174933944Y-129000000D02*
X174933944Y-126999995D01*
X49800464Y-31242861D02*
X49768459Y-31494158D01*
X53736313Y-126897649D02*
X53985667Y-126942341D01*
X126955345Y-126999989D02*
X126955345Y-129000000D01*
X135457134Y-27057656D02*
X135205836Y-27025652D01*
X141843652Y-126103817D02*
X142055173Y-126243221D01*
X160689294Y-25000000D02*
X160689294Y-25000000D01*
X136901969Y-27510973D02*
X136671777Y-27405207D01*
X152444644Y-25000000D02*
X160689294Y-25000000D01*
X144446748Y-27006417D02*
X144194152Y-27025653D01*
D11*
X139701400Y-17000000D02*
X139701400Y-137000000D01*
D10*
X194423244Y-27000000D02*
X186178594Y-27000000D01*
X205667894Y-126999990D02*
X205667894Y-129000000D01*
X216912544Y-25000000D02*
X216912544Y-25000000D01*
X163689294Y-129000000D02*
X163689294Y-126999997D01*
X139929297Y-30503184D02*
X139859608Y-30746737D01*
X144699994Y-27000000D02*
X144446748Y-27006417D01*
X134699994Y-126999987D02*
X134699994Y-126999987D01*
X107466048Y-129000000D02*
X107466048Y-126999992D01*
X229657194Y-20000000D02*
X229657194Y-20000000D01*
X52316296Y-27628266D02*
X52097985Y-27756778D01*
X224657182Y-27000000D02*
X219912544Y-27000000D01*
X225163024Y-27025652D02*
X224910428Y-27006416D01*
X149444644Y-27000000D02*
X144699994Y-27000000D01*
X81976751Y-25000000D02*
X81976751Y-25000000D01*
X138323965Y-28555161D02*
X138144836Y-28376031D01*
X139802344Y-30993507D02*
X139757652Y-31242861D01*
X205667894Y-25000000D02*
X205667894Y-27000000D01*
X138653881Y-28939466D02*
X138493793Y-28743133D01*
X144194152Y-27025653D02*
X143942855Y-27057658D01*
X139699999Y-31999763D02*
X139693588Y-31746753D01*
X139597655Y-30993505D02*
X139540391Y-30746735D01*
X139725647Y-31494158D02*
X139706411Y-31746754D01*
X225910446Y-27159611D02*
X225663676Y-27102348D01*
X139725647Y-122505841D02*
X139757652Y-122757138D01*
X142055173Y-126243221D02*
X142273484Y-126371733D01*
X186178594Y-126999993D02*
X194423244Y-126999992D01*
X96221400Y-25000000D02*
X104466048Y-25000000D01*
X140105204Y-123971779D02*
X140210971Y-124201970D01*
X139470690Y-123496814D02*
X139540379Y-123253261D01*
X137344819Y-27756774D02*
X137126508Y-27628262D01*
X216912544Y-126999989D02*
X216912544Y-126999989D01*
X81976751Y-129000000D02*
X73732103Y-129000000D01*
X137760523Y-125953873D02*
X137956855Y-125793785D01*
X139642347Y-31242859D02*
X139597655Y-30993505D01*
X139294782Y-123971777D02*
X139388754Y-123736524D01*
X219912544Y-129000000D02*
X219912544Y-126999988D01*
X139859608Y-123253262D02*
X139929297Y-123496815D01*
X53985667Y-27057658D02*
X53736313Y-27102350D01*
X84976751Y-25000000D02*
X93221400Y-25000000D01*
X104466048Y-25000000D02*
X104466048Y-25000000D01*
X183178594Y-27000000D02*
X174933944Y-27000000D01*
X138653872Y-125060526D02*
X138803810Y-124856338D01*
X143446731Y-126840385D02*
X143693501Y-126897649D01*
X205667894Y-126999990D02*
X205667894Y-126999990D01*
X224657182Y-126999987D02*
X224910427Y-126993571D01*
X104466048Y-126999992D02*
X104466048Y-126999992D01*
X140011233Y-123736526D02*
X140105204Y-123971779D01*
X107466048Y-25000000D02*
X115710697Y-25000000D01*
X50638988Y-124856341D02*
X50788927Y-125060529D01*
X138493783Y-125256858D02*
X138653872Y-125060526D01*
X73732103Y-129000000D02*
X73732103Y-126999997D01*
X139189027Y-29798026D02*
X139071737Y-29573486D01*
X143942855Y-27057658D02*
X143693501Y-27102350D01*
X137126508Y-27628262D02*
X136901969Y-27510973D01*
X81976751Y-25000000D02*
X81976751Y-27000000D01*
X227513522Y-126103811D02*
X227717711Y-125953873D01*
X129955345Y-27000000D02*
X129955345Y-25000000D01*
X152444644Y-27000000D02*
X152444644Y-25000000D01*
X226154000Y-27229300D02*
X225910446Y-27159611D01*
X115710697Y-126999990D02*
X115710697Y-126999990D01*
X142055173Y-27756778D02*
X141843652Y-27896182D01*
X228102015Y-125623959D02*
X228281145Y-125444830D01*
X229657194Y-25000000D02*
X229657194Y-20000000D01*
X126955345Y-25000000D02*
X126955345Y-25000000D01*
X229650764Y-122253245D02*
X229657182Y-122000000D01*
X229657194Y-129000000D02*
X219912544Y-129000000D01*
X194423244Y-126999992D02*
X194423244Y-129000000D01*
X84976751Y-129000000D02*
X84976751Y-126999995D01*
X135205836Y-27025652D02*
X134953240Y-27006416D01*
X152444644Y-129000000D02*
X152444644Y-126999998D01*
X54742806Y-27000000D02*
X54489560Y-27006417D01*
X129955345Y-25000000D02*
X149444644Y-25000000D01*
X138323957Y-125444830D02*
X138493783Y-125256858D01*
X137126502Y-126371726D02*
X137344813Y-126243215D01*
X194423244Y-25000000D02*
X194423244Y-25000000D01*
X227302001Y-126243215D02*
X227513522Y-126103811D01*
X115710697Y-25000000D02*
X115710697Y-27000000D01*
X139071726Y-124426507D02*
X139189016Y-124201968D01*
X52097985Y-126243221D02*
X52316296Y-126371733D01*
X139388765Y-30263471D02*
X139294793Y-30028217D01*
X149444644Y-126999999D02*
X149444644Y-129000000D01*
X93221400Y-25000000D02*
X93221400Y-27000000D01*
X49742806Y-129000000D02*
X49742806Y-134000000D01*
X229345953Y-30263471D02*
X229251981Y-30028217D01*
X216912544Y-27000000D02*
X208667894Y-27000000D01*
X104466048Y-129000000D02*
X96221400Y-129000000D01*
X49902420Y-30746737D02*
X49845156Y-30993507D01*
X140906203Y-125256862D02*
X141076030Y-125444834D01*
X53489543Y-27159614D02*
X53245990Y-27229303D01*
X139706411Y-122253245D02*
X139725647Y-122505841D01*
X62487454Y-25000000D02*
X70732103Y-25000000D01*
X226393707Y-126688752D02*
X226628960Y-126594781D01*
X115710697Y-126999990D02*
X115710697Y-129000000D01*
X225414322Y-27057656D02*
X225163024Y-27025652D01*
X160689294Y-126999997D02*
X160689294Y-126999997D01*
X126955345Y-126999989D02*
X126955345Y-126999989D01*
X229657194Y-134000000D02*
X229657194Y-129000000D01*
X197423244Y-27000000D02*
X197423244Y-25000000D01*
X118710697Y-129000000D02*
X118710697Y-126999990D01*
X186178594Y-129000000D02*
X186178594Y-126999993D01*
X144194152Y-126974346D02*
X144446748Y-126993582D01*
X49902420Y-123253262D02*
X49972109Y-123496815D01*
X50499584Y-124644820D02*
X50638988Y-124856341D01*
X51886464Y-126103817D02*
X52097985Y-126243221D01*
X134953239Y-126993571D02*
X135205835Y-126974335D01*
X141639464Y-125953878D02*
X141843652Y-126103817D01*
X139294793Y-30028217D02*
X139189027Y-29798026D01*
X62487454Y-129000000D02*
X62487454Y-126999998D01*
D11*
X46742806Y-127000000D02*
X232657194Y-127000000D01*
D10*
X135457132Y-126942331D02*
X135706485Y-126897640D01*
X138943225Y-29355176D02*
X138803820Y-29143655D01*
X149444644Y-129000000D02*
X129955345Y-129000000D01*
X143693501Y-126897649D02*
X143942855Y-126942341D01*
D11*
X46742806Y-27000000D02*
X232657194Y-27000000D01*
D10*
X227717718Y-28046117D02*
X227513529Y-27896178D01*
X50054045Y-30263473D02*
X49972109Y-30503184D01*
X139929297Y-123496815D02*
X140011233Y-123736526D01*
X174933944Y-126999995D02*
X183178594Y-126999994D01*
X140746115Y-125060529D02*
X140906203Y-125256862D01*
X225414320Y-126942331D02*
X225663673Y-126897640D01*
X51297971Y-125623963D02*
X51485943Y-125793790D01*
X197423244Y-126999992D02*
X205667894Y-126999990D01*
X96221400Y-129000000D02*
X96221400Y-126999993D01*
X228900402Y-124644817D02*
X229028914Y-124426507D01*
X140596176Y-29143658D02*
X140456772Y-29355179D01*
X49768459Y-31494158D02*
X49749223Y-31746754D01*
X53736313Y-27102350D02*
X53489543Y-27159614D01*
X93221400Y-126999994D02*
X93221400Y-126999994D01*
X141443131Y-125793790D02*
X141639464Y-125953878D01*
X104466048Y-25000000D02*
X104466048Y-27000000D01*
X163689294Y-27000000D02*
X163689294Y-25000000D01*
X139802344Y-123006492D02*
X139859608Y-123253262D01*
X51682276Y-125953878D02*
X51886464Y-126103817D01*
X228760998Y-124856338D02*
X228900402Y-124644817D01*
X139699994Y-122000000D02*
X139706411Y-122253245D01*
X139642335Y-122757138D02*
X139674340Y-122505841D01*
X50253783Y-29798029D02*
X50148016Y-30028220D01*
X51118842Y-125444834D02*
X51297971Y-125623963D01*
X174933944Y-27000000D02*
X174933944Y-25000000D01*
X93221400Y-126999994D02*
X93221400Y-129000000D01*
X140596176Y-124856341D02*
X140746115Y-125060529D01*
X104466048Y-126999992D02*
X104466048Y-129000000D01*
X163689294Y-126999997D02*
X171933944Y-126999995D01*
X70732103Y-25000000D02*
X70732103Y-25000000D01*
X136671777Y-27405207D02*
X136436523Y-27311236D01*
X171933944Y-25000000D02*
X171933944Y-25000000D01*
X142498023Y-27510977D02*
X142273484Y-27628266D01*
X73732103Y-27000000D02*
X73732103Y-25000000D01*
X186178594Y-27000000D02*
X186178594Y-25000000D01*
X139757652Y-122757138D02*
X139802344Y-123006492D01*
X139597643Y-123006491D02*
X139642335Y-122757138D01*
X135706488Y-27102348D02*
X135457134Y-27057656D01*
X140746115Y-28939470D02*
X140596176Y-29143658D01*
X136196812Y-27229300D02*
X135953258Y-27159611D01*
X229497579Y-30746735D02*
X229427889Y-30503182D01*
X50253783Y-124201970D02*
X50371072Y-124426509D01*
X160689294Y-126999997D02*
X160689294Y-129000000D01*
X142273484Y-126371733D02*
X142498023Y-126489022D01*
X205667894Y-27000000D02*
X197423244Y-27000000D01*
X216912544Y-129000000D02*
X208667894Y-129000000D01*
X143203178Y-126770696D02*
X143446731Y-126840385D01*
X49742806Y-25000000D02*
X59487454Y-25000000D01*
X142963467Y-126688760D02*
X143203178Y-126770696D01*
X224910427Y-126993571D02*
X225163023Y-126974335D01*
X138943214Y-124644817D02*
X139071726Y-124426507D01*
X93221400Y-27000000D02*
X84976751Y-27000000D01*
X139388754Y-123736524D02*
X139470690Y-123496814D01*
X139071737Y-29573486D02*
X138943225Y-29355176D01*
X139540379Y-123253261D02*
X139597643Y-123006491D01*
X52540835Y-126489022D02*
X52771026Y-126594789D01*
X227513529Y-27896178D02*
X227302007Y-27756774D01*
X163689294Y-25000000D02*
X171933944Y-25000000D01*
X229631528Y-122505841D02*
X229650764Y-122253245D01*
X229028914Y-124426507D02*
X229146204Y-124201968D01*
X208667894Y-129000000D02*
X208667894Y-126999990D01*
X229657194Y-32000000D02*
X229650776Y-31746753D01*
X227083690Y-126371726D02*
X227302001Y-126243215D01*
X50638988Y-29143658D02*
X50499584Y-29355179D01*
X53006279Y-126688760D02*
X53245990Y-126770696D01*
X141639464Y-28046121D02*
X141443131Y-28206209D01*
X115710697Y-25000000D02*
X115710697Y-25000000D01*
X229251970Y-123971777D02*
X229345942Y-123736524D01*
X84976751Y-126999995D02*
X93221400Y-126999994D01*
X70732103Y-126999997D02*
X70732103Y-126999997D01*
X49749223Y-31746754D02*
X49742806Y-32000000D01*
X51682276Y-28046121D02*
X51485943Y-28206209D01*
X225910443Y-126840376D02*
X226153996Y-126770687D01*
X197423244Y-129000000D02*
X197423244Y-126999992D01*
X225163023Y-126974335D02*
X225414320Y-126942331D01*
X171933944Y-27000000D02*
X163689294Y-27000000D01*
X54489560Y-126993582D02*
X54742806Y-127000000D01*
X143693501Y-27102350D02*
X143446731Y-27159614D01*
X138144827Y-125623959D02*
X138323957Y-125444830D01*
X142273484Y-27628266D02*
X142055173Y-27756778D01*
X226393711Y-27311236D02*
X226154000Y-27229300D01*
X140210971Y-124201970D02*
X140328260Y-124426509D01*
X51485943Y-28206209D02*
X51297971Y-28376036D01*
X226628960Y-126594781D02*
X226859151Y-126489015D01*
X183178594Y-126999994D02*
X183178594Y-126999994D01*
X115710697Y-27000000D02*
X107466048Y-27000000D01*
X136196808Y-126770687D02*
X136436519Y-126688752D01*
X134953240Y-27006416D02*
X134699994Y-27000000D01*
X183178594Y-129000000D02*
X174933944Y-129000000D01*
X186178594Y-25000000D02*
X194423244Y-25000000D01*
X229650776Y-31746753D02*
X229631540Y-31494157D01*
X139674340Y-122505841D02*
X139693576Y-122253245D01*
X49742806Y-134000000D02*
X229657194Y-134000000D01*
X137956855Y-125793785D02*
X138144827Y-125623959D01*
X229146204Y-124201968D02*
X229251970Y-123971777D01*
X139470701Y-30503182D02*
X139388765Y-30263471D01*
X183178594Y-25000000D02*
X183178594Y-25000000D01*
X54236964Y-126974346D02*
X54489560Y-126993582D01*
X228900413Y-29355176D02*
X228761008Y-29143655D01*
X229345942Y-123736524D02*
X229427878Y-123496814D01*
X53489543Y-126840385D02*
X53736313Y-126897649D01*
X183178594Y-25000000D02*
X183178594Y-27000000D01*
X52771026Y-126594789D02*
X53006279Y-126688760D01*
X59487454Y-126999999D02*
X59487454Y-129000000D01*
X49768459Y-122505841D02*
X49800464Y-122757138D01*
X81976751Y-126999995D02*
X81976751Y-129000000D01*
X139693588Y-31746753D02*
X139674352Y-31494157D01*
X225663673Y-126897640D02*
X225910443Y-126840376D01*
X140328260Y-29573490D02*
X140210971Y-29798029D01*
X49972109Y-30503184D02*
X49902420Y-30746737D01*
X137344813Y-126243215D02*
X137556334Y-126103811D01*
X141076030Y-125444834D02*
X141255159Y-125623963D01*
X73732103Y-126999997D02*
X81976751Y-126999995D01*
X93221400Y-129000000D02*
X84976751Y-129000000D01*
X126955345Y-129000000D02*
X118710697Y-129000000D01*
X135706485Y-126897640D02*
X135953255Y-126840376D01*
X139674352Y-31494157D02*
X139642347Y-31242859D01*
X228611060Y-125060526D02*
X228760998Y-124856338D01*
X171933944Y-126999995D02*
X171933944Y-129000000D01*
X138803820Y-29143655D02*
X138653881Y-28939466D01*
X50788927Y-125060529D02*
X50949015Y-125256862D01*
X171933944Y-126999995D02*
X171933944Y-126999995D01*
X59487454Y-129000000D02*
X49742806Y-129000000D01*
X115710697Y-129000000D02*
X107466048Y-129000000D01*
X228761008Y-29143655D02*
X228611069Y-28939466D01*
X59487454Y-25000000D02*
X59487454Y-27000000D01*
X136901963Y-126489015D02*
X137126502Y-126371726D01*
X136436519Y-126688752D02*
X136671772Y-126594781D01*
X227914051Y-28206205D02*
X227717718Y-28046117D01*
X50148016Y-30028220D02*
X50054045Y-30263473D01*
X144446748Y-126993582D02*
X144699994Y-127000000D01*
X49845156Y-123006492D02*
X49902420Y-123253262D01*
X49742806Y-20000000D02*
X49742806Y-25000000D01*
X140906203Y-28743137D02*
X140746115Y-28939470D01*
X107466048Y-126999992D02*
X115710697Y-126999990D01*
X139540391Y-30746735D02*
X139470701Y-30503182D01*
X135205835Y-126974335D02*
X135457132Y-126942331D01*
X171933944Y-25000000D02*
X171933944Y-27000000D01*
X194423244Y-25000000D02*
X194423244Y-27000000D01*
X51297971Y-28376036D02*
X51118842Y-28555165D01*
X226628965Y-27405207D02*
X226393711Y-27311236D01*
D12*
X235847670Y-125734761D02*
X236514336Y-127734761D01*
X236514336Y-127734761D02*
X237181003Y-125734761D01*
X237847670Y-126972857D02*
X239371480Y-126972857D01*
X241466717Y-127544285D02*
X241371479Y-127639523D01*
X241371479Y-127639523D02*
X241085765Y-127734761D01*
X241085765Y-127734761D02*
X240895289Y-127734761D01*
X240895289Y-127734761D02*
X240609574Y-127639523D01*
X240609574Y-127639523D02*
X240419098Y-127449047D01*
X240419098Y-127449047D02*
X240323860Y-127258571D01*
X240323860Y-127258571D02*
X240228622Y-126877619D01*
X240228622Y-126877619D02*
X240228622Y-126591904D01*
X240228622Y-126591904D02*
X240323860Y-126210952D01*
X240323860Y-126210952D02*
X240419098Y-126020476D01*
X240419098Y-126020476D02*
X240609574Y-125830000D01*
X240609574Y-125830000D02*
X240895289Y-125734761D01*
X240895289Y-125734761D02*
X241085765Y-125734761D01*
X241085765Y-125734761D02*
X241371479Y-125830000D01*
X241371479Y-125830000D02*
X241466717Y-125925238D01*
X242323860Y-125734761D02*
X242323860Y-127353809D01*
X242323860Y-127353809D02*
X242419098Y-127544285D01*
X242419098Y-127544285D02*
X242514336Y-127639523D01*
X242514336Y-127639523D02*
X242704812Y-127734761D01*
X242704812Y-127734761D02*
X243085765Y-127734761D01*
X243085765Y-127734761D02*
X243276241Y-127639523D01*
X243276241Y-127639523D02*
X243371479Y-127544285D01*
X243371479Y-127544285D02*
X243466717Y-127353809D01*
X243466717Y-127353809D02*
X243466717Y-125734761D01*
X244133384Y-125734761D02*
X245276241Y-125734761D01*
X244704812Y-127734761D02*
X244704812Y-125734761D01*
X235847670Y-25734761D02*
X236514336Y-27734761D01*
X236514336Y-27734761D02*
X237181003Y-25734761D01*
X237847670Y-26972857D02*
X239371480Y-26972857D01*
X241466717Y-27544285D02*
X241371479Y-27639523D01*
X241371479Y-27639523D02*
X241085765Y-27734761D01*
X241085765Y-27734761D02*
X240895289Y-27734761D01*
X240895289Y-27734761D02*
X240609574Y-27639523D01*
X240609574Y-27639523D02*
X240419098Y-27449047D01*
X240419098Y-27449047D02*
X240323860Y-27258571D01*
X240323860Y-27258571D02*
X240228622Y-26877619D01*
X240228622Y-26877619D02*
X240228622Y-26591904D01*
X240228622Y-26591904D02*
X240323860Y-26210952D01*
X240323860Y-26210952D02*
X240419098Y-26020476D01*
X240419098Y-26020476D02*
X240609574Y-25830000D01*
X240609574Y-25830000D02*
X240895289Y-25734761D01*
X240895289Y-25734761D02*
X241085765Y-25734761D01*
X241085765Y-25734761D02*
X241371479Y-25830000D01*
X241371479Y-25830000D02*
X241466717Y-25925238D01*
X242323860Y-25734761D02*
X242323860Y-27353809D01*
X242323860Y-27353809D02*
X242419098Y-27544285D01*
X242419098Y-27544285D02*
X242514336Y-27639523D01*
X242514336Y-27639523D02*
X242704812Y-27734761D01*
X242704812Y-27734761D02*
X243085765Y-27734761D01*
X243085765Y-27734761D02*
X243276241Y-27639523D01*
X243276241Y-27639523D02*
X243371479Y-27544285D01*
X243371479Y-27544285D02*
X243466717Y-27353809D01*
X243466717Y-27353809D02*
X243466717Y-25734761D01*
X244133384Y-25734761D02*
X245276241Y-25734761D01*
X244704812Y-27734761D02*
X244704812Y-25734761D01*
X138436161Y-13809523D02*
X140436161Y-13142857D01*
X140436161Y-13142857D02*
X138436161Y-12476190D01*
X139674257Y-11809523D02*
X139674257Y-10285714D01*
X140245685Y-8190476D02*
X140340923Y-8285714D01*
X140340923Y-8285714D02*
X140436161Y-8571428D01*
X140436161Y-8571428D02*
X140436161Y-8761904D01*
X140436161Y-8761904D02*
X140340923Y-9047619D01*
X140340923Y-9047619D02*
X140150447Y-9238095D01*
X140150447Y-9238095D02*
X139959971Y-9333333D01*
X139959971Y-9333333D02*
X139579019Y-9428571D01*
X139579019Y-9428571D02*
X139293304Y-9428571D01*
X139293304Y-9428571D02*
X138912352Y-9333333D01*
X138912352Y-9333333D02*
X138721876Y-9238095D01*
X138721876Y-9238095D02*
X138531400Y-9047619D01*
X138531400Y-9047619D02*
X138436161Y-8761904D01*
X138436161Y-8761904D02*
X138436161Y-8571428D01*
X138436161Y-8571428D02*
X138531400Y-8285714D01*
X138531400Y-8285714D02*
X138626638Y-8190476D01*
X138436161Y-7333333D02*
X140055209Y-7333333D01*
X140055209Y-7333333D02*
X140245685Y-7238095D01*
X140245685Y-7238095D02*
X140340923Y-7142857D01*
X140340923Y-7142857D02*
X140436161Y-6952381D01*
X140436161Y-6952381D02*
X140436161Y-6571428D01*
X140436161Y-6571428D02*
X140340923Y-6380952D01*
X140340923Y-6380952D02*
X140245685Y-6285714D01*
X140245685Y-6285714D02*
X140055209Y-6190476D01*
X140055209Y-6190476D02*
X138436161Y-6190476D01*
X138436161Y-5523809D02*
X138436161Y-4380952D01*
X140436161Y-4952381D02*
X138436161Y-4952381D01*
M02*
