%TF.GenerationSoftware,KiCad,Pcbnew,(7.0.0-0)*%
%TF.CreationDate,2023-04-09T15:50:48-04:00*%
%TF.ProjectId,KwartzLab-SensorBoard-Rev2 Panel,4b776172-747a-44c6-9162-2d53656e736f,2*%
%TF.SameCoordinates,Original*%
%TF.FileFunction,Paste,Top*%
%TF.FilePolarity,Positive*%
%FSLAX46Y46*%
G04 Gerber Fmt 4.6, Leading zero omitted, Abs format (unit mm)*
G04 Created by KiCad (PCBNEW (7.0.0-0)) date 2023-04-09 15:50:48*
%MOMM*%
%LPD*%
G01*
G04 APERTURE LIST*
G04 Aperture macros list*
%AMRoundRect*
0 Rectangle with rounded corners*
0 $1 Rounding radius*
0 $2 $3 $4 $5 $6 $7 $8 $9 X,Y pos of 4 corners*
0 Add a 4 corners polygon primitive as box body*
4,1,4,$2,$3,$4,$5,$6,$7,$8,$9,$2,$3,0*
0 Add four circle primitives for the rounded corners*
1,1,$1+$1,$2,$3*
1,1,$1+$1,$4,$5*
1,1,$1+$1,$6,$7*
1,1,$1+$1,$8,$9*
0 Add four rect primitives between the rounded corners*
20,1,$1+$1,$2,$3,$4,$5,0*
20,1,$1+$1,$4,$5,$6,$7,0*
20,1,$1+$1,$6,$7,$8,$9,0*
20,1,$1+$1,$8,$9,$2,$3,0*%
%AMFreePoly0*
4,1,6,0.725000,-0.725000,-0.725000,-0.725000,-0.725000,0.125000,-0.125000,0.725000,0.725000,0.725000,0.725000,-0.725000,0.725000,-0.725000,$1*%
G04 Aperture macros list end*
%ADD10RoundRect,0.250000X0.350000X-0.850000X0.350000X0.850000X-0.350000X0.850000X-0.350000X-0.850000X0*%
%ADD11RoundRect,0.250000X1.125000X-1.275000X1.125000X1.275000X-1.125000X1.275000X-1.125000X-1.275000X0*%
%ADD12R,1.000000X1.250000*%
%ADD13RoundRect,0.225000X-0.225000X-0.250000X0.225000X-0.250000X0.225000X0.250000X-0.225000X0.250000X0*%
%ADD14RoundRect,0.200000X0.200000X0.275000X-0.200000X0.275000X-0.200000X-0.275000X0.200000X-0.275000X0*%
%ADD15RoundRect,0.150000X0.150000X-0.587500X0.150000X0.587500X-0.150000X0.587500X-0.150000X-0.587500X0*%
%ADD16RoundRect,0.225000X0.375000X-0.225000X0.375000X0.225000X-0.375000X0.225000X-0.375000X-0.225000X0*%
%ADD17R,0.400000X0.800000*%
%ADD18R,0.800000X0.400000*%
%ADD19FreePoly0,270.000000*%
%ADD20R,1.450000X1.450000*%
%ADD21R,0.700000X0.700000*%
%ADD22RoundRect,0.200000X-0.275000X0.200000X-0.275000X-0.200000X0.275000X-0.200000X0.275000X0.200000X0*%
%ADD23RoundRect,0.200000X-0.200000X-0.275000X0.200000X-0.275000X0.200000X0.275000X-0.200000X0.275000X0*%
%ADD24RoundRect,0.225000X0.225000X0.250000X-0.225000X0.250000X-0.225000X-0.250000X0.225000X-0.250000X0*%
%ADD25RoundRect,0.225000X0.250000X-0.225000X0.250000X0.225000X-0.250000X0.225000X-0.250000X-0.225000X0*%
%ADD26R,0.900000X1.500000*%
%ADD27RoundRect,0.225000X-0.375000X0.225000X-0.375000X-0.225000X0.375000X-0.225000X0.375000X0.225000X0*%
%ADD28RoundRect,0.150000X0.150000X0.625000X-0.150000X0.625000X-0.150000X-0.625000X0.150000X-0.625000X0*%
%ADD29RoundRect,0.250000X0.350000X0.650000X-0.350000X0.650000X-0.350000X-0.650000X0.350000X-0.650000X0*%
%ADD30RoundRect,0.250000X-0.625000X0.375000X-0.625000X-0.375000X0.625000X-0.375000X0.625000X0.375000X0*%
%ADD31RoundRect,0.125000X-0.125000X-0.137500X0.125000X-0.137500X0.125000X0.137500X-0.125000X0.137500X0*%
%ADD32RoundRect,0.225000X-0.250000X0.225000X-0.250000X-0.225000X0.250000X-0.225000X0.250000X0.225000X0*%
%ADD33R,0.600000X1.150000*%
%ADD34R,0.300000X1.150000*%
%ADD35RoundRect,0.087500X-0.187500X-0.087500X0.187500X-0.087500X0.187500X0.087500X-0.187500X0.087500X0*%
%ADD36RoundRect,0.125000X-0.125000X-0.575000X0.125000X-0.575000X0.125000X0.575000X-0.125000X0.575000X0*%
%ADD37RoundRect,0.087500X0.187500X0.087500X-0.187500X0.087500X-0.187500X-0.087500X0.187500X-0.087500X0*%
%ADD38R,0.700000X1.000000*%
%ADD39R,0.700000X0.600000*%
G04 APERTURE END LIST*
D10*
%TO.C,U2*%
X183144994Y-107625000D03*
D11*
X183899994Y-103000000D03*
X186949994Y-103000000D03*
X183899994Y-99650000D03*
X186949994Y-99650000D03*
D10*
X187704994Y-107625000D03*
%TD*%
%TO.C,U2*%
X93187806Y-107625000D03*
D11*
X93942806Y-103000000D03*
X96992806Y-103000000D03*
X93942806Y-99650000D03*
X96992806Y-99650000D03*
D10*
X97747806Y-107625000D03*
%TD*%
D12*
%TO.C,SW1*%
X203999993Y-29124999D03*
X203999993Y-36874999D03*
%TD*%
%TO.C,SW1*%
X114042805Y-29124999D03*
X114042805Y-36874999D03*
%TD*%
D13*
%TO.C,C7*%
X201249994Y-40250000D03*
X202799994Y-40250000D03*
%TD*%
%TO.C,C7*%
X111292806Y-40250000D03*
X112842806Y-40250000D03*
%TD*%
D14*
%TO.C,R13*%
X170449994Y-82250000D03*
X168799994Y-82250000D03*
%TD*%
%TO.C,R13*%
X80492806Y-82250000D03*
X78842806Y-82250000D03*
%TD*%
D15*
%TO.C,Q2*%
X164049994Y-82250000D03*
X165949994Y-82250000D03*
X164999994Y-80375000D03*
%TD*%
%TO.C,Q2*%
X74092806Y-82250000D03*
X75992806Y-82250000D03*
X75042806Y-80375000D03*
%TD*%
D16*
%TO.C,D6*%
X155449994Y-77050000D03*
X155449994Y-73750000D03*
%TD*%
%TO.C,D6*%
X65492806Y-77050000D03*
X65492806Y-73750000D03*
%TD*%
D17*
%TO.C,U1*%
X222299993Y-50049999D03*
X221499993Y-50049999D03*
X220699993Y-50049999D03*
X219899993Y-50049999D03*
X219099993Y-50049999D03*
X218299993Y-50049999D03*
X217499993Y-50049999D03*
X216699993Y-50049999D03*
X215899993Y-50049999D03*
X215099993Y-50049999D03*
X214299993Y-50049999D03*
D18*
X213399993Y-51149999D03*
X213399993Y-51949999D03*
X213399993Y-52749999D03*
X213399993Y-53549999D03*
X213399993Y-54349999D03*
X213399993Y-55149999D03*
X213399993Y-55949999D03*
X213399993Y-56749999D03*
X213399993Y-57549999D03*
X213399993Y-58349999D03*
X213399993Y-59149999D03*
X213399993Y-59949999D03*
X213399993Y-60749999D03*
D17*
X214299993Y-61849999D03*
X215099993Y-61849999D03*
X215899993Y-61849999D03*
X216699993Y-61849999D03*
X217499993Y-61849999D03*
X218299993Y-61849999D03*
X219099993Y-61849999D03*
X219899993Y-61849999D03*
X220699993Y-61849999D03*
X221499993Y-61849999D03*
X222299993Y-61849999D03*
D18*
X223199993Y-60749999D03*
X223199993Y-59949999D03*
X223199993Y-59149999D03*
X223199993Y-58349999D03*
X223199993Y-57549999D03*
X223199993Y-56749999D03*
X223199993Y-55949999D03*
X223199993Y-55149999D03*
X223199993Y-54349999D03*
X223199993Y-53549999D03*
X223199993Y-52749999D03*
X223199993Y-51949999D03*
X223199993Y-51149999D03*
D19*
X220274994Y-53975000D03*
D20*
X218299993Y-53974999D03*
X216324993Y-53974999D03*
X220274993Y-55949999D03*
X218299993Y-55949999D03*
X216324993Y-55949999D03*
X220274993Y-57924999D03*
X218299993Y-57924999D03*
X216324993Y-57924999D03*
D21*
X223249993Y-61899999D03*
X213349993Y-61899999D03*
X213349993Y-49999999D03*
X223249993Y-49999999D03*
%TD*%
D17*
%TO.C,U1*%
X132342805Y-50049999D03*
X131542805Y-50049999D03*
X130742805Y-50049999D03*
X129942805Y-50049999D03*
X129142805Y-50049999D03*
X128342805Y-50049999D03*
X127542805Y-50049999D03*
X126742805Y-50049999D03*
X125942805Y-50049999D03*
X125142805Y-50049999D03*
X124342805Y-50049999D03*
D18*
X123442805Y-51149999D03*
X123442805Y-51949999D03*
X123442805Y-52749999D03*
X123442805Y-53549999D03*
X123442805Y-54349999D03*
X123442805Y-55149999D03*
X123442805Y-55949999D03*
X123442805Y-56749999D03*
X123442805Y-57549999D03*
X123442805Y-58349999D03*
X123442805Y-59149999D03*
X123442805Y-59949999D03*
X123442805Y-60749999D03*
D17*
X124342805Y-61849999D03*
X125142805Y-61849999D03*
X125942805Y-61849999D03*
X126742805Y-61849999D03*
X127542805Y-61849999D03*
X128342805Y-61849999D03*
X129142805Y-61849999D03*
X129942805Y-61849999D03*
X130742805Y-61849999D03*
X131542805Y-61849999D03*
X132342805Y-61849999D03*
D18*
X133242805Y-60749999D03*
X133242805Y-59949999D03*
X133242805Y-59149999D03*
X133242805Y-58349999D03*
X133242805Y-57549999D03*
X133242805Y-56749999D03*
X133242805Y-55949999D03*
X133242805Y-55149999D03*
X133242805Y-54349999D03*
X133242805Y-53549999D03*
X133242805Y-52749999D03*
X133242805Y-51949999D03*
X133242805Y-51149999D03*
D19*
X130317806Y-53975000D03*
D20*
X128342805Y-53974999D03*
X126367805Y-53974999D03*
X130317805Y-55949999D03*
X128342805Y-55949999D03*
X126367805Y-55949999D03*
X130317805Y-57924999D03*
X128342805Y-57924999D03*
X126367805Y-57924999D03*
D21*
X133292805Y-61899999D03*
X123392805Y-61899999D03*
X123392805Y-49999999D03*
X133292805Y-49999999D03*
%TD*%
D22*
%TO.C,R4*%
X199879994Y-119350000D03*
X199879994Y-121000000D03*
%TD*%
%TO.C,R4*%
X109922806Y-119350000D03*
X109922806Y-121000000D03*
%TD*%
D13*
%TO.C,C2*%
X130692806Y-47750000D03*
X132242806Y-47750000D03*
%TD*%
%TO.C,C2*%
X220649994Y-47750000D03*
X222199994Y-47750000D03*
%TD*%
D23*
%TO.C,R8*%
X150299994Y-78875000D03*
X151949994Y-78875000D03*
%TD*%
%TO.C,R8*%
X60342806Y-78875000D03*
X61992806Y-78875000D03*
%TD*%
D24*
%TO.C,C14*%
X197499994Y-89750000D03*
X195949994Y-89750000D03*
%TD*%
%TO.C,C14*%
X107542806Y-89750000D03*
X105992806Y-89750000D03*
%TD*%
D22*
%TO.C,R1*%
X209949994Y-66500000D03*
X209949994Y-68150000D03*
%TD*%
%TO.C,R1*%
X119992806Y-66500000D03*
X119992806Y-68150000D03*
%TD*%
D13*
%TO.C,C10*%
X142949994Y-43187500D03*
X144499994Y-43187500D03*
%TD*%
%TO.C,C10*%
X52992806Y-43187500D03*
X54542806Y-43187500D03*
%TD*%
D25*
%TO.C,C15*%
X190449994Y-84500000D03*
X190449994Y-82950000D03*
%TD*%
%TO.C,C15*%
X100492806Y-84500000D03*
X100492806Y-82950000D03*
%TD*%
D26*
%TO.C,D3*%
X192449993Y-124399999D03*
X195749993Y-124399999D03*
X195749993Y-119499999D03*
X192449993Y-119499999D03*
%TD*%
%TO.C,D3*%
X102492805Y-124399999D03*
X105792805Y-124399999D03*
X105792805Y-119499999D03*
X102492805Y-119499999D03*
%TD*%
D25*
%TO.C,C13*%
X190449994Y-94250000D03*
X190449994Y-92700000D03*
%TD*%
%TO.C,C13*%
X100492806Y-94250000D03*
X100492806Y-92700000D03*
%TD*%
D22*
%TO.C,R5*%
X125422806Y-119350000D03*
X125422806Y-121000000D03*
%TD*%
%TO.C,R5*%
X215379994Y-119350000D03*
X215379994Y-121000000D03*
%TD*%
D12*
%TO.C,SW2*%
X212949993Y-29249999D03*
X212949993Y-36999999D03*
%TD*%
%TO.C,SW2*%
X122992805Y-29249999D03*
X122992805Y-36999999D03*
%TD*%
D25*
%TO.C,C5*%
X100492806Y-100250000D03*
X100492806Y-98700000D03*
%TD*%
%TO.C,C5*%
X190449994Y-100250000D03*
X190449994Y-98700000D03*
%TD*%
D23*
%TO.C,R7*%
X214199994Y-40250000D03*
X215849994Y-40250000D03*
%TD*%
%TO.C,R7*%
X124242806Y-40250000D03*
X125892806Y-40250000D03*
%TD*%
D27*
%TO.C,D2*%
X202129994Y-113700000D03*
X202129994Y-117000000D03*
%TD*%
%TO.C,D2*%
X112172806Y-113700000D03*
X112172806Y-117000000D03*
%TD*%
D13*
%TO.C,C1*%
X213149994Y-44500000D03*
X214699994Y-44500000D03*
%TD*%
%TO.C,C1*%
X123192806Y-44500000D03*
X124742806Y-44500000D03*
%TD*%
D28*
%TO.C,J7*%
X185449994Y-82225000D03*
X184449994Y-82225000D03*
X183449994Y-82225000D03*
X182449994Y-82225000D03*
D29*
X186749994Y-84750000D03*
X181149994Y-84750000D03*
%TD*%
D28*
%TO.C,J7*%
X95492806Y-82225000D03*
X94492806Y-82225000D03*
X93492806Y-82225000D03*
X92492806Y-82225000D03*
D29*
X96792806Y-84750000D03*
X91192806Y-84750000D03*
%TD*%
D13*
%TO.C,C8*%
X210399994Y-40250000D03*
X211949994Y-40250000D03*
%TD*%
%TO.C,C8*%
X120442806Y-40250000D03*
X121992806Y-40250000D03*
%TD*%
D23*
%TO.C,R14*%
X212199994Y-64990000D03*
X213849994Y-64990000D03*
%TD*%
%TO.C,R14*%
X122242806Y-64990000D03*
X123892806Y-64990000D03*
%TD*%
D14*
%TO.C,R10*%
X151949994Y-75500000D03*
X150299994Y-75500000D03*
%TD*%
%TO.C,R10*%
X61992806Y-75500000D03*
X60342806Y-75500000D03*
%TD*%
%TO.C,R12*%
X170449994Y-75500000D03*
X168799994Y-75500000D03*
%TD*%
%TO.C,R12*%
X80492806Y-75500000D03*
X78842806Y-75500000D03*
%TD*%
D16*
%TO.C,D7*%
X173949994Y-77050000D03*
X173949994Y-73750000D03*
%TD*%
%TO.C,D7*%
X83992806Y-77050000D03*
X83992806Y-73750000D03*
%TD*%
D30*
%TO.C,D4*%
X155449994Y-79700000D03*
X155449994Y-82500000D03*
%TD*%
%TO.C,D4*%
X65492806Y-79700000D03*
X65492806Y-82500000D03*
%TD*%
D13*
%TO.C,C3*%
X220649994Y-44500000D03*
X222199994Y-44500000D03*
%TD*%
%TO.C,C3*%
X130692806Y-44500000D03*
X132242806Y-44500000D03*
%TD*%
D31*
%TO.C,U4*%
X142349994Y-57125000D03*
X143149994Y-57125000D03*
X143949994Y-57125000D03*
X144749994Y-57125000D03*
X144749994Y-59500000D03*
X143949994Y-59500000D03*
X143149994Y-59500000D03*
X142349994Y-59500000D03*
%TD*%
%TO.C,U4*%
X52392806Y-57125000D03*
X53192806Y-57125000D03*
X53992806Y-57125000D03*
X54792806Y-57125000D03*
X54792806Y-59500000D03*
X53992806Y-59500000D03*
X53192806Y-59500000D03*
X52392806Y-59500000D03*
%TD*%
D32*
%TO.C,C6*%
X198629994Y-113700000D03*
X198629994Y-115250000D03*
%TD*%
%TO.C,C6*%
X108672806Y-113700000D03*
X108672806Y-115250000D03*
%TD*%
D33*
%TO.C,J2*%
X204429993Y-119644999D03*
X205229993Y-119644999D03*
D34*
X206379993Y-119644999D03*
X207379993Y-119644999D03*
X207879993Y-119644999D03*
X208879993Y-119644999D03*
D33*
X210029993Y-119644999D03*
X210829993Y-119644999D03*
X210829993Y-119644999D03*
X210029993Y-119644999D03*
D34*
X209379993Y-119644999D03*
X208379993Y-119644999D03*
X206879993Y-119644999D03*
X205879993Y-119644999D03*
D33*
X205229993Y-119644999D03*
X204429993Y-119644999D03*
%TD*%
%TO.C,J2*%
X114472805Y-119644999D03*
X115272805Y-119644999D03*
D34*
X116422805Y-119644999D03*
X117422805Y-119644999D03*
X117922805Y-119644999D03*
X118922805Y-119644999D03*
D33*
X120072805Y-119644999D03*
X120872805Y-119644999D03*
X120872805Y-119644999D03*
X120072805Y-119644999D03*
D34*
X119422805Y-119644999D03*
X118422805Y-119644999D03*
X116922805Y-119644999D03*
X115922805Y-119644999D03*
D33*
X115272805Y-119644999D03*
X114472805Y-119644999D03*
%TD*%
D14*
%TO.C,R11*%
X151949994Y-82250000D03*
X150299994Y-82250000D03*
%TD*%
%TO.C,R11*%
X61992806Y-82250000D03*
X60342806Y-82250000D03*
%TD*%
D15*
%TO.C,Q1*%
X145549994Y-82250000D03*
X147449994Y-82250000D03*
X146499994Y-80375000D03*
%TD*%
%TO.C,Q1*%
X55592806Y-82250000D03*
X57492806Y-82250000D03*
X56542806Y-80375000D03*
%TD*%
D22*
%TO.C,R2*%
X206699994Y-66500000D03*
X206699994Y-68150000D03*
%TD*%
%TO.C,R2*%
X116742806Y-66500000D03*
X116742806Y-68150000D03*
%TD*%
D35*
%TO.C,U3*%
X142649994Y-46500000D03*
X142649994Y-47500000D03*
D36*
X143674994Y-47000000D03*
D37*
X144699994Y-46500000D03*
X144699994Y-47500000D03*
%TD*%
D35*
%TO.C,U3*%
X52692806Y-46500000D03*
X52692806Y-47500000D03*
D36*
X53717806Y-47000000D03*
D37*
X54742806Y-46500000D03*
X54742806Y-47500000D03*
%TD*%
D23*
%TO.C,R9*%
X168799994Y-78875000D03*
X170449994Y-78875000D03*
%TD*%
%TO.C,R9*%
X78842806Y-78875000D03*
X80492806Y-78875000D03*
%TD*%
D30*
%TO.C,D5*%
X173949994Y-79700000D03*
X173949994Y-82500000D03*
%TD*%
%TO.C,D5*%
X83992806Y-79700000D03*
X83992806Y-82500000D03*
%TD*%
D38*
%TO.C,D1*%
X208129993Y-115749999D03*
D39*
X208129993Y-114049999D03*
X206129993Y-114049999D03*
X206129993Y-115949999D03*
%TD*%
D38*
%TO.C,D1*%
X118172805Y-115749999D03*
D39*
X118172805Y-114049999D03*
X116172805Y-114049999D03*
X116172805Y-115949999D03*
%TD*%
D25*
%TO.C,C4*%
X190449994Y-107550000D03*
X190449994Y-106000000D03*
%TD*%
%TO.C,C4*%
X100492806Y-107550000D03*
X100492806Y-106000000D03*
%TD*%
D23*
%TO.C,R6*%
X205049994Y-40250000D03*
X206699994Y-40250000D03*
%TD*%
%TO.C,R6*%
X115092806Y-40250000D03*
X116742806Y-40250000D03*
%TD*%
D13*
%TO.C,C11*%
X142899994Y-54250000D03*
X144449994Y-54250000D03*
%TD*%
%TO.C,C11*%
X52942806Y-54250000D03*
X54492806Y-54250000D03*
%TD*%
%TO.C,C9*%
X193399994Y-116750000D03*
X194949994Y-116750000D03*
%TD*%
%TO.C,C9*%
X103442806Y-116750000D03*
X104992806Y-116750000D03*
%TD*%
D14*
%TO.C,R3*%
X218599994Y-44500000D03*
X216949994Y-44500000D03*
%TD*%
%TO.C,R3*%
X128642806Y-44500000D03*
X126992806Y-44500000D03*
%TD*%
D13*
%TO.C,C12*%
X52942806Y-62500000D03*
X54492806Y-62500000D03*
%TD*%
%TO.C,C12*%
X142899994Y-62500000D03*
X144449994Y-62500000D03*
%TD*%
M02*
