M48
; DRILL file {KiCad (7.0.0-0)} date Sunday, April 23, 2023 at 09:32:59
; FORMAT={-:-/ absolute / inch / decimal}
; #@! TF.CreationDate,2023-04-23T09:32:59-04:00
; #@! TF.GenerationSoftware,Kicad,Pcbnew,(7.0.0-0)
; #@! TF.FileFunction,Plated,1,2,PTH
FMAT,2
INCH
; #@! TA.AperFunction,Plated,PTH,ViaDrill
T1C0.0157
; #@! TA.AperFunction,Plated,PTH,ViaDrill
T2C0.0236
; #@! TA.AperFunction,Plated,PTH,ComponentDrill
T3C0.0236
; #@! TA.AperFunction,Plated,PTH,ComponentDrill
T4C0.0287
; #@! TA.AperFunction,Plated,PTH,ComponentDrill
T5C0.0374
; #@! TA.AperFunction,Plated,PTH,ComponentDrill
T6C0.0394
; #@! TA.AperFunction,Plated,PTH,ComponentDrill
T7C0.0512
; #@! TA.AperFunction,Plated,PTH,ComponentDrill
T8C0.1693
%
G90
G05
T1
X2.0993Y-2.2028
X2.1151Y-2.4268
X2.1273Y-1.9898
X2.1568Y-2.0232
X2.1926Y-1.8929
X2.1958Y-1.7622
X2.1962Y-2.2126
X2.2257Y-2.1843
X2.608Y-2.8717
X3.3241Y-2.8693
X3.7005Y-3.4154
X3.73Y-3.5783
X3.7442Y-3.3102
X3.7596Y-3.4429
X3.8166Y-3.2118
X3.9655Y-4.9409
X4.1139Y-4.7024
X4.121Y-3.5331
X4.1643Y-4.7626
X4.2694Y-4.6957
X4.3296Y-1.5819
X4.3627Y-2.2185
X4.4698Y-2.902
X4.4789Y-4.6417
X4.5076Y-2.2189
X4.5958Y-2.3248
X4.6552Y-1.7028
X4.6922Y-1.5512
X4.734Y-2.3248
X4.7596Y-4.626
X4.793Y-2.0669
X4.7985Y-1.752
X4.8757Y-4.7004
X4.9072Y-2.128
X4.9072Y-2.1752
X4.9072Y-2.2244
X4.9111Y-2.0669
X4.9111Y-2.3031
X4.921Y-2.3524
X4.9544Y-2.3878
X4.9899Y-2.0374
X5.0096Y-2.4902
X5.0292Y-2.3484
X5.0765Y-2.3484
X5.0981Y-2.0669
X5.1218Y-2.3484
X5.1375Y-2.0669
X5.2525Y-1.8791
X5.2537Y-1.7512
X5.6409Y-2.2028
X5.6567Y-2.4268
X5.6689Y-1.9898
X5.6984Y-2.0232
X5.7343Y-1.8929
X5.7374Y-1.7622
X5.7378Y-2.2126
X5.7673Y-2.1843
X6.1496Y-2.8717
X6.8657Y-2.8693
X7.2421Y-3.4154
X7.2717Y-3.5783
X7.2858Y-3.3102
X7.3012Y-3.4429
X7.3583Y-3.2118
X7.5071Y-4.9409
X7.6555Y-4.7024
X7.6626Y-3.5331
X7.7059Y-4.7626
X7.811Y-4.6957
X7.8713Y-1.5819
X7.9043Y-2.2185
X8.0114Y-2.902
X8.0205Y-4.6417
X8.0492Y-2.2189
X8.1374Y-2.3248
X8.1969Y-1.7028
X8.2339Y-1.5512
X8.2756Y-2.3248
X8.3012Y-4.626
X8.3346Y-2.0669
X8.3402Y-1.752
X8.4173Y-4.7004
X8.4488Y-2.128
X8.4488Y-2.1752
X8.4488Y-2.2244
X8.4528Y-2.0669
X8.4528Y-2.3031
X8.4626Y-2.3524
X8.4961Y-2.3878
X8.5315Y-2.0374
X8.5512Y-2.4902
X8.5709Y-2.3484
X8.6181Y-2.3484
X8.6398Y-2.0669
X8.6634Y-2.3484
X8.6791Y-2.0669
X8.7941Y-1.8791
X8.7953Y-1.7512
T2
X2.6985Y-3.1579
X3.4147Y-3.1579
X3.4285Y-4.2835
X4.5174Y-2.6181
X4.5245Y-4.626
X4.6918Y-4.626
X4.7438Y-2.5394
X5.1769Y-2.0374
X6.2402Y-3.1579
X6.9563Y-3.1579
X6.9701Y-4.2835
X8.0591Y-2.6181
X8.0661Y-4.626
X8.2335Y-4.626
X8.2854Y-2.5394
X8.7185Y-2.0374
T3
X2.0981Y-1.3583
X2.0981Y-4.7244
X2.1353Y-1.2685
X2.1353Y-1.448
X2.1353Y-4.6346
X2.1353Y-4.8142
X2.2251Y-1.2313
X2.2251Y-1.4852
X2.2251Y-4.5974
X2.2251Y-4.8514
X2.3149Y-1.2685
X2.3149Y-1.448
X2.3149Y-4.6346
X2.3149Y-4.8142
X2.3521Y-1.3583
X2.3521Y-4.7244
X5.0881Y-4.7244
X5.0886Y-1.3583
X5.1253Y-4.6346
X5.1253Y-4.8142
X5.1258Y-1.2685
X5.1258Y-1.448
X5.2151Y-4.5974
X5.2151Y-4.8514
X5.2156Y-1.2313
X5.2156Y-1.4852
X5.3048Y-4.6346
X5.3048Y-4.8142
X5.3053Y-1.2685
X5.3053Y-1.448
X5.342Y-4.7244
X5.3425Y-1.3583
X5.6398Y-1.3583
X5.6398Y-4.7244
X5.677Y-1.2685
X5.677Y-1.448
X5.677Y-4.6346
X5.677Y-4.8142
X5.7667Y-1.2313
X5.7667Y-1.4852
X5.7667Y-4.5974
X5.7667Y-4.8514
X5.8565Y-1.2685
X5.8565Y-1.448
X5.8565Y-4.6346
X5.8565Y-4.8142
X5.8937Y-1.3583
X5.8937Y-4.7244
X8.6297Y-4.7244
X8.6302Y-1.3583
X8.6669Y-4.6346
X8.6669Y-4.8142
X8.6674Y-1.2685
X8.6674Y-1.448
X8.7567Y-4.5974
X8.7567Y-4.8514
X8.7572Y-1.2313
X8.7572Y-1.4852
X8.8465Y-4.6346
X8.8465Y-4.8142
X8.847Y-1.2685
X8.847Y-1.448
X8.8836Y-4.7244
X8.8841Y-1.3583
T4
X3.5824Y-3.6909
X3.6414Y-3.6909
X3.7005Y-3.6909
X3.7596Y-3.6909
X3.8186Y-3.6909
X7.124Y-3.6909
X7.1831Y-3.6909
X7.2421Y-3.6909
X7.3012Y-3.6909
X7.3602Y-3.6909
T5
X4.0983Y-3.2691
X4.0983Y-3.3691
X4.1983Y-3.2691
X4.1983Y-3.3691
X4.2983Y-3.2691
X4.2983Y-3.3691
X7.6399Y-3.2691
X7.6399Y-3.3691
X7.7399Y-3.2691
X7.7399Y-3.3691
X7.8399Y-3.2691
X7.8399Y-3.3691
T6
X2.1533Y-2.6622
X2.1533Y-2.7622
X2.2533Y-2.6622
X2.2533Y-2.7622
X4.1139Y-1.3232
X4.1139Y-1.4232
X4.2139Y-1.3232
X4.2139Y-1.4232
X5.095Y-2.8248
X5.195Y-2.8248
X5.295Y-2.8248
X5.395Y-2.8248
X5.6949Y-2.6622
X5.6949Y-2.7622
X5.7949Y-2.6622
X5.7949Y-2.7622
X7.6555Y-1.3232
X7.6555Y-1.4232
X7.7555Y-1.3232
X7.7555Y-1.4232
X8.6366Y-2.8248
X8.7366Y-2.8248
X8.8366Y-2.8248
X8.9366Y-2.8248
T7
X2.0962Y-3.5768
X2.0962Y-4.0571
X2.3324Y-4.1358
X2.5686Y-3.5768
X2.5686Y-4.0571
X2.6572Y-4.7933
X2.8147Y-3.5768
X2.8147Y-4.0571
X2.8572Y-4.7933
X3.0509Y-4.1358
X3.0572Y-4.7933
X3.2871Y-3.5768
X3.2871Y-4.0571
X3.3822Y-4.7933
X3.5822Y-4.7933
X3.7822Y-4.7933
X5.6378Y-3.5768
X5.6378Y-4.0571
X5.874Y-4.1358
X6.1102Y-3.5768
X6.1102Y-4.0571
X6.1988Y-4.7933
X6.3563Y-3.5768
X6.3563Y-4.0571
X6.3988Y-4.7933
X6.5925Y-4.1358
X6.5988Y-4.7933
X6.8287Y-3.5768
X6.8287Y-4.0571
X6.9238Y-4.7933
X7.1238Y-4.7933
X7.3238Y-4.7933
T8
X2.2251Y-1.3583
X2.2251Y-4.7244
X5.2151Y-4.7244
X5.2156Y-1.3583
X5.7667Y-1.3583
X5.7667Y-4.7244
X8.7567Y-4.7244
X8.7572Y-1.3583
T3
G00X4.4627Y-4.7114
M15
G01X4.4627Y-4.7547
M16
G05
G00X4.4627Y-4.8819
M15
G01X4.4627Y-4.9134
M16
G05
G00X4.8029Y-4.7114
M15
G01X4.8029Y-4.7547
M16
G05
G00X4.8029Y-4.8819
M15
G01X4.8029Y-4.9134
M16
G05
G00X8.0043Y-4.7114
M15
G01X8.0043Y-4.7547
M16
G05
G00X8.0043Y-4.8819
M15
G01X8.0043Y-4.9134
M16
G05
G00X8.3445Y-4.7114
M15
G01X8.3445Y-4.7547
M16
G05
G00X8.3445Y-4.8819
M15
G01X8.3445Y-4.9134
M16
G05
T0
M30
