%TF.GenerationSoftware,KiCad,Pcbnew,(7.0.0-0)*%
%TF.CreationDate,2023-03-25T06:26:20-04:00*%
%TF.ProjectId,KwartzLab-SensorBoard-Rev1,4b776172-747a-44c6-9162-2d53656e736f,1*%
%TF.SameCoordinates,Original*%
%TF.FileFunction,Copper,L2,Bot*%
%TF.FilePolarity,Positive*%
%FSLAX46Y46*%
G04 Gerber Fmt 4.6, Leading zero omitted, Abs format (unit mm)*
G04 Created by KiCad (PCBNEW (7.0.0-0)) date 2023-03-25 06:26:20*
%MOMM*%
%LPD*%
G01*
G04 APERTURE LIST*
G04 Aperture macros list*
%AMRoundRect*
0 Rectangle with rounded corners*
0 $1 Rounding radius*
0 $2 $3 $4 $5 $6 $7 $8 $9 X,Y pos of 4 corners*
0 Add a 4 corners polygon primitive as box body*
4,1,4,$2,$3,$4,$5,$6,$7,$8,$9,$2,$3,0*
0 Add four circle primitives for the rounded corners*
1,1,$1+$1,$2,$3*
1,1,$1+$1,$4,$5*
1,1,$1+$1,$6,$7*
1,1,$1+$1,$8,$9*
0 Add four rect primitives between the rounded corners*
20,1,$1+$1,$2,$3,$4,$5,0*
20,1,$1+$1,$4,$5,$6,$7,0*
20,1,$1+$1,$6,$7,$8,$9,0*
20,1,$1+$1,$8,$9,$2,$3,0*%
%AMOutline5P*
0 Free polygon, 5 corners , with rotation*
0 The origin of the aperture is its center*
0 number of corners: always 5*
0 $1 to $10 corner X, Y*
0 $11 Rotation angle, in degrees counterclockwise*
0 create outline with 5 corners*
4,1,5,$1,$2,$3,$4,$5,$6,$7,$8,$9,$10,$1,$2,$11*%
%AMOutline6P*
0 Free polygon, 6 corners , with rotation*
0 The origin of the aperture is its center*
0 number of corners: always 6*
0 $1 to $12 corner X, Y*
0 $13 Rotation angle, in degrees counterclockwise*
0 create outline with 6 corners*
4,1,6,$1,$2,$3,$4,$5,$6,$7,$8,$9,$10,$11,$12,$1,$2,$13*%
%AMOutline7P*
0 Free polygon, 7 corners , with rotation*
0 The origin of the aperture is its center*
0 number of corners: always 7*
0 $1 to $14 corner X, Y*
0 $15 Rotation angle, in degrees counterclockwise*
0 create outline with 7 corners*
4,1,7,$1,$2,$3,$4,$5,$6,$7,$8,$9,$10,$11,$12,$13,$14,$1,$2,$15*%
%AMOutline8P*
0 Free polygon, 8 corners , with rotation*
0 The origin of the aperture is its center*
0 number of corners: always 8*
0 $1 to $16 corner X, Y*
0 $17 Rotation angle, in degrees counterclockwise*
0 create outline with 8 corners*
4,1,8,$1,$2,$3,$4,$5,$6,$7,$8,$9,$10,$11,$12,$13,$14,$15,$16,$1,$2,$17*%
G04 Aperture macros list end*
%TA.AperFunction,ComponentPad*%
%ADD10C,0.900000*%
%TD*%
%TA.AperFunction,ComponentPad*%
%ADD11C,8.600000*%
%TD*%
%TA.AperFunction,ComponentPad*%
%ADD12R,1.700000X1.700000*%
%TD*%
%TA.AperFunction,ComponentPad*%
%ADD13O,1.700000X1.700000*%
%TD*%
%TA.AperFunction,ComponentPad*%
%ADD14RoundRect,0.250000X0.265000X0.615000X-0.265000X0.615000X-0.265000X-0.615000X0.265000X-0.615000X0*%
%TD*%
%TA.AperFunction,ComponentPad*%
%ADD15O,1.030000X1.730000*%
%TD*%
%TA.AperFunction,ComponentPad*%
%ADD16C,3.000000*%
%TD*%
%TA.AperFunction,ComponentPad*%
%ADD17R,2.600000X2.600000*%
%TD*%
%TA.AperFunction,ComponentPad*%
%ADD18C,2.600000*%
%TD*%
%TA.AperFunction,ComponentPad*%
%ADD19Outline8P,-0.775000X0.321016X-0.321016X0.775000X0.321016X0.775000X0.775000X0.321016X0.775000X-0.321016X0.321016X-0.775000X-0.321016X-0.775000X-0.775000X-0.321016X180.000000*%
%TD*%
%TA.AperFunction,ComponentPad*%
%ADD20O,1.000000X2.100000*%
%TD*%
%TA.AperFunction,ComponentPad*%
%ADD21O,1.000000X1.800000*%
%TD*%
%TA.AperFunction,ViaPad*%
%ADD22C,0.800000*%
%TD*%
%TA.AperFunction,ViaPad*%
%ADD23C,1.000000*%
%TD*%
%TA.AperFunction,Conductor*%
%ADD24C,1.000000*%
%TD*%
%TA.AperFunction,Conductor*%
%ADD25C,0.500000*%
%TD*%
%TA.AperFunction,Conductor*%
%ADD26C,0.300000*%
%TD*%
G04 APERTURE END LIST*
D10*
%TO.P,H3,1,1*%
%TO.N,GND*%
X169557188Y-66150000D03*
X170501769Y-63869581D03*
X170501769Y-68430419D03*
X172782188Y-62925000D03*
D11*
X172782188Y-66150000D03*
D10*
X172782188Y-69375000D03*
X175062607Y-63869581D03*
X175062607Y-68430419D03*
X176007188Y-66150000D03*
%TD*%
%TO.P,H1,1,1*%
%TO.N,GND*%
X93600000Y-151650000D03*
X94544581Y-149369581D03*
X94544581Y-153930419D03*
X96825000Y-148425000D03*
D11*
X96825000Y-151650000D03*
D10*
X96825000Y-154875000D03*
X99105419Y-149369581D03*
X99105419Y-153930419D03*
X100050000Y-151650000D03*
%TD*%
D12*
%TO.P,J1,1,Pin_1*%
%TO.N,/RX*%
X169719999Y-103399999D03*
D13*
%TO.P,J1,2,Pin_2*%
%TO.N,/TX*%
X172259999Y-103399999D03*
%TO.P,J1,3,Pin_3*%
%TO.N,GND*%
X174799999Y-103399999D03*
%TO.P,J1,4,Pin_4*%
%TO.N,+3V3*%
X177339999Y-103399999D03*
%TD*%
D10*
%TO.P,H4,1,1*%
%TO.N,GND*%
X93600000Y-66150000D03*
X94544581Y-63869581D03*
X94544581Y-68430419D03*
X96825000Y-62925000D03*
D11*
X96825000Y-66150000D03*
D10*
X96825000Y-69375000D03*
X99105419Y-63869581D03*
X99105419Y-68430419D03*
X100050000Y-66150000D03*
%TD*%
D14*
%TO.P,J3,1,Pin_1*%
%TO.N,+5V*%
X137300000Y-125400000D03*
D15*
%TO.P,J3,2,Pin_2*%
%TO.N,SDA*%
X135799999Y-125399999D03*
%TO.P,J3,3,Pin_3*%
%TO.N,SCL*%
X134299999Y-125399999D03*
%TO.P,J3,4,Pin_4*%
%TO.N,GND*%
X132799999Y-125399999D03*
%TO.P,J3,5,Pin_5*%
X131299999Y-125399999D03*
%TD*%
D16*
%TO.P,K2,11*%
%TO.N,/Output Relays/RELAY2_COM*%
X117800000Y-136700000D03*
%TO.P,K2,12*%
%TO.N,/Output Relays/RELAY2_NC*%
X111800000Y-122500000D03*
%TO.P,K2,14*%
%TO.N,/Output Relays/RELAY2_NO*%
X123800000Y-122500000D03*
%TO.P,K2,A1*%
%TO.N,+5V*%
X123800000Y-134700000D03*
%TO.P,K2,A2*%
%TO.N,/Output Relays/RELAY2_EN*%
X111800000Y-134700000D03*
%TD*%
D10*
%TO.P,H2,1,1*%
%TO.N,GND*%
X169544581Y-151650000D03*
X170489162Y-149369581D03*
X170489162Y-153930419D03*
X172769581Y-148425000D03*
D11*
X172769581Y-151650000D03*
D10*
X172769581Y-154875000D03*
X175050000Y-149369581D03*
X175050000Y-153930419D03*
X175994581Y-151650000D03*
%TD*%
D17*
%TO.P,J6,1,Pin_1*%
%TO.N,/Output Relays/RELAY2_NC*%
X126214999Y-153399999D03*
D18*
%TO.P,J6,2,Pin_2*%
%TO.N,/Output Relays/RELAY2_COM*%
X131295000Y-153400000D03*
%TO.P,J6,3,Pin_3*%
%TO.N,/Output Relays/RELAY2_NO*%
X136375000Y-153400000D03*
%TD*%
D17*
%TO.P,J5,1,Pin_1*%
%TO.N,/Output Relays/RELAY1_NC*%
X107799999Y-153399999D03*
D18*
%TO.P,J5,2,Pin_2*%
%TO.N,/Output Relays/RELAY1_COM*%
X112880000Y-153400000D03*
%TO.P,J5,3,Pin_3*%
%TO.N,/Output Relays/RELAY1_NO*%
X117960000Y-153400000D03*
%TD*%
D19*
%TO.P,J4,1,Pin_1*%
%TO.N,unconnected-(J4-Pin_1-Pad1)*%
X149482927Y-114684143D03*
%TO.P,J4,2,Pin_2*%
%TO.N,+3V3*%
X149482927Y-117224143D03*
%TO.P,J4,3,Pin_3*%
%TO.N,SCL*%
X146942927Y-114684143D03*
%TO.P,J4,4,Pin_4*%
%TO.N,SDA*%
X146942927Y-117224143D03*
%TO.P,J4,5,Pin_5*%
%TO.N,unconnected-(J4-Pin_5-Pad5)*%
X144402927Y-114684143D03*
%TO.P,J4,6,Pin_6*%
%TO.N,GND*%
X144402927Y-117224143D03*
%TD*%
D20*
%TO.P,J2,S1,SHIELD*%
%TO.N,GND*%
X153659999Y-151869999D03*
D21*
X153659999Y-156049999D03*
D20*
X162299999Y-151869999D03*
D21*
X162299999Y-156049999D03*
%TD*%
D16*
%TO.P,K1,11*%
%TO.N,/Output Relays/RELAY1_COM*%
X99550000Y-136700000D03*
%TO.P,K1,12*%
%TO.N,/Output Relays/RELAY1_NC*%
X93550000Y-122500000D03*
%TO.P,K1,14*%
%TO.N,/Output Relays/RELAY1_NO*%
X105550000Y-122500000D03*
%TO.P,K1,A1*%
%TO.N,+5V*%
X105550000Y-134700000D03*
%TO.P,K1,A2*%
%TO.N,/Output Relays/RELAY1_EN*%
X93550000Y-134700000D03*
%TD*%
D22*
%TO.N,GND*%
X95800000Y-80900000D03*
X170400000Y-91300000D03*
X169250000Y-91300000D03*
X94550000Y-82650000D03*
X168050000Y-91300000D03*
X170800000Y-84150000D03*
X93800000Y-89900000D03*
X93550000Y-80900000D03*
X164950000Y-86900000D03*
X166150000Y-92300000D03*
X164950000Y-85700000D03*
X169800000Y-84150000D03*
X95300000Y-87400000D03*
X164950000Y-88150000D03*
D23*
%TO.N,+3V3*%
X155050000Y-98150000D03*
X171800000Y-83400000D03*
X160800000Y-96150000D03*
%TO.N,VBUS*%
X155230000Y-149150000D03*
X159480000Y-149150000D03*
D22*
%TO.N,STATUS*%
X167050000Y-83400000D03*
X167550000Y-94900000D03*
%TO.N,SDA*%
X97050000Y-89150000D03*
X97050000Y-90699500D03*
X165050000Y-90150000D03*
X160550000Y-90699500D03*
X135800000Y-119099500D03*
X157550000Y-90699500D03*
%TO.N,SCL*%
X134300000Y-118400000D03*
%TO.N,BOOT*%
X158550000Y-74900000D03*
X165300000Y-91400000D03*
%TO.N,RELAY1*%
X100050000Y-108900000D03*
X162050000Y-84150000D03*
%TO.N,RELAY2*%
X118550000Y-108900000D03*
X165050000Y-84150000D03*
%TD*%
D24*
%TO.N,GND*%
X96825000Y-151650000D02*
X96825000Y-155675000D01*
X98300000Y-157150000D02*
X140300000Y-157150000D01*
X96825000Y-155675000D02*
X98300000Y-157150000D01*
D25*
%TO.N,+3V3*%
X155800000Y-96150000D02*
X173550000Y-96150000D01*
X176800000Y-96150000D02*
X177340000Y-96690000D01*
X155050000Y-98150000D02*
X155050000Y-96900000D01*
X173550000Y-96150000D02*
X176800000Y-96150000D01*
X155050000Y-96900000D02*
X155800000Y-96150000D01*
X172300000Y-96150000D02*
X173550000Y-96150000D01*
X172300000Y-83900000D02*
X172300000Y-96150000D01*
X177340000Y-96690000D02*
X177340000Y-103400000D01*
X171800000Y-83400000D02*
X172300000Y-83900000D01*
%TO.N,VBUS*%
X159480000Y-149150000D02*
X155230000Y-149150000D01*
D26*
%TO.N,STATUS*%
X167050000Y-94400000D02*
X167550000Y-94900000D01*
X167050000Y-83400000D02*
X167050000Y-94400000D01*
%TO.N,SDA*%
X157550000Y-90699500D02*
X160550000Y-90699500D01*
X160550000Y-90699500D02*
X160599500Y-90650000D01*
X135850500Y-119150000D02*
X135800000Y-119099500D01*
X146942928Y-117224144D02*
X144267072Y-119900000D01*
X164550000Y-90650000D02*
X165050000Y-90150000D01*
X136550000Y-119150000D02*
X135850500Y-119150000D01*
X160599500Y-90650000D02*
X164550000Y-90650000D01*
X97050000Y-89150000D02*
X97050000Y-90699500D01*
X144267072Y-119900000D02*
X137300000Y-119900000D01*
X137300000Y-119900000D02*
X136550000Y-119150000D01*
%TO.N,SCL*%
X145550000Y-116077072D02*
X146942928Y-114684144D01*
X144050000Y-119150000D02*
X145550000Y-117650000D01*
X134800000Y-118400000D02*
X134800500Y-118399500D01*
X134300000Y-118400000D02*
X134800000Y-118400000D01*
X145550000Y-117650000D02*
X145550000Y-116077072D01*
X134800500Y-118399500D02*
X136992698Y-118399500D01*
X137743198Y-119150000D02*
X144050000Y-119150000D01*
X136992698Y-118399500D02*
X137743198Y-119150000D01*
D24*
%TO.N,/Output Relays/RELAY1_NC*%
X107800000Y-145900000D02*
X107800000Y-153400000D01*
X98800000Y-144650000D02*
X106550000Y-144650000D01*
X95650000Y-122500000D02*
X96800000Y-123650000D01*
X96800000Y-123650000D02*
X96800000Y-142650000D01*
X106550000Y-144650000D02*
X107800000Y-145900000D01*
X96800000Y-142650000D02*
X98800000Y-144650000D01*
X93550000Y-122500000D02*
X95650000Y-122500000D01*
%TO.N,/Output Relays/RELAY1_NO*%
X102300000Y-123900000D02*
X102300000Y-140650000D01*
X105550000Y-122500000D02*
X103700000Y-122500000D01*
X102300000Y-140650000D02*
X103800000Y-142150000D01*
X113050000Y-142150000D02*
X117960000Y-147060000D01*
X117960000Y-147060000D02*
X117960000Y-153400000D01*
X103700000Y-122500000D02*
X102300000Y-123900000D01*
X103800000Y-142150000D02*
X113050000Y-142150000D01*
%TO.N,/Output Relays/RELAY2_NC*%
X111800000Y-122500000D02*
X113400000Y-122500000D01*
X113400000Y-122500000D02*
X115050000Y-124150000D01*
X115050000Y-138650000D02*
X126215000Y-149815000D01*
X115050000Y-124150000D02*
X115050000Y-138650000D01*
X126215000Y-149815000D02*
X126215000Y-153400000D01*
%TO.N,/Output Relays/RELAY2_NO*%
X120550000Y-139650000D02*
X129050000Y-148150000D01*
X123800000Y-122500000D02*
X122450000Y-122500000D01*
X136375000Y-149725000D02*
X136375000Y-153400000D01*
X122450000Y-122500000D02*
X120550000Y-124400000D01*
X134800000Y-148150000D02*
X136375000Y-149725000D01*
X129050000Y-148150000D02*
X134800000Y-148150000D01*
X120550000Y-124400000D02*
X120550000Y-139650000D01*
D26*
%TO.N,BOOT*%
X158550000Y-77650000D02*
X159050000Y-78150000D01*
X165800000Y-90900000D02*
X165300000Y-91400000D01*
X158550000Y-74900000D02*
X158550000Y-77650000D01*
X165300000Y-78150000D02*
X165800000Y-78650000D01*
X159050000Y-78150000D02*
X165300000Y-78150000D01*
X165800000Y-78650000D02*
X165800000Y-90900000D01*
%TO.N,RELAY1*%
X162050000Y-84150000D02*
X161800000Y-83900000D01*
X161800000Y-83900000D02*
X125050000Y-83900000D01*
X125050000Y-83900000D02*
X100050000Y-108900000D01*
%TO.N,RELAY2*%
X118550000Y-108900000D02*
X141300000Y-86150000D01*
X163050000Y-86150000D02*
X165050000Y-84150000D01*
X141300000Y-86150000D02*
X163050000Y-86150000D01*
%TD*%
%TA.AperFunction,Conductor*%
%TO.N,GND*%
G36*
X175009750Y-58660605D02*
G01*
X175414110Y-58677329D01*
X175424283Y-58678172D01*
X175823348Y-58727915D01*
X175833456Y-58729602D01*
X176227041Y-58812126D01*
X176236932Y-58814631D01*
X176622380Y-58929383D01*
X176632049Y-58932703D01*
X177006681Y-59078883D01*
X177016038Y-59082987D01*
X177377354Y-59259624D01*
X177386307Y-59264469D01*
X177731802Y-59470338D01*
X177740363Y-59475932D01*
X178067632Y-59709596D01*
X178075708Y-59715881D01*
X178202535Y-59823298D01*
X178382584Y-59975791D01*
X178390124Y-59982733D01*
X178674458Y-60267066D01*
X178681400Y-60274606D01*
X178941300Y-60581471D01*
X178947594Y-60589558D01*
X179181257Y-60916820D01*
X179186862Y-60925398D01*
X179280774Y-61083004D01*
X179392710Y-61270856D01*
X179397579Y-61279854D01*
X179532980Y-61556820D01*
X179574198Y-61641132D01*
X179578314Y-61650517D01*
X179724488Y-62025128D01*
X179727816Y-62034821D01*
X179842558Y-62420231D01*
X179845074Y-62430166D01*
X179927597Y-62823733D01*
X179929284Y-62833842D01*
X179979024Y-63232884D01*
X179979870Y-63243098D01*
X179996582Y-63647147D01*
X179996688Y-63652271D01*
X179996688Y-80776000D01*
X179980075Y-80838000D01*
X179934688Y-80883387D01*
X179872688Y-80900000D01*
X174300000Y-80900000D01*
X174300000Y-94400000D01*
X179872688Y-94400000D01*
X179934688Y-94416613D01*
X179980075Y-94462000D01*
X179996688Y-94524000D01*
X179996688Y-153647439D01*
X179996582Y-153652563D01*
X179979858Y-154056900D01*
X179979012Y-154067114D01*
X179929272Y-154466155D01*
X179927585Y-154476264D01*
X179845063Y-154869830D01*
X179842547Y-154879765D01*
X179727805Y-155265174D01*
X179724477Y-155274867D01*
X179578301Y-155649482D01*
X179574184Y-155658867D01*
X179397579Y-156020118D01*
X179392702Y-156029132D01*
X179186853Y-156374592D01*
X179181247Y-156383172D01*
X178947580Y-156710441D01*
X178941285Y-156718528D01*
X178681396Y-157025378D01*
X178674455Y-157032918D01*
X178390116Y-157317257D01*
X178382576Y-157324199D01*
X178075706Y-157584103D01*
X178067618Y-157590397D01*
X177740367Y-157824049D01*
X177731788Y-157829655D01*
X177386332Y-158035503D01*
X177377318Y-158040381D01*
X177016047Y-158216994D01*
X177006662Y-158221110D01*
X176632053Y-158367282D01*
X176622359Y-158370610D01*
X176236956Y-158485348D01*
X176227022Y-158487864D01*
X175833451Y-158570387D01*
X175823342Y-158572074D01*
X175480902Y-158614758D01*
X175424302Y-158621813D01*
X175414090Y-158622659D01*
X175009461Y-158639394D01*
X175004337Y-158639500D01*
X139674000Y-158639500D01*
X139612000Y-158622887D01*
X139566613Y-158577500D01*
X139550000Y-158515500D01*
X139550000Y-156497570D01*
X152660000Y-156497570D01*
X152660317Y-156503835D01*
X152674783Y-156646084D01*
X152677301Y-156658335D01*
X152734419Y-156840385D01*
X152739355Y-156851889D01*
X152831954Y-157018720D01*
X152839097Y-157028982D01*
X152963379Y-157173754D01*
X152972458Y-157182385D01*
X153123329Y-157299167D01*
X153133957Y-157305792D01*
X153305256Y-157389817D01*
X153316997Y-157394165D01*
X153396253Y-157414686D01*
X153407464Y-157414971D01*
X153408627Y-157409962D01*
X153910000Y-157409962D01*
X153912337Y-157420645D01*
X153917502Y-157420973D01*
X153917840Y-157420885D01*
X154096760Y-157354621D01*
X154108006Y-157349105D01*
X154269926Y-157248180D01*
X154279820Y-157240521D01*
X154418114Y-157109063D01*
X154426262Y-157099572D01*
X154535265Y-156942963D01*
X154541334Y-156932029D01*
X154616581Y-156756681D01*
X154620324Y-156744752D01*
X154658734Y-156557847D01*
X154660000Y-156545402D01*
X154660000Y-156497570D01*
X161300000Y-156497570D01*
X161300317Y-156503835D01*
X161314783Y-156646084D01*
X161317301Y-156658335D01*
X161374419Y-156840385D01*
X161379355Y-156851889D01*
X161471954Y-157018720D01*
X161479097Y-157028982D01*
X161603379Y-157173754D01*
X161612458Y-157182385D01*
X161763329Y-157299167D01*
X161773957Y-157305792D01*
X161945256Y-157389817D01*
X161956997Y-157394165D01*
X162036253Y-157414686D01*
X162047464Y-157414971D01*
X162048627Y-157409962D01*
X162550000Y-157409962D01*
X162552337Y-157420645D01*
X162557502Y-157420973D01*
X162557840Y-157420885D01*
X162736760Y-157354621D01*
X162748006Y-157349105D01*
X162909926Y-157248180D01*
X162919820Y-157240521D01*
X163058114Y-157109063D01*
X163066262Y-157099572D01*
X163175265Y-156942963D01*
X163181334Y-156932029D01*
X163256581Y-156756681D01*
X163260324Y-156744752D01*
X163298734Y-156557847D01*
X163300000Y-156545402D01*
X163300000Y-156316326D01*
X163296549Y-156303450D01*
X163283674Y-156300000D01*
X162566326Y-156300000D01*
X162553450Y-156303450D01*
X162550000Y-156316326D01*
X162550000Y-157409962D01*
X162048627Y-157409962D01*
X162050000Y-157404046D01*
X162050000Y-156316326D01*
X162046549Y-156303450D01*
X162033674Y-156300000D01*
X161316326Y-156300000D01*
X161303450Y-156303450D01*
X161300000Y-156316326D01*
X161300000Y-156497570D01*
X154660000Y-156497570D01*
X154660000Y-156316326D01*
X154656549Y-156303450D01*
X154643674Y-156300000D01*
X153926326Y-156300000D01*
X153913450Y-156303450D01*
X153910000Y-156316326D01*
X153910000Y-157409962D01*
X153408627Y-157409962D01*
X153410000Y-157404046D01*
X153410000Y-156316326D01*
X153406549Y-156303450D01*
X153393674Y-156300000D01*
X152676326Y-156300000D01*
X152663450Y-156303450D01*
X152660000Y-156316326D01*
X152660000Y-156497570D01*
X139550000Y-156497570D01*
X139550000Y-155783674D01*
X152660000Y-155783674D01*
X152663450Y-155796549D01*
X152676326Y-155800000D01*
X153393674Y-155800000D01*
X153406549Y-155796549D01*
X153410000Y-155783674D01*
X153910000Y-155783674D01*
X153913450Y-155796549D01*
X153926326Y-155800000D01*
X154643674Y-155800000D01*
X154656549Y-155796549D01*
X154660000Y-155783674D01*
X161300000Y-155783674D01*
X161303450Y-155796549D01*
X161316326Y-155800000D01*
X162033674Y-155800000D01*
X162046549Y-155796549D01*
X162050000Y-155783674D01*
X162550000Y-155783674D01*
X162553450Y-155796549D01*
X162566326Y-155800000D01*
X163283674Y-155800000D01*
X163296549Y-155796549D01*
X163300000Y-155783674D01*
X163300000Y-155602430D01*
X163299682Y-155596164D01*
X163285216Y-155453915D01*
X163282698Y-155441664D01*
X163225580Y-155259614D01*
X163220644Y-155248110D01*
X163203096Y-155216495D01*
X169561829Y-155216495D01*
X169569286Y-155227884D01*
X169771721Y-155404745D01*
X169776063Y-155408208D01*
X170120356Y-155658351D01*
X170124993Y-155661412D01*
X170490344Y-155879700D01*
X170495215Y-155882321D01*
X170878646Y-156066971D01*
X170883773Y-156069163D01*
X171282193Y-156218692D01*
X171287491Y-156220413D01*
X171697714Y-156333628D01*
X171703149Y-156334869D01*
X172121871Y-156410855D01*
X172127381Y-156411602D01*
X172551249Y-156449751D01*
X172556790Y-156450000D01*
X172982372Y-156450000D01*
X172987912Y-156449751D01*
X173411780Y-156411602D01*
X173417290Y-156410855D01*
X173836012Y-156334869D01*
X173841447Y-156333628D01*
X174251670Y-156220413D01*
X174256968Y-156218692D01*
X174655388Y-156069163D01*
X174660515Y-156066971D01*
X175043946Y-155882321D01*
X175048817Y-155879700D01*
X175414168Y-155661412D01*
X175418805Y-155658351D01*
X175763086Y-155408216D01*
X175767445Y-155404741D01*
X175969876Y-155227882D01*
X175977331Y-155216495D01*
X175970657Y-155204630D01*
X172781123Y-152015095D01*
X172769581Y-152008431D01*
X172758038Y-152015095D01*
X169568503Y-155204630D01*
X169561829Y-155216495D01*
X163203096Y-155216495D01*
X163128045Y-155081279D01*
X163120902Y-155071017D01*
X162996620Y-154926245D01*
X162987541Y-154917614D01*
X162836670Y-154800832D01*
X162826042Y-154794207D01*
X162654743Y-154710182D01*
X162643002Y-154705834D01*
X162563746Y-154685313D01*
X162552535Y-154685028D01*
X162550000Y-154695954D01*
X162550000Y-155783674D01*
X162050000Y-155783674D01*
X162050000Y-154690038D01*
X162047662Y-154679354D01*
X162042497Y-154679026D01*
X162042159Y-154679114D01*
X161863239Y-154745378D01*
X161851993Y-154750894D01*
X161690073Y-154851819D01*
X161680179Y-154859478D01*
X161541885Y-154990936D01*
X161533737Y-155000427D01*
X161424734Y-155157036D01*
X161418665Y-155167970D01*
X161343418Y-155343318D01*
X161339675Y-155355247D01*
X161301265Y-155542152D01*
X161300000Y-155554598D01*
X161300000Y-155783674D01*
X154660000Y-155783674D01*
X154660000Y-155602430D01*
X154659682Y-155596164D01*
X154645216Y-155453915D01*
X154642698Y-155441664D01*
X154585580Y-155259614D01*
X154580644Y-155248110D01*
X154488045Y-155081279D01*
X154480902Y-155071017D01*
X154356620Y-154926245D01*
X154347541Y-154917614D01*
X154196670Y-154800832D01*
X154186042Y-154794207D01*
X154014743Y-154710182D01*
X154003002Y-154705834D01*
X153923746Y-154685313D01*
X153912535Y-154685028D01*
X153910000Y-154695954D01*
X153910000Y-155783674D01*
X153410000Y-155783674D01*
X153410000Y-154690038D01*
X153407662Y-154679354D01*
X153402497Y-154679026D01*
X153402159Y-154679114D01*
X153223239Y-154745378D01*
X153211993Y-154750894D01*
X153050073Y-154851819D01*
X153040179Y-154859478D01*
X152901885Y-154990936D01*
X152893737Y-155000427D01*
X152784734Y-155157036D01*
X152778665Y-155167970D01*
X152703418Y-155343318D01*
X152699675Y-155355247D01*
X152661265Y-155542152D01*
X152660000Y-155554598D01*
X152660000Y-155783674D01*
X139550000Y-155783674D01*
X139550000Y-152467570D01*
X152660000Y-152467570D01*
X152660317Y-152473835D01*
X152674783Y-152616084D01*
X152677301Y-152628335D01*
X152734419Y-152810385D01*
X152739355Y-152821889D01*
X152831954Y-152988720D01*
X152839097Y-152998982D01*
X152963379Y-153143754D01*
X152972458Y-153152385D01*
X153123329Y-153269167D01*
X153133957Y-153275792D01*
X153305256Y-153359817D01*
X153316997Y-153364165D01*
X153396253Y-153384686D01*
X153407464Y-153384971D01*
X153408627Y-153379962D01*
X153910000Y-153379962D01*
X153912337Y-153390645D01*
X153917502Y-153390973D01*
X153917840Y-153390885D01*
X154096760Y-153324621D01*
X154108006Y-153319105D01*
X154269926Y-153218180D01*
X154279820Y-153210521D01*
X154418114Y-153079063D01*
X154426262Y-153069572D01*
X154535265Y-152912963D01*
X154541333Y-152902031D01*
X154551921Y-152877358D01*
X154585002Y-152832256D01*
X154634538Y-152806281D01*
X154690449Y-152804716D01*
X154741360Y-152827881D01*
X154793315Y-152867748D01*
X154793319Y-152867750D01*
X154799767Y-152872698D01*
X154939764Y-152930687D01*
X155052280Y-152945500D01*
X155123667Y-152945500D01*
X155127720Y-152945500D01*
X155240236Y-152930687D01*
X155380233Y-152872698D01*
X155500451Y-152780451D01*
X155592698Y-152660233D01*
X155650687Y-152520236D01*
X155670466Y-152370000D01*
X160289534Y-152370000D01*
X160290595Y-152378059D01*
X160308251Y-152512176D01*
X160308252Y-152512182D01*
X160309313Y-152520236D01*
X160312422Y-152527742D01*
X160312423Y-152527745D01*
X160349015Y-152616084D01*
X160367302Y-152660233D01*
X160372245Y-152666674D01*
X160372248Y-152666680D01*
X160454605Y-152774008D01*
X160459549Y-152780451D01*
X160465991Y-152785394D01*
X160573319Y-152867751D01*
X160573322Y-152867753D01*
X160579767Y-152872698D01*
X160719764Y-152930687D01*
X160832280Y-152945500D01*
X160903667Y-152945500D01*
X160907720Y-152945500D01*
X161020236Y-152930687D01*
X161160233Y-152872698D01*
X161212938Y-152832256D01*
X161219577Y-152827162D01*
X161267416Y-152804659D01*
X161320281Y-152804128D01*
X161368562Y-152825667D01*
X161403483Y-152865359D01*
X161471954Y-152988720D01*
X161479097Y-152998982D01*
X161603379Y-153143754D01*
X161612458Y-153152385D01*
X161763329Y-153269167D01*
X161773957Y-153275792D01*
X161945256Y-153359817D01*
X161956997Y-153364165D01*
X162036253Y-153384686D01*
X162047464Y-153384971D01*
X162048627Y-153379962D01*
X162550000Y-153379962D01*
X162552337Y-153390645D01*
X162557502Y-153390973D01*
X162557840Y-153390885D01*
X162736760Y-153324621D01*
X162748006Y-153319105D01*
X162909926Y-153218180D01*
X162919820Y-153210521D01*
X163058114Y-153079063D01*
X163066262Y-153069572D01*
X163175265Y-152912963D01*
X163181334Y-152902029D01*
X163256581Y-152726681D01*
X163260324Y-152714752D01*
X163298734Y-152527847D01*
X163300000Y-152515402D01*
X163300000Y-152136326D01*
X163296549Y-152123450D01*
X163283674Y-152120000D01*
X162566326Y-152120000D01*
X162553450Y-152123450D01*
X162550000Y-152136326D01*
X162550000Y-153379962D01*
X162048627Y-153379962D01*
X162050000Y-153374046D01*
X162050000Y-151652783D01*
X167964868Y-151652783D01*
X167983961Y-152077924D01*
X167984458Y-152083452D01*
X168041585Y-152505177D01*
X168042579Y-152510654D01*
X168137278Y-152925557D01*
X168138754Y-152930905D01*
X168270259Y-153335637D01*
X168272225Y-153340876D01*
X168439474Y-153732172D01*
X168441891Y-153737193D01*
X168643556Y-154111949D01*
X168646408Y-154116722D01*
X168880848Y-154471885D01*
X168884121Y-154476391D01*
X169149460Y-154809114D01*
X169153114Y-154813296D01*
X169190359Y-154852252D01*
X169201861Y-154859182D01*
X169213513Y-154852512D01*
X172404484Y-151661542D01*
X172411148Y-151649999D01*
X173128012Y-151649999D01*
X173134676Y-151661542D01*
X176325646Y-154852511D01*
X176337300Y-154859182D01*
X176348800Y-154852253D01*
X176386048Y-154813295D01*
X176389700Y-154809115D01*
X176655040Y-154476391D01*
X176658313Y-154471885D01*
X176892753Y-154116722D01*
X176895605Y-154111949D01*
X177097270Y-153737193D01*
X177099687Y-153732172D01*
X177266936Y-153340876D01*
X177268902Y-153335637D01*
X177400407Y-152930905D01*
X177401883Y-152925557D01*
X177496582Y-152510654D01*
X177497576Y-152505177D01*
X177554703Y-152083452D01*
X177555200Y-152077924D01*
X177574294Y-151652783D01*
X177574294Y-151647217D01*
X177555200Y-151222075D01*
X177554703Y-151216547D01*
X177497576Y-150794822D01*
X177496582Y-150789345D01*
X177401883Y-150374442D01*
X177400407Y-150369094D01*
X177268902Y-149964362D01*
X177266936Y-149959123D01*
X177099687Y-149567827D01*
X177097270Y-149562806D01*
X176895605Y-149188050D01*
X176892753Y-149183277D01*
X176658313Y-148828114D01*
X176655040Y-148823608D01*
X176389701Y-148490885D01*
X176386047Y-148486703D01*
X176348801Y-148447746D01*
X176337299Y-148440816D01*
X176325647Y-148447486D01*
X173134676Y-151638457D01*
X173128012Y-151649999D01*
X172411148Y-151649999D01*
X172404484Y-151638457D01*
X169213515Y-148447488D01*
X169201860Y-148440817D01*
X169190359Y-148447747D01*
X169153125Y-148486692D01*
X169149455Y-148490891D01*
X168884121Y-148823608D01*
X168880848Y-148828114D01*
X168646408Y-149183277D01*
X168643556Y-149188050D01*
X168441891Y-149562806D01*
X168439474Y-149567827D01*
X168272225Y-149959123D01*
X168270259Y-149964362D01*
X168138754Y-150369094D01*
X168137278Y-150374442D01*
X168042579Y-150789345D01*
X168041585Y-150794822D01*
X167984458Y-151216547D01*
X167983961Y-151222075D01*
X167964868Y-151647217D01*
X167964868Y-151652783D01*
X162050000Y-151652783D01*
X162050000Y-151603674D01*
X162550000Y-151603674D01*
X162553450Y-151616549D01*
X162566326Y-151620000D01*
X163283674Y-151620000D01*
X163296549Y-151616549D01*
X163300000Y-151603674D01*
X163300000Y-151272430D01*
X163299682Y-151266164D01*
X163285216Y-151123915D01*
X163282698Y-151111664D01*
X163225580Y-150929614D01*
X163220644Y-150918110D01*
X163128045Y-150751279D01*
X163120902Y-150741017D01*
X162996620Y-150596245D01*
X162987541Y-150587614D01*
X162836670Y-150470832D01*
X162826042Y-150464207D01*
X162654743Y-150380182D01*
X162643002Y-150375834D01*
X162563746Y-150355313D01*
X162552535Y-150355028D01*
X162550000Y-150365954D01*
X162550000Y-151603674D01*
X162050000Y-151603674D01*
X162050000Y-150360038D01*
X162047662Y-150349354D01*
X162042497Y-150349026D01*
X162042159Y-150349114D01*
X161863239Y-150415378D01*
X161851993Y-150420894D01*
X161690073Y-150521819D01*
X161680179Y-150529478D01*
X161541885Y-150660936D01*
X161533737Y-150670427D01*
X161424734Y-150827036D01*
X161418665Y-150837970D01*
X161343418Y-151013318D01*
X161339675Y-151025247D01*
X161301265Y-151212152D01*
X161300000Y-151224598D01*
X161300000Y-151739616D01*
X161285358Y-151798069D01*
X161244891Y-151842718D01*
X161188154Y-151863019D01*
X161128547Y-151854177D01*
X161027745Y-151812423D01*
X161027742Y-151812422D01*
X161020236Y-151809313D01*
X161012182Y-151808252D01*
X161012176Y-151808251D01*
X160911739Y-151795029D01*
X160911737Y-151795028D01*
X160907720Y-151794500D01*
X160832280Y-151794500D01*
X160828263Y-151795028D01*
X160828260Y-151795029D01*
X160727823Y-151808251D01*
X160727815Y-151808252D01*
X160719764Y-151809313D01*
X160712259Y-151812421D01*
X160712254Y-151812423D01*
X160587276Y-151864191D01*
X160587272Y-151864193D01*
X160579767Y-151867302D01*
X160573328Y-151872242D01*
X160573319Y-151872248D01*
X160465991Y-151954605D01*
X160465987Y-151954608D01*
X160459549Y-151959549D01*
X160454608Y-151965987D01*
X160454605Y-151965991D01*
X160372248Y-152073319D01*
X160372242Y-152073328D01*
X160367302Y-152079767D01*
X160364193Y-152087272D01*
X160364191Y-152087276D01*
X160312423Y-152212254D01*
X160312421Y-152212259D01*
X160309313Y-152219764D01*
X160308252Y-152227815D01*
X160308251Y-152227823D01*
X160290760Y-152360683D01*
X160289534Y-152370000D01*
X155670466Y-152370000D01*
X155650687Y-152219764D01*
X155592698Y-152079767D01*
X155587753Y-152073322D01*
X155587751Y-152073319D01*
X155505394Y-151965991D01*
X155500451Y-151959549D01*
X155494008Y-151954605D01*
X155386680Y-151872248D01*
X155386674Y-151872245D01*
X155380233Y-151867302D01*
X155372724Y-151864191D01*
X155372723Y-151864191D01*
X155247745Y-151812423D01*
X155247742Y-151812422D01*
X155240236Y-151809313D01*
X155232182Y-151808252D01*
X155232176Y-151808251D01*
X155131739Y-151795029D01*
X155131737Y-151795028D01*
X155127720Y-151794500D01*
X155052280Y-151794500D01*
X155048263Y-151795028D01*
X155048260Y-151795029D01*
X154947823Y-151808251D01*
X154947815Y-151808252D01*
X154939764Y-151809313D01*
X154932259Y-151812421D01*
X154932254Y-151812423D01*
X154831453Y-151854177D01*
X154771846Y-151863019D01*
X154715109Y-151842718D01*
X154674642Y-151798069D01*
X154660000Y-151739616D01*
X154660000Y-151272430D01*
X154659682Y-151266164D01*
X154645216Y-151123915D01*
X154642698Y-151111664D01*
X154585580Y-150929614D01*
X154580644Y-150918110D01*
X154488045Y-150751279D01*
X154480902Y-150741017D01*
X154356620Y-150596245D01*
X154347541Y-150587614D01*
X154196670Y-150470832D01*
X154186042Y-150464207D01*
X154014743Y-150380182D01*
X154003002Y-150375834D01*
X153923746Y-150355313D01*
X153912535Y-150355028D01*
X153910000Y-150365954D01*
X153910000Y-153379962D01*
X153408627Y-153379962D01*
X153410000Y-153374046D01*
X153410000Y-152136326D01*
X153406549Y-152123450D01*
X153393674Y-152120000D01*
X152676326Y-152120000D01*
X152663450Y-152123450D01*
X152660000Y-152136326D01*
X152660000Y-152467570D01*
X139550000Y-152467570D01*
X139550000Y-151603674D01*
X152660000Y-151603674D01*
X152663450Y-151616549D01*
X152676326Y-151620000D01*
X153393674Y-151620000D01*
X153406549Y-151616549D01*
X153410000Y-151603674D01*
X153410000Y-150360038D01*
X153407662Y-150349354D01*
X153402497Y-150349026D01*
X153402159Y-150349114D01*
X153223239Y-150415378D01*
X153211993Y-150420894D01*
X153050073Y-150521819D01*
X153040179Y-150529478D01*
X152901885Y-150660936D01*
X152893737Y-150670427D01*
X152784734Y-150827036D01*
X152778665Y-150837970D01*
X152703418Y-151013318D01*
X152699675Y-151025247D01*
X152661265Y-151212152D01*
X152660000Y-151224598D01*
X152660000Y-151603674D01*
X139550000Y-151603674D01*
X139550000Y-149150000D01*
X154574722Y-149150000D01*
X154575626Y-149157445D01*
X154592858Y-149299370D01*
X154592859Y-149299375D01*
X154593763Y-149306818D01*
X154649780Y-149454523D01*
X154654043Y-149460699D01*
X154727987Y-149567827D01*
X154739517Y-149584530D01*
X154857760Y-149689283D01*
X154997635Y-149762696D01*
X155151015Y-149800500D01*
X155301485Y-149800500D01*
X155308985Y-149800500D01*
X155462365Y-149762696D01*
X155463471Y-149762115D01*
X155470714Y-149760153D01*
X155470616Y-149759777D01*
X156253661Y-149554551D01*
X156285098Y-149550500D01*
X158424902Y-149550500D01*
X158456339Y-149554551D01*
X159239383Y-149759777D01*
X159239284Y-149760152D01*
X159246525Y-149762113D01*
X159247635Y-149762696D01*
X159401015Y-149800500D01*
X159551485Y-149800500D01*
X159558985Y-149800500D01*
X159712365Y-149762696D01*
X159852240Y-149689283D01*
X159970483Y-149584530D01*
X160060220Y-149454523D01*
X160116237Y-149306818D01*
X160135278Y-149150000D01*
X160116237Y-148993182D01*
X160060220Y-148845477D01*
X159970483Y-148715470D01*
X159852240Y-148610717D01*
X159845595Y-148607229D01*
X159845593Y-148607228D01*
X159719006Y-148540789D01*
X159719002Y-148540787D01*
X159712365Y-148537304D01*
X159705087Y-148535510D01*
X159705084Y-148535509D01*
X159566267Y-148501294D01*
X159566260Y-148501293D01*
X159558985Y-148499500D01*
X159401015Y-148499500D01*
X159393740Y-148501292D01*
X159393732Y-148501294D01*
X159254905Y-148535511D01*
X159254896Y-148535514D01*
X159247635Y-148537304D01*
X159246517Y-148537890D01*
X159239285Y-148539851D01*
X159239383Y-148540222D01*
X158456339Y-148745449D01*
X158424902Y-148749500D01*
X156285098Y-148749500D01*
X156253661Y-148745449D01*
X155470616Y-148540222D01*
X155470713Y-148539849D01*
X155463476Y-148537887D01*
X155462365Y-148537304D01*
X155455093Y-148535511D01*
X155455089Y-148535510D01*
X155316267Y-148501294D01*
X155316260Y-148501293D01*
X155308985Y-148499500D01*
X155151015Y-148499500D01*
X155143740Y-148501292D01*
X155143732Y-148501294D01*
X155004915Y-148535509D01*
X155004909Y-148535510D01*
X154997635Y-148537304D01*
X154991000Y-148540786D01*
X154990993Y-148540789D01*
X154864406Y-148607228D01*
X154864400Y-148607231D01*
X154857760Y-148610717D01*
X154852148Y-148615687D01*
X154852143Y-148615692D01*
X154745127Y-148710499D01*
X154745122Y-148710503D01*
X154739517Y-148715470D01*
X154735262Y-148721634D01*
X154735257Y-148721640D01*
X154654043Y-148839300D01*
X154654040Y-148839303D01*
X154649780Y-148845477D01*
X154647120Y-148852488D01*
X154647118Y-148852494D01*
X154596423Y-148986167D01*
X154593763Y-148993182D01*
X154592859Y-149000622D01*
X154592858Y-149000629D01*
X154576070Y-149138896D01*
X154574722Y-149150000D01*
X139550000Y-149150000D01*
X139550000Y-148083503D01*
X169561829Y-148083503D01*
X169568503Y-148095368D01*
X172758038Y-151284903D01*
X172769581Y-151291567D01*
X172781123Y-151284903D01*
X175970657Y-148095368D01*
X175977331Y-148083503D01*
X175969874Y-148072114D01*
X175767440Y-147895254D01*
X175763098Y-147891791D01*
X175418805Y-147641648D01*
X175414168Y-147638587D01*
X175048817Y-147420299D01*
X175043946Y-147417678D01*
X174660515Y-147233028D01*
X174655388Y-147230836D01*
X174256968Y-147081307D01*
X174251670Y-147079586D01*
X173841447Y-146966371D01*
X173836012Y-146965130D01*
X173417290Y-146889144D01*
X173411780Y-146888397D01*
X172987912Y-146850248D01*
X172982372Y-146850000D01*
X172556790Y-146850000D01*
X172551249Y-146850248D01*
X172127381Y-146888397D01*
X172121871Y-146889144D01*
X171703149Y-146965130D01*
X171697714Y-146966371D01*
X171287491Y-147079586D01*
X171282193Y-147081307D01*
X170883773Y-147230836D01*
X170878646Y-147233028D01*
X170495215Y-147417678D01*
X170490344Y-147420299D01*
X170124993Y-147638587D01*
X170120356Y-147641648D01*
X169776063Y-147891791D01*
X169771721Y-147895254D01*
X169569286Y-148072115D01*
X169561829Y-148083503D01*
X139550000Y-148083503D01*
X139550000Y-142416326D01*
X139550000Y-142400000D01*
X139533674Y-142400000D01*
X126424000Y-142400000D01*
X126362000Y-142383387D01*
X126316613Y-142338000D01*
X126300000Y-142276000D01*
X126300000Y-140726126D01*
X143792628Y-140726126D01*
X143793317Y-140730698D01*
X143793318Y-140730709D01*
X143831040Y-140980972D01*
X143831041Y-140980979D01*
X143831732Y-140985559D01*
X143833097Y-140989987D01*
X143833099Y-140989992D01*
X143907697Y-141231835D01*
X143907701Y-141231845D01*
X143909065Y-141236267D01*
X144022900Y-141472648D01*
X144170695Y-141689423D01*
X144349147Y-141881749D01*
X144554271Y-142045330D01*
X144781485Y-142176512D01*
X145025712Y-142272364D01*
X145281498Y-142330746D01*
X145477634Y-142345444D01*
X145606305Y-142345444D01*
X145608622Y-142345444D01*
X145804758Y-142330746D01*
X146060544Y-142272364D01*
X146304771Y-142176512D01*
X146531985Y-142045330D01*
X146737109Y-141881749D01*
X146915561Y-141689423D01*
X147063356Y-141472648D01*
X147177191Y-141236267D01*
X147254524Y-140985559D01*
X147293628Y-140726126D01*
X174272628Y-140726126D01*
X174273317Y-140730698D01*
X174273318Y-140730709D01*
X174311040Y-140980972D01*
X174311041Y-140980979D01*
X174311732Y-140985559D01*
X174313097Y-140989987D01*
X174313099Y-140989992D01*
X174387697Y-141231835D01*
X174387701Y-141231845D01*
X174389065Y-141236267D01*
X174502900Y-141472648D01*
X174650695Y-141689423D01*
X174829147Y-141881749D01*
X175034271Y-142045330D01*
X175261485Y-142176512D01*
X175505712Y-142272364D01*
X175761498Y-142330746D01*
X175957634Y-142345444D01*
X176086305Y-142345444D01*
X176088622Y-142345444D01*
X176284758Y-142330746D01*
X176540544Y-142272364D01*
X176784771Y-142176512D01*
X177011985Y-142045330D01*
X177217109Y-141881749D01*
X177395561Y-141689423D01*
X177543356Y-141472648D01*
X177657191Y-141236267D01*
X177734524Y-140985559D01*
X177773628Y-140726126D01*
X177773628Y-140463762D01*
X177734524Y-140204329D01*
X177657191Y-139953621D01*
X177543356Y-139717240D01*
X177395561Y-139500465D01*
X177217109Y-139308139D01*
X177011985Y-139144558D01*
X176917344Y-139089917D01*
X176788792Y-139015697D01*
X176788786Y-139015694D01*
X176784771Y-139013376D01*
X176780452Y-139011681D01*
X176780446Y-139011678D01*
X176544866Y-138919220D01*
X176544862Y-138919219D01*
X176540544Y-138917524D01*
X176536021Y-138916491D01*
X176536019Y-138916491D01*
X176289277Y-138860173D01*
X176289271Y-138860172D01*
X176284758Y-138859142D01*
X176280136Y-138858795D01*
X176280132Y-138858795D01*
X176090936Y-138844617D01*
X176090925Y-138844616D01*
X176088622Y-138844444D01*
X175957634Y-138844444D01*
X175955331Y-138844616D01*
X175955319Y-138844617D01*
X175766123Y-138858795D01*
X175766117Y-138858795D01*
X175761498Y-138859142D01*
X175756986Y-138860171D01*
X175756978Y-138860173D01*
X175510236Y-138916491D01*
X175510230Y-138916492D01*
X175505712Y-138917524D01*
X175501396Y-138919217D01*
X175501389Y-138919220D01*
X175265809Y-139011678D01*
X175265798Y-139011683D01*
X175261485Y-139013376D01*
X175257474Y-139015691D01*
X175257463Y-139015697D01*
X175038289Y-139142238D01*
X175034271Y-139144558D01*
X175030647Y-139147447D01*
X175030644Y-139147450D01*
X174832774Y-139305246D01*
X174832769Y-139305250D01*
X174829147Y-139308139D01*
X174825993Y-139311537D01*
X174825991Y-139311540D01*
X174653847Y-139497067D01*
X174653841Y-139497073D01*
X174650695Y-139500465D01*
X174502900Y-139717240D01*
X174500887Y-139721418D01*
X174500884Y-139721425D01*
X174391077Y-139949441D01*
X174391072Y-139949452D01*
X174389065Y-139953621D01*
X174387702Y-139958037D01*
X174387697Y-139958052D01*
X174313099Y-140199895D01*
X174313096Y-140199903D01*
X174311732Y-140204329D01*
X174311042Y-140208905D01*
X174311040Y-140208915D01*
X174273318Y-140459178D01*
X174273317Y-140459190D01*
X174272628Y-140463762D01*
X174272628Y-140726126D01*
X147293628Y-140726126D01*
X147293628Y-140463762D01*
X147254524Y-140204329D01*
X147177191Y-139953621D01*
X147063356Y-139717240D01*
X146915561Y-139500465D01*
X146737109Y-139308139D01*
X146531985Y-139144558D01*
X146437344Y-139089917D01*
X146308792Y-139015697D01*
X146308786Y-139015694D01*
X146304771Y-139013376D01*
X146300452Y-139011681D01*
X146300446Y-139011678D01*
X146064866Y-138919220D01*
X146064862Y-138919219D01*
X146060544Y-138917524D01*
X146056021Y-138916491D01*
X146056019Y-138916491D01*
X145809277Y-138860173D01*
X145809271Y-138860172D01*
X145804758Y-138859142D01*
X145800136Y-138858795D01*
X145800132Y-138858795D01*
X145610936Y-138844617D01*
X145610925Y-138844616D01*
X145608622Y-138844444D01*
X145477634Y-138844444D01*
X145475331Y-138844616D01*
X145475319Y-138844617D01*
X145286123Y-138858795D01*
X145286117Y-138858795D01*
X145281498Y-138859142D01*
X145276986Y-138860171D01*
X145276978Y-138860173D01*
X145030236Y-138916491D01*
X145030230Y-138916492D01*
X145025712Y-138917524D01*
X145021396Y-138919217D01*
X145021389Y-138919220D01*
X144785809Y-139011678D01*
X144785798Y-139011683D01*
X144781485Y-139013376D01*
X144777474Y-139015691D01*
X144777463Y-139015697D01*
X144558289Y-139142238D01*
X144554271Y-139144558D01*
X144550647Y-139147447D01*
X144550644Y-139147450D01*
X144352774Y-139305246D01*
X144352769Y-139305250D01*
X144349147Y-139308139D01*
X144345993Y-139311537D01*
X144345991Y-139311540D01*
X144173847Y-139497067D01*
X144173841Y-139497073D01*
X144170695Y-139500465D01*
X144022900Y-139717240D01*
X144020887Y-139721418D01*
X144020884Y-139721425D01*
X143911077Y-139949441D01*
X143911072Y-139949452D01*
X143909065Y-139953621D01*
X143907702Y-139958037D01*
X143907697Y-139958052D01*
X143833099Y-140199895D01*
X143833096Y-140199903D01*
X143831732Y-140204329D01*
X143831042Y-140208905D01*
X143831040Y-140208915D01*
X143793318Y-140459178D01*
X143793317Y-140459190D01*
X143792628Y-140463762D01*
X143792628Y-140726126D01*
X126300000Y-140726126D01*
X126300000Y-125796813D01*
X130285000Y-125796813D01*
X130285298Y-125802897D01*
X130299088Y-125942910D01*
X130301454Y-125954805D01*
X130355957Y-126134475D01*
X130360596Y-126145675D01*
X130449100Y-126311255D01*
X130455842Y-126321344D01*
X130574951Y-126466479D01*
X130583520Y-126475048D01*
X130728655Y-126594157D01*
X130738744Y-126600899D01*
X130904321Y-126689401D01*
X130915529Y-126694044D01*
X131036099Y-126730619D01*
X131047387Y-126731312D01*
X131050000Y-126720312D01*
X131550000Y-126720312D01*
X131552612Y-126731312D01*
X131563900Y-126730619D01*
X131684470Y-126694044D01*
X131695678Y-126689401D01*
X131861255Y-126600899D01*
X131871344Y-126594157D01*
X131971335Y-126512097D01*
X132021842Y-126487189D01*
X132078158Y-126487189D01*
X132128665Y-126512097D01*
X132228655Y-126594157D01*
X132238744Y-126600899D01*
X132404321Y-126689401D01*
X132415529Y-126694044D01*
X132536099Y-126730619D01*
X132547387Y-126731312D01*
X132550000Y-126720312D01*
X133050000Y-126720312D01*
X133052612Y-126731312D01*
X133063900Y-126730619D01*
X133184470Y-126694044D01*
X133195678Y-126689401D01*
X133361255Y-126600899D01*
X133371344Y-126594157D01*
X133516479Y-126475048D01*
X133525048Y-126466479D01*
X133644157Y-126321344D01*
X133650896Y-126311258D01*
X133666538Y-126281995D01*
X133702973Y-126240157D01*
X133754006Y-126218395D01*
X133809421Y-126221065D01*
X133858124Y-126247631D01*
X133919176Y-126301719D01*
X134062277Y-126376824D01*
X134219194Y-126415500D01*
X134373306Y-126415500D01*
X134380806Y-126415500D01*
X134537723Y-126376824D01*
X134680824Y-126301719D01*
X134801793Y-126194549D01*
X134893599Y-126061545D01*
X134934058Y-125954862D01*
X134967773Y-125906019D01*
X135020325Y-125878437D01*
X135079675Y-125878437D01*
X135132227Y-125906019D01*
X135165941Y-125954862D01*
X135206401Y-126061545D01*
X135210664Y-126067721D01*
X135266766Y-126149000D01*
X135298207Y-126194549D01*
X135419176Y-126301719D01*
X135562277Y-126376824D01*
X135719194Y-126415500D01*
X135873306Y-126415500D01*
X135880806Y-126415500D01*
X136037723Y-126376824D01*
X136180824Y-126301719D01*
X136301793Y-126194549D01*
X136393599Y-126061545D01*
X136399775Y-126045258D01*
X136437368Y-125993115D01*
X136496020Y-125966801D01*
X136559967Y-125973390D01*
X136612020Y-126011112D01*
X136638191Y-126069828D01*
X136647826Y-126130663D01*
X136647828Y-126130669D01*
X136649354Y-126140304D01*
X136653780Y-126148991D01*
X136653782Y-126148996D01*
X136690504Y-126221065D01*
X136706950Y-126253342D01*
X136796658Y-126343050D01*
X136909696Y-126400646D01*
X137003481Y-126415500D01*
X137596518Y-126415499D01*
X137690304Y-126400646D01*
X137803342Y-126343050D01*
X137893050Y-126253342D01*
X137950646Y-126140304D01*
X137965500Y-126046519D01*
X137965499Y-124753482D01*
X137950646Y-124659696D01*
X137926150Y-124611621D01*
X137897480Y-124555353D01*
X137893050Y-124546658D01*
X137803342Y-124456950D01*
X137690304Y-124399354D01*
X137680667Y-124397827D01*
X137680662Y-124397826D01*
X137601339Y-124385263D01*
X137601333Y-124385262D01*
X137596519Y-124384500D01*
X137591640Y-124384500D01*
X137008352Y-124384500D01*
X137008339Y-124384500D01*
X137003482Y-124384501D01*
X136998680Y-124385261D01*
X136998673Y-124385262D01*
X136919331Y-124397828D01*
X136919330Y-124397828D01*
X136909696Y-124399354D01*
X136901010Y-124403779D01*
X136901003Y-124403782D01*
X136805353Y-124452519D01*
X136805349Y-124452521D01*
X136796658Y-124456950D01*
X136789759Y-124463848D01*
X136789756Y-124463851D01*
X136713851Y-124539756D01*
X136713848Y-124539759D01*
X136706950Y-124546658D01*
X136702521Y-124555349D01*
X136702519Y-124555353D01*
X136653785Y-124650999D01*
X136649354Y-124659696D01*
X136647827Y-124669330D01*
X136647826Y-124669337D01*
X136638191Y-124730172D01*
X136612020Y-124788888D01*
X136559967Y-124826609D01*
X136496021Y-124833199D01*
X136437369Y-124806885D01*
X136399775Y-124754740D01*
X136396261Y-124745474D01*
X136396260Y-124745472D01*
X136393599Y-124738455D01*
X136301793Y-124605451D01*
X136250313Y-124559843D01*
X136186434Y-124503251D01*
X136186433Y-124503250D01*
X136180824Y-124498281D01*
X136093632Y-124452519D01*
X136044362Y-124426660D01*
X136044359Y-124426658D01*
X136037723Y-124423176D01*
X136014702Y-124417502D01*
X135888087Y-124386294D01*
X135888082Y-124386293D01*
X135880806Y-124384500D01*
X135719194Y-124384500D01*
X135711918Y-124386293D01*
X135711912Y-124386294D01*
X135569559Y-124421381D01*
X135569557Y-124421381D01*
X135562277Y-124423176D01*
X135555643Y-124426657D01*
X135555637Y-124426660D01*
X135456570Y-124478655D01*
X135419176Y-124498281D01*
X135413569Y-124503247D01*
X135413565Y-124503251D01*
X135303817Y-124600480D01*
X135303813Y-124600484D01*
X135298207Y-124605451D01*
X135293952Y-124611615D01*
X135293947Y-124611621D01*
X135210664Y-124732278D01*
X135210661Y-124732282D01*
X135206401Y-124738455D01*
X135203741Y-124745466D01*
X135203739Y-124745472D01*
X135165942Y-124845136D01*
X135132227Y-124893980D01*
X135079675Y-124921562D01*
X135020325Y-124921562D01*
X134967773Y-124893980D01*
X134934058Y-124845136D01*
X134899298Y-124753482D01*
X134893599Y-124738455D01*
X134801793Y-124605451D01*
X134750313Y-124559843D01*
X134686434Y-124503251D01*
X134686433Y-124503250D01*
X134680824Y-124498281D01*
X134593632Y-124452519D01*
X134544362Y-124426660D01*
X134544359Y-124426658D01*
X134537723Y-124423176D01*
X134514702Y-124417502D01*
X134388087Y-124386294D01*
X134388082Y-124386293D01*
X134380806Y-124384500D01*
X134219194Y-124384500D01*
X134211918Y-124386293D01*
X134211912Y-124386294D01*
X134069559Y-124421381D01*
X134069557Y-124421381D01*
X134062277Y-124423176D01*
X134055643Y-124426657D01*
X134055637Y-124426660D01*
X133956570Y-124478655D01*
X133919176Y-124498281D01*
X133913569Y-124503247D01*
X133913565Y-124503251D01*
X133858124Y-124552368D01*
X133809420Y-124578935D01*
X133754006Y-124581604D01*
X133702974Y-124559843D01*
X133666539Y-124518006D01*
X133650896Y-124488741D01*
X133644157Y-124478655D01*
X133525048Y-124333520D01*
X133516479Y-124324951D01*
X133371344Y-124205842D01*
X133361255Y-124199100D01*
X133195678Y-124110598D01*
X133184470Y-124105955D01*
X133063900Y-124069380D01*
X133052612Y-124068687D01*
X133050000Y-124079688D01*
X133050000Y-126720312D01*
X132550000Y-126720312D01*
X132550000Y-125666326D01*
X132546549Y-125653450D01*
X132533674Y-125650000D01*
X131566326Y-125650000D01*
X131553450Y-125653450D01*
X131550000Y-125666326D01*
X131550000Y-126720312D01*
X131050000Y-126720312D01*
X131050000Y-125666326D01*
X131046549Y-125653450D01*
X131033674Y-125650000D01*
X130301326Y-125650000D01*
X130288450Y-125653450D01*
X130285000Y-125666326D01*
X130285000Y-125796813D01*
X126300000Y-125796813D01*
X126300000Y-125133674D01*
X130285000Y-125133674D01*
X130288450Y-125146549D01*
X130301326Y-125150000D01*
X131033674Y-125150000D01*
X131046549Y-125146549D01*
X131050000Y-125133674D01*
X131550000Y-125133674D01*
X131553450Y-125146549D01*
X131566326Y-125150000D01*
X132533674Y-125150000D01*
X132546549Y-125146549D01*
X132550000Y-125133674D01*
X132550000Y-124079688D01*
X132547387Y-124068687D01*
X132536099Y-124069380D01*
X132415529Y-124105955D01*
X132404321Y-124110598D01*
X132238744Y-124199100D01*
X132228656Y-124205841D01*
X132128664Y-124287903D01*
X132078157Y-124312810D01*
X132021843Y-124312810D01*
X131971336Y-124287903D01*
X131871343Y-124205841D01*
X131861255Y-124199100D01*
X131695678Y-124110598D01*
X131684470Y-124105955D01*
X131563900Y-124069380D01*
X131552612Y-124068687D01*
X131550000Y-124079688D01*
X131550000Y-125133674D01*
X131050000Y-125133674D01*
X131050000Y-124079688D01*
X131047387Y-124068687D01*
X131036099Y-124069380D01*
X130915529Y-124105955D01*
X130904321Y-124110598D01*
X130738744Y-124199100D01*
X130728655Y-124205842D01*
X130583520Y-124324951D01*
X130574951Y-124333520D01*
X130455842Y-124478655D01*
X130449100Y-124488744D01*
X130360596Y-124654324D01*
X130355957Y-124665524D01*
X130301454Y-124845194D01*
X130299088Y-124857089D01*
X130285298Y-124997102D01*
X130285000Y-125003187D01*
X130285000Y-125133674D01*
X126300000Y-125133674D01*
X126300000Y-118666326D01*
X126300000Y-118650000D01*
X126283674Y-118650000D01*
X90184500Y-118650000D01*
X90122500Y-118633387D01*
X90077113Y-118588000D01*
X90060500Y-118526000D01*
X90060500Y-118400000D01*
X133744750Y-118400000D01*
X133745811Y-118408059D01*
X133761338Y-118526000D01*
X133763670Y-118543709D01*
X133766781Y-118551220D01*
X133766782Y-118551223D01*
X133800815Y-118633387D01*
X133819139Y-118677625D01*
X133824084Y-118684069D01*
X133824085Y-118684071D01*
X133847543Y-118714642D01*
X133907379Y-118792621D01*
X134022375Y-118880861D01*
X134156291Y-118936330D01*
X134300000Y-118955250D01*
X134443709Y-118936330D01*
X134477603Y-118922289D01*
X134502065Y-118915620D01*
X134502019Y-118915423D01*
X134507699Y-118914070D01*
X134513468Y-118913260D01*
X135121507Y-118706595D01*
X135161411Y-118700000D01*
X135184043Y-118700000D01*
X135242496Y-118714642D01*
X135287145Y-118755109D01*
X135307446Y-118811846D01*
X135298604Y-118871452D01*
X135266782Y-118948276D01*
X135266780Y-118948281D01*
X135263670Y-118955791D01*
X135262609Y-118963848D01*
X135262608Y-118963853D01*
X135245811Y-119091441D01*
X135244750Y-119099500D01*
X135263670Y-119243209D01*
X135319139Y-119377125D01*
X135324084Y-119383569D01*
X135324085Y-119383571D01*
X135349331Y-119416472D01*
X135407379Y-119492121D01*
X135522375Y-119580361D01*
X135656291Y-119635830D01*
X135800000Y-119654750D01*
X135943709Y-119635830D01*
X135979579Y-119620971D01*
X136008264Y-119612962D01*
X136009847Y-119612719D01*
X136009846Y-119612719D01*
X136015673Y-119611827D01*
X136363107Y-119488186D01*
X136431949Y-119484046D01*
X136492358Y-119517329D01*
X137050841Y-120075812D01*
X137053202Y-120078525D01*
X137056042Y-120084228D01*
X137064530Y-120091966D01*
X137064531Y-120091967D01*
X137090317Y-120115474D01*
X137094459Y-120119430D01*
X137107203Y-120132174D01*
X137111930Y-120135412D01*
X137112621Y-120135986D01*
X137116928Y-120139733D01*
X137139067Y-120159916D01*
X137149782Y-120164067D01*
X137156246Y-120168069D01*
X137160074Y-120170087D01*
X137167039Y-120173162D01*
X137176519Y-120179656D01*
X137187706Y-120182287D01*
X137202506Y-120185768D01*
X137218912Y-120190848D01*
X137233108Y-120196348D01*
X137233111Y-120196348D01*
X137243827Y-120200500D01*
X137255320Y-120200500D01*
X137262794Y-120201897D01*
X137267094Y-120202396D01*
X137274692Y-120202747D01*
X137285881Y-120205379D01*
X137312332Y-120201689D01*
X137329465Y-120200500D01*
X144215216Y-120200500D01*
X144218796Y-120200748D01*
X144224837Y-120202773D01*
X144271151Y-120200632D01*
X144276878Y-120200500D01*
X144289183Y-120200500D01*
X144294916Y-120200500D01*
X144300550Y-120199445D01*
X144301423Y-120199365D01*
X144307144Y-120198967D01*
X144337064Y-120197585D01*
X144347578Y-120192941D01*
X144354980Y-120191201D01*
X144359110Y-120189922D01*
X144366207Y-120187172D01*
X144377505Y-120185061D01*
X144400216Y-120170998D01*
X144415391Y-120162999D01*
X144439837Y-120152206D01*
X144447964Y-120144077D01*
X144454247Y-120139774D01*
X144457627Y-120137096D01*
X144463248Y-120131970D01*
X144473024Y-120125919D01*
X144489125Y-120104595D01*
X144500386Y-120091655D01*
X146005081Y-118586960D01*
X146054349Y-118556743D01*
X147300098Y-118150909D01*
X147319289Y-118141584D01*
X147319426Y-118141867D01*
X147319956Y-118141451D01*
X147322667Y-118140913D01*
X147327981Y-118137361D01*
X147338390Y-118132305D01*
X147343664Y-118128777D01*
X147346856Y-118125937D01*
X147350164Y-118123380D01*
X147350099Y-118123301D01*
X147354809Y-118119435D01*
X147359881Y-118116047D01*
X147375142Y-118100785D01*
X147376160Y-118101803D01*
X147376626Y-118101491D01*
X147375531Y-118100396D01*
X147603422Y-117872505D01*
X147834828Y-117641100D01*
X147859695Y-117603882D01*
X147868427Y-117559987D01*
X148557427Y-117559987D01*
X148558616Y-117565964D01*
X148563775Y-117591903D01*
X148563776Y-117591907D01*
X148566159Y-117603883D01*
X148591025Y-117641097D01*
X149065972Y-118116044D01*
X149103190Y-118140911D01*
X149147092Y-118149644D01*
X149818771Y-118149645D01*
X149862667Y-118140913D01*
X149899881Y-118116047D01*
X150374828Y-117641100D01*
X150399695Y-117603882D01*
X150408428Y-117559980D01*
X150408429Y-116888301D01*
X150399697Y-116844405D01*
X150374831Y-116807191D01*
X149899884Y-116332244D01*
X149862666Y-116307377D01*
X149846544Y-116304170D01*
X149824743Y-116299833D01*
X149824739Y-116299832D01*
X149818764Y-116298644D01*
X149812678Y-116298643D01*
X149812668Y-116298643D01*
X149153178Y-116298643D01*
X149153177Y-116298643D01*
X149147085Y-116298643D01*
X149141108Y-116299831D01*
X149141107Y-116299832D01*
X149115168Y-116304991D01*
X149115162Y-116304993D01*
X149103189Y-116307375D01*
X149093035Y-116314159D01*
X149093032Y-116314161D01*
X149071039Y-116328857D01*
X149065975Y-116332241D01*
X149061672Y-116336543D01*
X149061667Y-116336548D01*
X148595337Y-116802878D01*
X148595332Y-116802883D01*
X148591028Y-116807188D01*
X148587643Y-116812252D01*
X148587643Y-116812254D01*
X148572946Y-116834250D01*
X148572944Y-116834252D01*
X148566161Y-116844406D01*
X148563778Y-116856384D01*
X148563778Y-116856385D01*
X148558617Y-116882328D01*
X148558616Y-116882333D01*
X148557428Y-116888308D01*
X148557427Y-116894392D01*
X148557427Y-116894403D01*
X148557427Y-117235686D01*
X148557427Y-117559987D01*
X147868427Y-117559987D01*
X147868428Y-117559980D01*
X147868429Y-116888301D01*
X147859697Y-116844405D01*
X147834831Y-116807191D01*
X147359884Y-116332244D01*
X147322666Y-116307377D01*
X147306544Y-116304170D01*
X147284743Y-116299833D01*
X147284739Y-116299832D01*
X147278764Y-116298644D01*
X147272678Y-116298643D01*
X147272668Y-116298643D01*
X146613178Y-116298643D01*
X146613177Y-116298643D01*
X146607085Y-116298643D01*
X146601108Y-116299831D01*
X146601107Y-116299832D01*
X146575168Y-116304991D01*
X146575162Y-116304993D01*
X146563189Y-116307375D01*
X146553035Y-116314159D01*
X146553032Y-116314161D01*
X146531039Y-116328857D01*
X146525975Y-116332241D01*
X146521672Y-116336543D01*
X146521667Y-116336548D01*
X146066682Y-116791533D01*
X146065595Y-116790446D01*
X146065281Y-116790918D01*
X146066289Y-116791926D01*
X146062181Y-116796034D01*
X146061670Y-116796347D01*
X146061275Y-116796939D01*
X146058948Y-116799266D01*
X146048268Y-116804559D01*
X146012818Y-116826284D01*
X145955102Y-116830826D01*
X145901615Y-116808671D01*
X145864015Y-116764648D01*
X145850500Y-116708353D01*
X145850500Y-116252905D01*
X145859939Y-116205453D01*
X145886818Y-116165225D01*
X145906238Y-116145805D01*
X146005080Y-116046961D01*
X146054349Y-116016743D01*
X147300098Y-115610909D01*
X147319289Y-115601584D01*
X147319426Y-115601867D01*
X147319956Y-115601451D01*
X147322667Y-115600913D01*
X147327981Y-115597361D01*
X147338390Y-115592305D01*
X147343664Y-115588777D01*
X147346856Y-115585937D01*
X147350164Y-115583380D01*
X147350099Y-115583301D01*
X147354809Y-115579435D01*
X147359881Y-115576047D01*
X147375142Y-115560785D01*
X147376160Y-115561803D01*
X147376626Y-115561491D01*
X147375531Y-115560396D01*
X147375531Y-115560395D01*
X147834828Y-115101100D01*
X147859695Y-115063882D01*
X147868427Y-115019987D01*
X148557427Y-115019987D01*
X148558616Y-115025964D01*
X148563775Y-115051903D01*
X148563776Y-115051907D01*
X148566159Y-115063883D01*
X148591025Y-115101097D01*
X149065972Y-115576044D01*
X149103190Y-115600911D01*
X149147092Y-115609644D01*
X149818771Y-115609645D01*
X149862667Y-115600913D01*
X149899881Y-115576047D01*
X150374828Y-115101100D01*
X150399695Y-115063882D01*
X150408428Y-115019980D01*
X150408429Y-114348301D01*
X150399697Y-114304405D01*
X150374831Y-114267191D01*
X149899884Y-113792244D01*
X149862666Y-113767377D01*
X149846544Y-113764170D01*
X149824743Y-113759833D01*
X149824739Y-113759832D01*
X149818764Y-113758644D01*
X149812678Y-113758643D01*
X149812668Y-113758643D01*
X149153178Y-113758643D01*
X149153177Y-113758643D01*
X149147085Y-113758643D01*
X149141108Y-113759831D01*
X149141107Y-113759832D01*
X149115168Y-113764991D01*
X149115162Y-113764993D01*
X149103189Y-113767375D01*
X149093035Y-113774159D01*
X149093032Y-113774161D01*
X149071039Y-113788857D01*
X149065975Y-113792241D01*
X149061672Y-113796543D01*
X149061667Y-113796548D01*
X148595337Y-114262878D01*
X148595332Y-114262883D01*
X148591028Y-114267188D01*
X148587643Y-114272252D01*
X148587643Y-114272254D01*
X148572946Y-114294250D01*
X148572944Y-114294252D01*
X148566161Y-114304406D01*
X148563778Y-114316384D01*
X148563778Y-114316385D01*
X148558617Y-114342328D01*
X148558616Y-114342333D01*
X148557428Y-114348308D01*
X148557427Y-114354392D01*
X148557427Y-114354403D01*
X148557427Y-115013884D01*
X148557427Y-115019987D01*
X147868427Y-115019987D01*
X147868428Y-115019980D01*
X147868429Y-114348301D01*
X147859697Y-114304405D01*
X147834831Y-114267191D01*
X147359884Y-113792244D01*
X147322666Y-113767377D01*
X147306544Y-113764170D01*
X147284743Y-113759833D01*
X147284739Y-113759832D01*
X147278764Y-113758644D01*
X147272678Y-113758643D01*
X147272668Y-113758643D01*
X146613178Y-113758643D01*
X146613177Y-113758643D01*
X146607085Y-113758643D01*
X146601108Y-113759831D01*
X146601107Y-113759832D01*
X146575168Y-113764991D01*
X146575162Y-113764993D01*
X146563189Y-113767375D01*
X146553035Y-113774159D01*
X146553032Y-113774161D01*
X146531039Y-113788857D01*
X146525975Y-113792241D01*
X146521672Y-113796543D01*
X146521667Y-113796548D01*
X146066682Y-114251533D01*
X146065595Y-114250446D01*
X146065284Y-114250915D01*
X146066292Y-114251923D01*
X146058950Y-114259264D01*
X146058948Y-114259266D01*
X146055335Y-114262880D01*
X146055333Y-114262883D01*
X146051028Y-114267188D01*
X146047644Y-114272251D01*
X146043782Y-114276958D01*
X146043699Y-114276890D01*
X146041119Y-114280224D01*
X146038305Y-114283390D01*
X146034778Y-114288661D01*
X146029703Y-114299103D01*
X146026161Y-114304406D01*
X146025626Y-114307093D01*
X146025204Y-114307632D01*
X146025491Y-114307772D01*
X146021307Y-114316384D01*
X146016163Y-114326970D01*
X146014848Y-114331004D01*
X146014844Y-114331016D01*
X145610325Y-115572723D01*
X145580105Y-115621994D01*
X145374187Y-115827912D01*
X145371471Y-115830275D01*
X145365772Y-115833114D01*
X145358039Y-115841595D01*
X145358034Y-115841600D01*
X145334521Y-115867392D01*
X145330575Y-115871524D01*
X145321877Y-115880223D01*
X145321873Y-115880227D01*
X145317826Y-115884275D01*
X145314592Y-115888993D01*
X145314006Y-115889700D01*
X145310259Y-115894006D01*
X145297822Y-115907650D01*
X145290084Y-115916139D01*
X145285935Y-115926845D01*
X145281956Y-115933273D01*
X145279895Y-115937184D01*
X145276834Y-115944115D01*
X145270344Y-115953591D01*
X145267714Y-115964768D01*
X145267711Y-115964777D01*
X145264228Y-115979588D01*
X145259150Y-115995987D01*
X145249500Y-116020898D01*
X145246027Y-116019552D01*
X145227575Y-116057843D01*
X145174063Y-116094035D01*
X145109609Y-116098400D01*
X145051707Y-116069752D01*
X145045490Y-116064266D01*
X144988266Y-116019813D01*
X144974023Y-116011534D01*
X144856549Y-115962874D01*
X144840619Y-115958656D01*
X144768731Y-115949627D01*
X144761005Y-115949144D01*
X144044845Y-115949144D01*
X144037124Y-115949627D01*
X143965232Y-115958658D01*
X143949309Y-115962874D01*
X143831837Y-116011532D01*
X143817586Y-116019815D01*
X143760358Y-116064271D01*
X143754575Y-116069374D01*
X143689685Y-116134263D01*
X143683021Y-116145805D01*
X143689686Y-116157349D01*
X144668799Y-117136462D01*
X144700893Y-117192049D01*
X144700893Y-117256237D01*
X144668799Y-117311824D01*
X143689685Y-118290938D01*
X143683021Y-118302480D01*
X143689685Y-118314023D01*
X143754566Y-118378904D01*
X143760365Y-118384020D01*
X143817589Y-118428474D01*
X143831832Y-118436753D01*
X143949306Y-118485413D01*
X143965236Y-118489631D01*
X143998302Y-118493784D01*
X144061085Y-118520613D01*
X144100149Y-118576609D01*
X144103652Y-118644794D01*
X144070531Y-118704497D01*
X143961845Y-118813183D01*
X143921620Y-118840061D01*
X143874167Y-118849500D01*
X137919031Y-118849500D01*
X137871578Y-118840061D01*
X137831350Y-118813181D01*
X137241853Y-118223684D01*
X137239495Y-118220974D01*
X137236656Y-118215272D01*
X137228164Y-118207530D01*
X137228163Y-118207529D01*
X137202379Y-118184024D01*
X137198237Y-118180068D01*
X137189550Y-118171381D01*
X137189550Y-118171380D01*
X137185495Y-118167326D01*
X137180764Y-118164084D01*
X137180084Y-118163520D01*
X137175765Y-118159762D01*
X137162121Y-118147323D01*
X137162119Y-118147321D01*
X137153631Y-118139584D01*
X137142918Y-118135433D01*
X137136478Y-118131446D01*
X137132600Y-118129402D01*
X137125656Y-118126335D01*
X137116179Y-118119844D01*
X137105000Y-118117214D01*
X137104992Y-118117211D01*
X137090182Y-118113728D01*
X137073784Y-118108650D01*
X137059589Y-118103151D01*
X137059583Y-118103149D01*
X137048871Y-118099000D01*
X137037380Y-118099000D01*
X137029906Y-118097603D01*
X137025603Y-118097103D01*
X137018000Y-118096751D01*
X137006817Y-118094121D01*
X136995439Y-118095708D01*
X136995435Y-118095708D01*
X136980365Y-118097811D01*
X136963233Y-118099000D01*
X135161280Y-118099000D01*
X135121539Y-118092459D01*
X134518772Y-117888517D01*
X134518765Y-117888515D01*
X134513255Y-117886651D01*
X134507487Y-117885846D01*
X134501820Y-117884506D01*
X134501872Y-117884286D01*
X134477424Y-117877634D01*
X134451214Y-117866778D01*
X134451210Y-117866776D01*
X134443709Y-117863670D01*
X134435655Y-117862609D01*
X134435653Y-117862609D01*
X134308059Y-117845811D01*
X134300000Y-117844750D01*
X134291941Y-117845811D01*
X134164353Y-117862608D01*
X134164348Y-117862609D01*
X134156291Y-117863670D01*
X134148781Y-117866780D01*
X134148776Y-117866782D01*
X134029885Y-117916028D01*
X134029883Y-117916029D01*
X134022375Y-117919139D01*
X134015933Y-117924082D01*
X134015928Y-117924085D01*
X133913821Y-118002435D01*
X133913817Y-118002438D01*
X133907379Y-118007379D01*
X133902438Y-118013817D01*
X133902435Y-118013821D01*
X133824085Y-118115928D01*
X133824082Y-118115933D01*
X133819139Y-118122375D01*
X133816029Y-118129883D01*
X133816028Y-118129885D01*
X133766782Y-118248776D01*
X133766780Y-118248781D01*
X133763670Y-118256291D01*
X133762609Y-118264348D01*
X133762608Y-118264353D01*
X133757589Y-118302480D01*
X133744750Y-118400000D01*
X90060500Y-118400000D01*
X90060500Y-117582227D01*
X143127928Y-117582227D01*
X143128411Y-117589947D01*
X143137442Y-117661839D01*
X143141658Y-117677762D01*
X143190316Y-117795234D01*
X143198599Y-117809485D01*
X143243051Y-117866706D01*
X143248167Y-117872505D01*
X143313047Y-117937385D01*
X143324590Y-117944049D01*
X143336132Y-117937385D01*
X144037832Y-117235686D01*
X144044496Y-117224143D01*
X144037832Y-117212601D01*
X143336133Y-116510902D01*
X143324589Y-116504237D01*
X143313047Y-116510901D01*
X143248158Y-116575791D01*
X143243055Y-116581574D01*
X143198597Y-116638805D01*
X143190318Y-116653048D01*
X143141658Y-116770522D01*
X143137440Y-116786452D01*
X143128411Y-116858340D01*
X143127928Y-116866067D01*
X143127928Y-117582227D01*
X90060500Y-117582227D01*
X90060500Y-115019987D01*
X143477427Y-115019987D01*
X143478616Y-115025964D01*
X143483775Y-115051903D01*
X143483776Y-115051907D01*
X143486159Y-115063883D01*
X143511025Y-115101097D01*
X143985972Y-115576044D01*
X144023190Y-115600911D01*
X144067092Y-115609644D01*
X144738771Y-115609645D01*
X144782667Y-115600913D01*
X144819881Y-115576047D01*
X145294828Y-115101100D01*
X145319695Y-115063882D01*
X145328428Y-115019980D01*
X145328429Y-114348301D01*
X145319697Y-114304405D01*
X145294831Y-114267191D01*
X144819884Y-113792244D01*
X144782666Y-113767377D01*
X144766544Y-113764170D01*
X144744743Y-113759833D01*
X144744739Y-113759832D01*
X144738764Y-113758644D01*
X144732678Y-113758643D01*
X144732668Y-113758643D01*
X144073178Y-113758643D01*
X144073177Y-113758643D01*
X144067085Y-113758643D01*
X144061108Y-113759831D01*
X144061107Y-113759832D01*
X144035168Y-113764991D01*
X144035162Y-113764993D01*
X144023189Y-113767375D01*
X144013035Y-113774159D01*
X144013032Y-113774161D01*
X143991039Y-113788857D01*
X143985975Y-113792241D01*
X143981672Y-113796543D01*
X143981667Y-113796548D01*
X143515337Y-114262878D01*
X143515332Y-114262883D01*
X143511028Y-114267188D01*
X143507643Y-114272252D01*
X143507643Y-114272254D01*
X143492946Y-114294250D01*
X143492944Y-114294252D01*
X143486161Y-114304406D01*
X143483778Y-114316384D01*
X143483778Y-114316385D01*
X143478617Y-114342328D01*
X143478616Y-114342333D01*
X143477428Y-114348308D01*
X143477427Y-114354392D01*
X143477427Y-114354403D01*
X143477427Y-115013884D01*
X143477427Y-115019987D01*
X90060500Y-115019987D01*
X90060500Y-110246126D01*
X143792628Y-110246126D01*
X143793317Y-110250698D01*
X143793318Y-110250709D01*
X143831040Y-110500972D01*
X143831041Y-110500979D01*
X143831732Y-110505559D01*
X143833097Y-110509987D01*
X143833099Y-110509992D01*
X143907697Y-110751835D01*
X143907701Y-110751845D01*
X143909065Y-110756267D01*
X144022900Y-110992648D01*
X144170695Y-111209423D01*
X144349147Y-111401749D01*
X144554271Y-111565330D01*
X144781485Y-111696512D01*
X145025712Y-111792364D01*
X145281498Y-111850746D01*
X145477634Y-111865444D01*
X145606305Y-111865444D01*
X145608622Y-111865444D01*
X145804758Y-111850746D01*
X146060544Y-111792364D01*
X146304771Y-111696512D01*
X146531985Y-111565330D01*
X146737109Y-111401749D01*
X146915561Y-111209423D01*
X147063356Y-110992648D01*
X147177191Y-110756267D01*
X147254524Y-110505559D01*
X147293628Y-110246126D01*
X174272628Y-110246126D01*
X174273317Y-110250698D01*
X174273318Y-110250709D01*
X174311040Y-110500972D01*
X174311041Y-110500979D01*
X174311732Y-110505559D01*
X174313097Y-110509987D01*
X174313099Y-110509992D01*
X174387697Y-110751835D01*
X174387701Y-110751845D01*
X174389065Y-110756267D01*
X174502900Y-110992648D01*
X174650695Y-111209423D01*
X174829147Y-111401749D01*
X175034271Y-111565330D01*
X175261485Y-111696512D01*
X175505712Y-111792364D01*
X175761498Y-111850746D01*
X175957634Y-111865444D01*
X176086305Y-111865444D01*
X176088622Y-111865444D01*
X176284758Y-111850746D01*
X176540544Y-111792364D01*
X176784771Y-111696512D01*
X177011985Y-111565330D01*
X177217109Y-111401749D01*
X177395561Y-111209423D01*
X177543356Y-110992648D01*
X177657191Y-110756267D01*
X177734524Y-110505559D01*
X177773628Y-110246126D01*
X177773628Y-109983762D01*
X177734524Y-109724329D01*
X177657191Y-109473621D01*
X177543356Y-109237240D01*
X177395561Y-109020465D01*
X177217109Y-108828139D01*
X177011985Y-108664558D01*
X176790340Y-108536591D01*
X176788792Y-108535697D01*
X176788786Y-108535694D01*
X176784771Y-108533376D01*
X176780452Y-108531681D01*
X176780446Y-108531678D01*
X176544866Y-108439220D01*
X176544862Y-108439219D01*
X176540544Y-108437524D01*
X176536021Y-108436491D01*
X176536019Y-108436491D01*
X176289277Y-108380173D01*
X176289271Y-108380172D01*
X176284758Y-108379142D01*
X176280136Y-108378795D01*
X176280132Y-108378795D01*
X176090936Y-108364617D01*
X176090925Y-108364616D01*
X176088622Y-108364444D01*
X175957634Y-108364444D01*
X175955331Y-108364616D01*
X175955319Y-108364617D01*
X175766123Y-108378795D01*
X175766117Y-108378795D01*
X175761498Y-108379142D01*
X175756986Y-108380171D01*
X175756978Y-108380173D01*
X175510236Y-108436491D01*
X175510230Y-108436492D01*
X175505712Y-108437524D01*
X175501396Y-108439217D01*
X175501389Y-108439220D01*
X175265809Y-108531678D01*
X175265798Y-108531683D01*
X175261485Y-108533376D01*
X175257474Y-108535691D01*
X175257463Y-108535697D01*
X175094326Y-108629885D01*
X175034271Y-108664558D01*
X175030647Y-108667447D01*
X175030644Y-108667450D01*
X174832774Y-108825246D01*
X174832769Y-108825250D01*
X174829147Y-108828139D01*
X174825993Y-108831537D01*
X174825991Y-108831540D01*
X174653847Y-109017067D01*
X174653841Y-109017073D01*
X174650695Y-109020465D01*
X174648085Y-109024292D01*
X174648085Y-109024293D01*
X174591814Y-109106828D01*
X174502900Y-109237240D01*
X174500887Y-109241418D01*
X174500884Y-109241425D01*
X174391077Y-109469441D01*
X174391072Y-109469452D01*
X174389065Y-109473621D01*
X174387702Y-109478037D01*
X174387697Y-109478052D01*
X174313099Y-109719895D01*
X174313096Y-109719903D01*
X174311732Y-109724329D01*
X174311042Y-109728905D01*
X174311040Y-109728915D01*
X174273318Y-109979178D01*
X174273317Y-109979190D01*
X174272628Y-109983762D01*
X174272628Y-110246126D01*
X147293628Y-110246126D01*
X147293628Y-109983762D01*
X147254524Y-109724329D01*
X147177191Y-109473621D01*
X147063356Y-109237240D01*
X146915561Y-109020465D01*
X146737109Y-108828139D01*
X146531985Y-108664558D01*
X146310340Y-108536591D01*
X146308792Y-108535697D01*
X146308786Y-108535694D01*
X146304771Y-108533376D01*
X146300452Y-108531681D01*
X146300446Y-108531678D01*
X146064866Y-108439220D01*
X146064862Y-108439219D01*
X146060544Y-108437524D01*
X146056021Y-108436491D01*
X146056019Y-108436491D01*
X145809277Y-108380173D01*
X145809271Y-108380172D01*
X145804758Y-108379142D01*
X145800136Y-108378795D01*
X145800132Y-108378795D01*
X145610936Y-108364617D01*
X145610925Y-108364616D01*
X145608622Y-108364444D01*
X145477634Y-108364444D01*
X145475331Y-108364616D01*
X145475319Y-108364617D01*
X145286123Y-108378795D01*
X145286117Y-108378795D01*
X145281498Y-108379142D01*
X145276986Y-108380171D01*
X145276978Y-108380173D01*
X145030236Y-108436491D01*
X145030230Y-108436492D01*
X145025712Y-108437524D01*
X145021396Y-108439217D01*
X145021389Y-108439220D01*
X144785809Y-108531678D01*
X144785798Y-108531683D01*
X144781485Y-108533376D01*
X144777474Y-108535691D01*
X144777463Y-108535697D01*
X144614326Y-108629885D01*
X144554271Y-108664558D01*
X144550647Y-108667447D01*
X144550644Y-108667450D01*
X144352774Y-108825246D01*
X144352769Y-108825250D01*
X144349147Y-108828139D01*
X144345993Y-108831537D01*
X144345991Y-108831540D01*
X144173847Y-109017067D01*
X144173841Y-109017073D01*
X144170695Y-109020465D01*
X144168085Y-109024292D01*
X144168085Y-109024293D01*
X144111814Y-109106828D01*
X144022900Y-109237240D01*
X144020887Y-109241418D01*
X144020884Y-109241425D01*
X143911077Y-109469441D01*
X143911072Y-109469452D01*
X143909065Y-109473621D01*
X143907702Y-109478037D01*
X143907697Y-109478052D01*
X143833099Y-109719895D01*
X143833096Y-109719903D01*
X143831732Y-109724329D01*
X143831042Y-109728905D01*
X143831040Y-109728915D01*
X143793318Y-109979178D01*
X143793317Y-109979190D01*
X143792628Y-109983762D01*
X143792628Y-110246126D01*
X90060500Y-110246126D01*
X90060500Y-108900000D01*
X99494750Y-108900000D01*
X99495811Y-108908059D01*
X99511113Y-109024293D01*
X99513670Y-109043709D01*
X99516781Y-109051220D01*
X99516782Y-109051223D01*
X99545961Y-109121668D01*
X99569139Y-109177625D01*
X99657379Y-109292621D01*
X99772375Y-109380861D01*
X99906291Y-109436330D01*
X100050000Y-109455250D01*
X100193709Y-109436330D01*
X100327625Y-109380861D01*
X100442621Y-109292621D01*
X100530861Y-109177625D01*
X100544879Y-109143781D01*
X100557460Y-109121779D01*
X100557280Y-109121668D01*
X100560336Y-109116706D01*
X100563846Y-109112053D01*
X100668436Y-108900000D01*
X117994750Y-108900000D01*
X117995811Y-108908059D01*
X118011113Y-109024293D01*
X118013670Y-109043709D01*
X118016781Y-109051220D01*
X118016782Y-109051223D01*
X118045961Y-109121668D01*
X118069139Y-109177625D01*
X118157379Y-109292621D01*
X118272375Y-109380861D01*
X118406291Y-109436330D01*
X118550000Y-109455250D01*
X118693709Y-109436330D01*
X118827625Y-109380861D01*
X118942621Y-109292621D01*
X119030861Y-109177625D01*
X119044879Y-109143781D01*
X119057460Y-109121779D01*
X119057280Y-109121668D01*
X119060336Y-109116706D01*
X119063846Y-109112053D01*
X119347682Y-108536587D01*
X119371205Y-108503764D01*
X123610149Y-104264820D01*
X168719500Y-104264820D01*
X168720688Y-104270795D01*
X168720689Y-104270799D01*
X168725849Y-104296740D01*
X168725850Y-104296742D01*
X168728233Y-104308722D01*
X168735019Y-104318878D01*
X168735020Y-104318880D01*
X168754710Y-104348348D01*
X168761496Y-104358504D01*
X168811278Y-104391767D01*
X168855180Y-104400500D01*
X170578725Y-104400500D01*
X170584820Y-104400500D01*
X170628722Y-104391767D01*
X170678504Y-104358504D01*
X170711767Y-104308722D01*
X170720500Y-104264820D01*
X170720500Y-103400000D01*
X171254659Y-103400000D01*
X171255256Y-103406062D01*
X171273378Y-103590067D01*
X171273379Y-103590073D01*
X171273976Y-103596132D01*
X171275743Y-103601957D01*
X171275744Y-103601962D01*
X171290284Y-103649892D01*
X171331186Y-103784727D01*
X171334055Y-103790095D01*
X171334057Y-103790099D01*
X171421215Y-103953161D01*
X171421219Y-103953167D01*
X171424090Y-103958538D01*
X171549117Y-104110883D01*
X171701462Y-104235910D01*
X171706834Y-104238781D01*
X171706838Y-104238784D01*
X171848839Y-104314684D01*
X171875273Y-104328814D01*
X172063868Y-104386024D01*
X172260000Y-104405341D01*
X172456132Y-104386024D01*
X172644727Y-104328814D01*
X172818538Y-104235910D01*
X172970883Y-104110883D01*
X173095910Y-103958538D01*
X173188814Y-103784727D01*
X173230899Y-103645989D01*
X173264204Y-103592040D01*
X173319824Y-103561604D01*
X173383218Y-103562642D01*
X173437813Y-103594880D01*
X173469335Y-103649892D01*
X173525168Y-103858263D01*
X173528856Y-103868397D01*
X173624113Y-104072676D01*
X173629501Y-104082008D01*
X173758784Y-104266643D01*
X173765721Y-104274909D01*
X173925090Y-104434278D01*
X173933356Y-104441215D01*
X174117991Y-104570498D01*
X174127323Y-104575886D01*
X174331602Y-104671143D01*
X174341736Y-104674831D01*
X174536219Y-104726943D01*
X174547448Y-104727311D01*
X174550000Y-104716369D01*
X174550000Y-102083631D01*
X174547448Y-102072688D01*
X174536219Y-102073056D01*
X174341736Y-102125168D01*
X174331602Y-102128856D01*
X174127332Y-102224110D01*
X174117982Y-102229508D01*
X173933357Y-102358784D01*
X173925092Y-102365719D01*
X173765719Y-102525092D01*
X173758784Y-102533357D01*
X173629508Y-102717982D01*
X173624110Y-102727332D01*
X173528856Y-102931602D01*
X173525168Y-102941736D01*
X173469335Y-103150107D01*
X173437813Y-103205119D01*
X173383218Y-103237357D01*
X173319824Y-103238395D01*
X173264204Y-103207959D01*
X173230899Y-103154008D01*
X173229715Y-103150106D01*
X173188814Y-103015273D01*
X173095910Y-102841462D01*
X172970883Y-102689117D01*
X172818538Y-102564090D01*
X172813167Y-102561219D01*
X172813161Y-102561215D01*
X172650099Y-102474057D01*
X172650095Y-102474055D01*
X172644727Y-102471186D01*
X172638899Y-102469418D01*
X172461962Y-102415744D01*
X172461957Y-102415743D01*
X172456132Y-102413976D01*
X172450073Y-102413379D01*
X172450067Y-102413378D01*
X172266062Y-102395256D01*
X172260000Y-102394659D01*
X172253938Y-102395256D01*
X172069932Y-102413378D01*
X172069924Y-102413379D01*
X172063868Y-102413976D01*
X172058044Y-102415742D01*
X172058037Y-102415744D01*
X171881100Y-102469418D01*
X171881096Y-102469419D01*
X171875273Y-102471186D01*
X171869907Y-102474053D01*
X171869900Y-102474057D01*
X171706838Y-102561215D01*
X171706827Y-102561222D01*
X171701462Y-102564090D01*
X171696754Y-102567953D01*
X171696749Y-102567957D01*
X171553823Y-102685254D01*
X171553818Y-102685258D01*
X171549117Y-102689117D01*
X171545258Y-102693818D01*
X171545254Y-102693823D01*
X171427957Y-102836749D01*
X171427953Y-102836754D01*
X171424090Y-102841462D01*
X171421222Y-102846827D01*
X171421215Y-102846838D01*
X171334057Y-103009900D01*
X171334053Y-103009907D01*
X171331186Y-103015273D01*
X171329419Y-103021096D01*
X171329418Y-103021100D01*
X171275744Y-103198037D01*
X171275742Y-103198044D01*
X171273976Y-103203868D01*
X171273379Y-103209924D01*
X171273378Y-103209932D01*
X171270575Y-103238395D01*
X171254659Y-103400000D01*
X170720500Y-103400000D01*
X170720500Y-102535180D01*
X170711767Y-102491278D01*
X170678504Y-102441496D01*
X170668348Y-102434710D01*
X170638880Y-102415020D01*
X170638878Y-102415019D01*
X170628722Y-102408233D01*
X170616742Y-102405850D01*
X170616740Y-102405849D01*
X170590799Y-102400689D01*
X170590795Y-102400688D01*
X170584820Y-102399500D01*
X168855180Y-102399500D01*
X168849205Y-102400688D01*
X168849200Y-102400689D01*
X168823259Y-102405849D01*
X168823255Y-102405850D01*
X168811278Y-102408233D01*
X168801122Y-102415018D01*
X168801119Y-102415020D01*
X168771651Y-102434710D01*
X168771648Y-102434712D01*
X168761496Y-102441496D01*
X168754712Y-102451648D01*
X168754710Y-102451651D01*
X168735020Y-102481119D01*
X168735018Y-102481122D01*
X168728233Y-102491278D01*
X168725850Y-102503255D01*
X168725849Y-102503259D01*
X168720689Y-102529200D01*
X168720688Y-102529205D01*
X168719500Y-102535180D01*
X168719500Y-104264820D01*
X123610149Y-104264820D01*
X129724970Y-98150000D01*
X154394722Y-98150000D01*
X154395626Y-98157445D01*
X154412858Y-98299370D01*
X154412859Y-98299375D01*
X154413763Y-98306818D01*
X154469780Y-98454523D01*
X154559517Y-98584530D01*
X154677760Y-98689283D01*
X154817635Y-98762696D01*
X154971015Y-98800500D01*
X155121485Y-98800500D01*
X155128985Y-98800500D01*
X155282365Y-98762696D01*
X155422240Y-98689283D01*
X155540483Y-98584530D01*
X155630220Y-98454523D01*
X155686237Y-98306818D01*
X155705278Y-98150000D01*
X155686237Y-97993182D01*
X155667433Y-97943602D01*
X155661094Y-97920208D01*
X155660206Y-97914932D01*
X155659777Y-97909383D01*
X155459192Y-97144047D01*
X155459455Y-97080192D01*
X155491458Y-97024934D01*
X155929573Y-96586818D01*
X155969801Y-96559939D01*
X156017254Y-96550500D01*
X160224769Y-96550500D01*
X160275664Y-96561426D01*
X160308547Y-96585624D01*
X160309517Y-96584530D01*
X160418859Y-96681398D01*
X160427760Y-96689283D01*
X160567635Y-96762696D01*
X160721015Y-96800500D01*
X160871485Y-96800500D01*
X160878985Y-96800500D01*
X161032365Y-96762696D01*
X161172240Y-96689283D01*
X161290483Y-96584530D01*
X161291452Y-96585624D01*
X161324336Y-96561426D01*
X161375231Y-96550500D01*
X172258725Y-96550500D01*
X172278122Y-96552027D01*
X172300000Y-96555492D01*
X172309641Y-96553965D01*
X172321878Y-96552027D01*
X172341275Y-96550500D01*
X173518481Y-96550500D01*
X173581519Y-96550500D01*
X176582745Y-96550500D01*
X176630198Y-96559939D01*
X176670426Y-96586819D01*
X176903181Y-96819573D01*
X176930061Y-96859801D01*
X176939500Y-96907254D01*
X176939500Y-101634663D01*
X176931049Y-101679656D01*
X176416131Y-103002037D01*
X176413951Y-103007635D01*
X176413562Y-103009796D01*
X176412547Y-103012725D01*
X176411186Y-103015273D01*
X176409423Y-103021081D01*
X176409418Y-103021096D01*
X176369099Y-103154009D01*
X176335794Y-103207960D01*
X176280174Y-103238395D01*
X176216780Y-103237357D01*
X176162186Y-103205118D01*
X176130664Y-103150106D01*
X176074832Y-102941738D01*
X176071143Y-102931602D01*
X175975889Y-102727332D01*
X175970491Y-102717982D01*
X175841215Y-102533357D01*
X175834280Y-102525092D01*
X175674909Y-102365721D01*
X175666643Y-102358784D01*
X175482008Y-102229501D01*
X175472676Y-102224113D01*
X175268397Y-102128856D01*
X175258263Y-102125168D01*
X175063780Y-102073056D01*
X175052551Y-102072688D01*
X175050000Y-102083631D01*
X175050000Y-104716369D01*
X175052551Y-104727311D01*
X175063780Y-104726943D01*
X175258263Y-104674831D01*
X175268397Y-104671143D01*
X175472676Y-104575886D01*
X175482008Y-104570498D01*
X175666643Y-104441215D01*
X175674909Y-104434278D01*
X175834278Y-104274909D01*
X175841215Y-104266643D01*
X175970498Y-104082008D01*
X175975886Y-104072676D01*
X176071143Y-103868397D01*
X176074832Y-103858261D01*
X176130664Y-103649893D01*
X176162185Y-103594881D01*
X176216780Y-103562642D01*
X176280174Y-103561604D01*
X176335794Y-103592039D01*
X176369099Y-103645990D01*
X176409415Y-103778893D01*
X176409419Y-103778904D01*
X176411186Y-103784727D01*
X176414055Y-103790095D01*
X176414057Y-103790099D01*
X176501215Y-103953161D01*
X176501219Y-103953167D01*
X176504090Y-103958538D01*
X176629117Y-104110883D01*
X176781462Y-104235910D01*
X176786834Y-104238781D01*
X176786838Y-104238784D01*
X176928839Y-104314684D01*
X176955273Y-104328814D01*
X177143868Y-104386024D01*
X177340000Y-104405341D01*
X177536132Y-104386024D01*
X177724727Y-104328814D01*
X177898538Y-104235910D01*
X178050883Y-104110883D01*
X178175910Y-103958538D01*
X178268814Y-103784727D01*
X178326024Y-103596132D01*
X178345341Y-103400000D01*
X178326024Y-103203868D01*
X178268814Y-103015273D01*
X178267449Y-103012720D01*
X178266435Y-103009793D01*
X178266048Y-103007635D01*
X177748951Y-101679656D01*
X177740500Y-101634663D01*
X177740500Y-96658493D01*
X177740499Y-96658469D01*
X177740499Y-96636327D01*
X177740499Y-96626567D01*
X177733652Y-96605495D01*
X177729111Y-96586578D01*
X177728787Y-96584530D01*
X177725646Y-96564696D01*
X177715583Y-96544946D01*
X177708142Y-96526983D01*
X177701296Y-96505910D01*
X177688275Y-96487989D01*
X177678105Y-96471394D01*
X177668050Y-96451658D01*
X177578342Y-96361950D01*
X177060909Y-95844516D01*
X177060908Y-95844515D01*
X177060901Y-95844509D01*
X177045242Y-95828850D01*
X177038342Y-95821950D01*
X177029649Y-95817520D01*
X177029647Y-95817519D01*
X177018598Y-95811889D01*
X177002015Y-95801726D01*
X176991987Y-95794440D01*
X176991980Y-95794436D01*
X176984090Y-95788704D01*
X176963019Y-95781857D01*
X176945044Y-95774412D01*
X176933999Y-95768784D01*
X176933996Y-95768783D01*
X176925304Y-95764354D01*
X176915667Y-95762827D01*
X176915666Y-95762827D01*
X176903418Y-95760887D01*
X176884506Y-95756346D01*
X176872717Y-95752516D01*
X176872714Y-95752515D01*
X176863433Y-95749500D01*
X176853673Y-95749500D01*
X172824500Y-95749500D01*
X172762500Y-95732887D01*
X172717113Y-95687500D01*
X172700500Y-95625500D01*
X172700500Y-84195365D01*
X172700808Y-84189310D01*
X172700892Y-84188847D01*
X172701067Y-84181728D01*
X172700587Y-84178061D01*
X172700500Y-84174737D01*
X172700500Y-83846323D01*
X172700500Y-83836567D01*
X172693655Y-83815501D01*
X172689111Y-83796575D01*
X172687172Y-83784332D01*
X172685646Y-83774696D01*
X172675585Y-83754951D01*
X172668142Y-83736982D01*
X172661296Y-83715911D01*
X172648269Y-83697980D01*
X172638107Y-83681396D01*
X172632481Y-83670354D01*
X172632480Y-83670353D01*
X172628050Y-83661658D01*
X172605486Y-83639094D01*
X172605484Y-83639091D01*
X172549378Y-83582985D01*
X172518051Y-83530135D01*
X172440635Y-83265624D01*
X172439045Y-83257890D01*
X172438937Y-83257917D01*
X172437140Y-83250628D01*
X172436237Y-83243182D01*
X172428439Y-83222624D01*
X172425385Y-83213518D01*
X172414835Y-83177468D01*
X172396995Y-83137995D01*
X172397071Y-83137960D01*
X172392714Y-83128421D01*
X172382882Y-83102495D01*
X172382880Y-83102491D01*
X172380220Y-83095477D01*
X172290483Y-82965470D01*
X172284872Y-82960499D01*
X172177856Y-82865692D01*
X172177854Y-82865690D01*
X172172240Y-82860717D01*
X172165595Y-82857229D01*
X172165593Y-82857228D01*
X172039006Y-82790789D01*
X172039002Y-82790787D01*
X172032365Y-82787304D01*
X172025087Y-82785510D01*
X172025084Y-82785509D01*
X171886267Y-82751294D01*
X171886260Y-82751293D01*
X171878985Y-82749500D01*
X171721015Y-82749500D01*
X171713740Y-82751292D01*
X171713732Y-82751294D01*
X171574915Y-82785509D01*
X171574909Y-82785510D01*
X171567635Y-82787304D01*
X171561000Y-82790786D01*
X171560993Y-82790789D01*
X171434406Y-82857228D01*
X171434400Y-82857231D01*
X171427760Y-82860717D01*
X171422148Y-82865687D01*
X171422143Y-82865692D01*
X171315127Y-82960499D01*
X171315122Y-82960503D01*
X171309517Y-82965470D01*
X171305262Y-82971634D01*
X171305257Y-82971640D01*
X171224043Y-83089300D01*
X171224040Y-83089303D01*
X171219780Y-83095477D01*
X171217120Y-83102488D01*
X171217118Y-83102494D01*
X171166423Y-83236167D01*
X171163763Y-83243182D01*
X171162859Y-83250622D01*
X171162858Y-83250629D01*
X171146070Y-83388896D01*
X171144722Y-83400000D01*
X171145626Y-83407445D01*
X171162858Y-83549370D01*
X171162859Y-83549375D01*
X171163763Y-83556818D01*
X171166422Y-83563831D01*
X171166423Y-83563832D01*
X171211712Y-83683251D01*
X171219780Y-83704523D01*
X171224043Y-83710699D01*
X171283318Y-83796575D01*
X171309517Y-83834530D01*
X171322829Y-83846323D01*
X171332947Y-83855287D01*
X171337311Y-83859344D01*
X171350668Y-83872375D01*
X171365981Y-83887315D01*
X171369589Y-83889941D01*
X171378662Y-83896546D01*
X171387913Y-83903982D01*
X171427760Y-83939283D01*
X171454198Y-83953158D01*
X171469542Y-83962699D01*
X171848476Y-84238535D01*
X171886010Y-84282541D01*
X171899500Y-84338786D01*
X171899500Y-95625500D01*
X171882887Y-95687500D01*
X171837500Y-95732887D01*
X171775500Y-95749500D01*
X161375231Y-95749500D01*
X161324336Y-95738574D01*
X161291452Y-95714375D01*
X161290483Y-95715470D01*
X161177856Y-95615692D01*
X161177854Y-95615690D01*
X161172240Y-95610717D01*
X161165595Y-95607229D01*
X161165593Y-95607228D01*
X161039006Y-95540789D01*
X161039002Y-95540787D01*
X161032365Y-95537304D01*
X161025087Y-95535510D01*
X161025084Y-95535509D01*
X160886267Y-95501294D01*
X160886260Y-95501293D01*
X160878985Y-95499500D01*
X160721015Y-95499500D01*
X160713740Y-95501292D01*
X160713732Y-95501294D01*
X160574915Y-95535509D01*
X160574909Y-95535510D01*
X160567635Y-95537304D01*
X160561000Y-95540786D01*
X160560993Y-95540789D01*
X160434406Y-95607228D01*
X160434400Y-95607231D01*
X160427760Y-95610717D01*
X160422148Y-95615687D01*
X160422143Y-95615692D01*
X160309517Y-95715470D01*
X160308547Y-95714375D01*
X160275664Y-95738574D01*
X160224769Y-95749500D01*
X155863433Y-95749500D01*
X155736567Y-95749500D01*
X155727288Y-95752514D01*
X155727285Y-95752515D01*
X155715492Y-95756347D01*
X155696582Y-95760886D01*
X155674696Y-95764354D01*
X155666009Y-95768779D01*
X155666000Y-95768783D01*
X155654954Y-95774412D01*
X155636987Y-95781854D01*
X155625196Y-95785685D01*
X155625186Y-95785689D01*
X155615910Y-95788704D01*
X155608018Y-95794437D01*
X155608008Y-95794443D01*
X155597983Y-95801727D01*
X155581400Y-95811890D01*
X155570355Y-95817517D01*
X155570347Y-95817522D01*
X155561658Y-95821950D01*
X155554757Y-95828850D01*
X155554755Y-95828852D01*
X155539098Y-95844509D01*
X155539091Y-95844516D01*
X155539091Y-95844517D01*
X154744516Y-96639091D01*
X154744513Y-96639094D01*
X154728851Y-96654755D01*
X154728846Y-96654761D01*
X154721950Y-96661658D01*
X154717520Y-96670349D01*
X154717515Y-96670358D01*
X154711890Y-96681398D01*
X154701731Y-96697976D01*
X154694442Y-96708009D01*
X154694437Y-96708018D01*
X154688704Y-96715910D01*
X154685690Y-96725184D01*
X154685685Y-96725195D01*
X154681854Y-96736987D01*
X154674412Y-96754954D01*
X154668783Y-96766000D01*
X154668779Y-96766009D01*
X154664354Y-96774696D01*
X154662827Y-96784330D01*
X154662828Y-96784330D01*
X154660887Y-96796582D01*
X154656347Y-96815492D01*
X154652515Y-96827285D01*
X154652514Y-96827288D01*
X154649500Y-96836567D01*
X154649500Y-96846327D01*
X154649500Y-97094902D01*
X154645449Y-97126339D01*
X154441632Y-97904004D01*
X154440222Y-97909383D01*
X154439793Y-97914916D01*
X154438900Y-97920224D01*
X154432564Y-97943602D01*
X154416424Y-97986162D01*
X154416423Y-97986167D01*
X154413763Y-97993182D01*
X154412859Y-98000624D01*
X154412858Y-98000630D01*
X154396149Y-98138240D01*
X154394722Y-98150000D01*
X129724970Y-98150000D01*
X141388152Y-86486819D01*
X141428381Y-86459939D01*
X141475834Y-86450500D01*
X162998144Y-86450500D01*
X163001724Y-86450748D01*
X163007765Y-86452773D01*
X163054079Y-86450632D01*
X163059806Y-86450500D01*
X163072111Y-86450500D01*
X163077844Y-86450500D01*
X163083478Y-86449445D01*
X163084351Y-86449365D01*
X163090072Y-86448967D01*
X163119992Y-86447585D01*
X163130506Y-86442941D01*
X163137908Y-86441201D01*
X163142038Y-86439922D01*
X163149135Y-86437172D01*
X163160433Y-86435061D01*
X163183144Y-86420998D01*
X163198319Y-86412999D01*
X163222765Y-86402206D01*
X163230892Y-86394077D01*
X163237175Y-86389774D01*
X163240555Y-86387096D01*
X163246176Y-86381970D01*
X163255952Y-86375919D01*
X163272053Y-86354595D01*
X163283314Y-86341655D01*
X164653764Y-84971205D01*
X164686587Y-84947682D01*
X165262053Y-84663846D01*
X165266706Y-84660336D01*
X165271668Y-84657280D01*
X165271779Y-84657460D01*
X165293781Y-84644879D01*
X165327625Y-84630861D01*
X165327625Y-84630860D01*
X165327627Y-84630860D01*
X165328797Y-84633684D01*
X165375536Y-84621178D01*
X165437521Y-84637803D01*
X165482893Y-84683188D01*
X165499500Y-84745178D01*
X165499500Y-89554822D01*
X165482893Y-89616812D01*
X165437521Y-89662197D01*
X165375536Y-89678822D01*
X165328794Y-89666314D01*
X165327625Y-89669139D01*
X165201223Y-89616782D01*
X165201220Y-89616781D01*
X165193709Y-89613670D01*
X165185649Y-89612608D01*
X165185646Y-89612608D01*
X165058059Y-89595811D01*
X165050000Y-89594750D01*
X165041941Y-89595811D01*
X164914353Y-89612608D01*
X164914348Y-89612609D01*
X164906291Y-89613670D01*
X164898781Y-89616780D01*
X164898776Y-89616782D01*
X164779885Y-89666028D01*
X164779883Y-89666029D01*
X164772375Y-89669139D01*
X164765933Y-89674082D01*
X164765928Y-89674085D01*
X164663821Y-89752435D01*
X164663817Y-89752438D01*
X164657379Y-89757379D01*
X164652438Y-89763817D01*
X164652435Y-89763821D01*
X164574083Y-89865930D01*
X164574078Y-89865937D01*
X164569139Y-89872375D01*
X164566031Y-89879876D01*
X164566029Y-89879881D01*
X164552772Y-89911885D01*
X164539788Y-89935551D01*
X164537135Y-89939339D01*
X164537129Y-89939348D01*
X164533698Y-89944249D01*
X164531270Y-89949716D01*
X164531267Y-89949723D01*
X164386498Y-90275815D01*
X164359366Y-90314637D01*
X164319657Y-90340454D01*
X164273165Y-90349500D01*
X161395547Y-90349500D01*
X161363568Y-90345305D01*
X160758436Y-90183781D01*
X160758432Y-90183780D01*
X160753055Y-90182345D01*
X160747507Y-90181892D01*
X160746356Y-90181694D01*
X160720021Y-90174068D01*
X160701214Y-90166278D01*
X160701210Y-90166277D01*
X160693709Y-90163170D01*
X160685655Y-90162109D01*
X160685653Y-90162109D01*
X160558059Y-90145311D01*
X160550000Y-90144250D01*
X160541941Y-90145311D01*
X160414353Y-90162108D01*
X160414348Y-90162109D01*
X160406291Y-90163170D01*
X160398782Y-90166280D01*
X160398779Y-90166281D01*
X160380899Y-90173687D01*
X160372456Y-90177184D01*
X160347993Y-90183850D01*
X160348042Y-90184053D01*
X160342367Y-90185401D01*
X160336601Y-90186210D01*
X160331087Y-90188081D01*
X160331084Y-90188082D01*
X159728980Y-90392422D01*
X159689130Y-90399000D01*
X158410869Y-90399000D01*
X158371019Y-90392422D01*
X157768916Y-90188082D01*
X157768909Y-90188080D01*
X157763398Y-90186210D01*
X157757631Y-90185401D01*
X157751957Y-90184053D01*
X157752005Y-90183849D01*
X157727540Y-90177183D01*
X157701223Y-90166282D01*
X157701220Y-90166281D01*
X157693709Y-90163170D01*
X157685649Y-90162108D01*
X157685646Y-90162108D01*
X157558059Y-90145311D01*
X157550000Y-90144250D01*
X157541941Y-90145311D01*
X157414353Y-90162108D01*
X157414348Y-90162109D01*
X157406291Y-90163170D01*
X157398781Y-90166280D01*
X157398776Y-90166282D01*
X157279885Y-90215528D01*
X157279883Y-90215529D01*
X157272375Y-90218639D01*
X157265933Y-90223582D01*
X157265928Y-90223585D01*
X157163821Y-90301935D01*
X157163817Y-90301938D01*
X157157379Y-90306879D01*
X157152438Y-90313317D01*
X157152435Y-90313321D01*
X157074085Y-90415428D01*
X157074082Y-90415433D01*
X157069139Y-90421875D01*
X157066029Y-90429383D01*
X157066028Y-90429385D01*
X157016782Y-90548276D01*
X157016781Y-90548280D01*
X157013670Y-90555791D01*
X157012609Y-90563848D01*
X157012608Y-90563853D01*
X157001421Y-90648830D01*
X156994750Y-90699500D01*
X157013670Y-90843209D01*
X157016781Y-90850720D01*
X157016782Y-90850723D01*
X157030441Y-90883699D01*
X157069139Y-90977125D01*
X157074084Y-90983569D01*
X157074085Y-90983571D01*
X157117326Y-91039923D01*
X157157379Y-91092121D01*
X157272375Y-91180361D01*
X157406291Y-91235830D01*
X157550000Y-91254750D01*
X157693709Y-91235830D01*
X157727545Y-91221814D01*
X157752007Y-91215149D01*
X157751959Y-91214945D01*
X157757626Y-91213598D01*
X157763399Y-91212789D01*
X158371016Y-91006577D01*
X158410866Y-91000000D01*
X159689133Y-91000000D01*
X159728982Y-91006577D01*
X160336600Y-91212789D01*
X160342373Y-91213598D01*
X160348040Y-91214945D01*
X160347991Y-91215149D01*
X160372454Y-91221814D01*
X160398775Y-91232717D01*
X160406291Y-91235830D01*
X160550000Y-91254750D01*
X160693709Y-91235830D01*
X160729063Y-91221185D01*
X160743633Y-91216186D01*
X160774397Y-91207728D01*
X161360348Y-90960268D01*
X161408590Y-90950500D01*
X164498144Y-90950500D01*
X164501724Y-90950748D01*
X164507765Y-90952773D01*
X164554079Y-90950632D01*
X164559806Y-90950500D01*
X164572111Y-90950500D01*
X164577844Y-90950500D01*
X164583478Y-90949445D01*
X164584351Y-90949365D01*
X164590072Y-90948967D01*
X164619992Y-90947585D01*
X164630506Y-90942941D01*
X164637908Y-90941201D01*
X164642027Y-90939926D01*
X164649133Y-90937173D01*
X164660433Y-90935061D01*
X164670205Y-90929009D01*
X164680864Y-90924881D01*
X164744111Y-90917889D01*
X164802499Y-90943186D01*
X164840651Y-90994112D01*
X164848522Y-91057256D01*
X164827223Y-91108348D01*
X164828152Y-91108885D01*
X164824085Y-91115928D01*
X164819139Y-91122375D01*
X164816029Y-91129883D01*
X164816028Y-91129885D01*
X164766782Y-91248776D01*
X164766780Y-91248781D01*
X164763670Y-91256291D01*
X164762609Y-91264348D01*
X164762608Y-91264353D01*
X164745811Y-91391941D01*
X164744750Y-91400000D01*
X164763670Y-91543709D01*
X164819139Y-91677625D01*
X164907379Y-91792621D01*
X165022375Y-91880861D01*
X165156291Y-91936330D01*
X165300000Y-91955250D01*
X165443709Y-91936330D01*
X165577625Y-91880861D01*
X165692621Y-91792621D01*
X165780861Y-91677625D01*
X165795638Y-91641945D01*
X165800962Y-91630721D01*
X165819352Y-91596499D01*
X165984793Y-91156435D01*
X166009224Y-91116537D01*
X166015492Y-91109661D01*
X166019409Y-91105560D01*
X166032174Y-91092797D01*
X166035422Y-91088054D01*
X166035965Y-91087401D01*
X166039733Y-91083072D01*
X166052174Y-91069425D01*
X166052173Y-91069425D01*
X166059916Y-91060933D01*
X166064067Y-91050214D01*
X166068070Y-91043751D01*
X166070088Y-91039923D01*
X166073162Y-91032960D01*
X166079657Y-91023480D01*
X166085774Y-90997471D01*
X166090843Y-90981097D01*
X166100500Y-90956173D01*
X166100500Y-90944680D01*
X166101895Y-90937218D01*
X166102396Y-90932904D01*
X166102747Y-90925308D01*
X166105379Y-90914119D01*
X166101689Y-90887667D01*
X166100500Y-90870535D01*
X166100500Y-83400000D01*
X166494750Y-83400000D01*
X166495811Y-83408059D01*
X166512608Y-83535648D01*
X166512609Y-83535653D01*
X166513670Y-83543709D01*
X166516778Y-83551213D01*
X166516781Y-83551223D01*
X166527683Y-83577541D01*
X166534351Y-83602006D01*
X166534554Y-83601958D01*
X166535900Y-83607624D01*
X166536710Y-83613399D01*
X166538582Y-83618915D01*
X166538584Y-83618923D01*
X166667498Y-83998776D01*
X166732003Y-84188847D01*
X166742922Y-84221019D01*
X166749500Y-84260869D01*
X166749500Y-94348144D01*
X166749251Y-94351724D01*
X166747227Y-94357765D01*
X166747757Y-94369239D01*
X166747757Y-94369243D01*
X166749368Y-94404080D01*
X166749500Y-94409806D01*
X166749500Y-94427844D01*
X166750552Y-94433471D01*
X166750635Y-94434368D01*
X166751031Y-94440072D01*
X166751884Y-94458516D01*
X166752415Y-94469992D01*
X166757054Y-94480499D01*
X166758792Y-94487888D01*
X166760082Y-94492052D01*
X166762827Y-94499137D01*
X166764939Y-94510433D01*
X166779001Y-94533146D01*
X166787003Y-94548327D01*
X166793152Y-94562254D01*
X166793153Y-94562256D01*
X166797794Y-94572765D01*
X166805917Y-94580888D01*
X166810209Y-94587153D01*
X166812915Y-94590569D01*
X166818031Y-94596181D01*
X166824081Y-94605952D01*
X166833249Y-94612875D01*
X166840993Y-94621370D01*
X166838368Y-94623762D01*
X166867655Y-94662956D01*
X167010801Y-95043709D01*
X167030648Y-95096500D01*
X167032609Y-95100149D01*
X167049036Y-95130723D01*
X167054364Y-95141957D01*
X167066027Y-95170113D01*
X167069139Y-95177625D01*
X167074082Y-95184066D01*
X167074085Y-95184072D01*
X167152435Y-95286178D01*
X167157379Y-95292621D01*
X167272375Y-95380861D01*
X167406291Y-95436330D01*
X167550000Y-95455250D01*
X167693709Y-95436330D01*
X167827625Y-95380861D01*
X167942621Y-95292621D01*
X168030861Y-95177625D01*
X168086330Y-95043709D01*
X168105250Y-94900000D01*
X168086330Y-94756291D01*
X168030861Y-94622375D01*
X167942621Y-94507379D01*
X167878942Y-94458516D01*
X167834071Y-94424085D01*
X167834069Y-94424084D01*
X167827625Y-94419139D01*
X167820119Y-94416030D01*
X167820114Y-94416027D01*
X167788116Y-94402774D01*
X167764441Y-94389785D01*
X167760659Y-94387136D01*
X167760648Y-94387130D01*
X167755749Y-94383699D01*
X167750276Y-94381269D01*
X167750274Y-94381268D01*
X167424185Y-94236499D01*
X167385363Y-94209367D01*
X167359546Y-94169658D01*
X167350500Y-94123166D01*
X167350500Y-84260868D01*
X167357078Y-84221018D01*
X167432501Y-83998776D01*
X167563289Y-83613398D01*
X167564098Y-83607622D01*
X167565445Y-83601958D01*
X167565649Y-83602006D01*
X167572315Y-83577543D01*
X167572316Y-83577541D01*
X167586330Y-83543709D01*
X167605250Y-83400000D01*
X167586330Y-83256291D01*
X167530861Y-83122375D01*
X167442621Y-83007379D01*
X167396045Y-82971640D01*
X167334071Y-82924085D01*
X167334069Y-82924084D01*
X167327625Y-82919139D01*
X167291592Y-82904214D01*
X167201223Y-82866782D01*
X167201220Y-82866781D01*
X167193709Y-82863670D01*
X167185649Y-82862608D01*
X167185646Y-82862608D01*
X167058059Y-82845811D01*
X167050000Y-82844750D01*
X167041941Y-82845811D01*
X166914353Y-82862608D01*
X166914348Y-82862609D01*
X166906291Y-82863670D01*
X166898781Y-82866780D01*
X166898776Y-82866782D01*
X166779885Y-82916028D01*
X166779883Y-82916029D01*
X166772375Y-82919139D01*
X166765933Y-82924082D01*
X166765928Y-82924085D01*
X166663821Y-83002435D01*
X166663817Y-83002438D01*
X166657379Y-83007379D01*
X166652438Y-83013817D01*
X166652435Y-83013821D01*
X166574085Y-83115928D01*
X166574082Y-83115933D01*
X166569139Y-83122375D01*
X166566029Y-83129883D01*
X166566028Y-83129885D01*
X166516782Y-83248776D01*
X166516780Y-83248781D01*
X166513670Y-83256291D01*
X166512609Y-83264348D01*
X166512608Y-83264353D01*
X166512441Y-83265624D01*
X166494750Y-83400000D01*
X166100500Y-83400000D01*
X166100500Y-78701857D01*
X166100748Y-78698276D01*
X166102773Y-78692236D01*
X166100632Y-78645921D01*
X166100500Y-78640195D01*
X166100500Y-78627894D01*
X166100500Y-78622156D01*
X166099444Y-78616512D01*
X166099365Y-78615656D01*
X166098967Y-78609926D01*
X166098115Y-78591489D01*
X166097585Y-78580009D01*
X166092942Y-78569493D01*
X166091200Y-78562087D01*
X166089923Y-78557964D01*
X166087172Y-78550864D01*
X166085061Y-78539567D01*
X166071001Y-78516859D01*
X166062995Y-78501671D01*
X166056847Y-78487747D01*
X166052206Y-78477235D01*
X166044078Y-78469107D01*
X166039783Y-78462837D01*
X166037083Y-78459429D01*
X166031968Y-78453818D01*
X166025919Y-78444048D01*
X166004602Y-78427950D01*
X165991648Y-78416677D01*
X165549155Y-77974184D01*
X165546797Y-77971474D01*
X165543958Y-77965772D01*
X165535466Y-77958030D01*
X165535465Y-77958029D01*
X165509681Y-77934524D01*
X165505539Y-77930568D01*
X165496852Y-77921881D01*
X165492797Y-77917826D01*
X165488066Y-77914584D01*
X165487386Y-77914020D01*
X165483067Y-77910262D01*
X165469423Y-77897823D01*
X165469421Y-77897821D01*
X165460933Y-77890084D01*
X165450220Y-77885933D01*
X165443780Y-77881946D01*
X165439902Y-77879902D01*
X165432958Y-77876835D01*
X165423481Y-77870344D01*
X165412302Y-77867714D01*
X165412294Y-77867711D01*
X165397484Y-77864228D01*
X165381086Y-77859150D01*
X165366891Y-77853651D01*
X165366885Y-77853649D01*
X165356173Y-77849500D01*
X165344682Y-77849500D01*
X165337208Y-77848103D01*
X165332905Y-77847603D01*
X165325302Y-77847251D01*
X165314119Y-77844621D01*
X165302741Y-77846208D01*
X165302737Y-77846208D01*
X165287667Y-77848311D01*
X165270535Y-77849500D01*
X159225833Y-77849500D01*
X159178380Y-77840061D01*
X159138152Y-77813181D01*
X158886819Y-77561848D01*
X158859939Y-77521620D01*
X158850500Y-77474167D01*
X158850500Y-75760868D01*
X158857078Y-75721018D01*
X159063289Y-75113398D01*
X159064098Y-75107622D01*
X159065445Y-75101958D01*
X159065649Y-75102006D01*
X159072315Y-75077543D01*
X159072316Y-75077541D01*
X159086330Y-75043709D01*
X159105250Y-74900000D01*
X159086330Y-74756291D01*
X159030861Y-74622375D01*
X158942621Y-74507379D01*
X158827625Y-74419139D01*
X158791592Y-74404214D01*
X158701223Y-74366782D01*
X158701220Y-74366781D01*
X158693709Y-74363670D01*
X158685649Y-74362608D01*
X158685646Y-74362608D01*
X158558059Y-74345811D01*
X158550000Y-74344750D01*
X158541941Y-74345811D01*
X158414353Y-74362608D01*
X158414348Y-74362609D01*
X158406291Y-74363670D01*
X158398781Y-74366780D01*
X158398776Y-74366782D01*
X158279885Y-74416028D01*
X158279883Y-74416029D01*
X158272375Y-74419139D01*
X158265933Y-74424082D01*
X158265928Y-74424085D01*
X158163821Y-74502435D01*
X158163817Y-74502438D01*
X158157379Y-74507379D01*
X158152438Y-74513817D01*
X158152435Y-74513821D01*
X158074085Y-74615928D01*
X158074082Y-74615933D01*
X158069139Y-74622375D01*
X158066029Y-74629883D01*
X158066028Y-74629885D01*
X158016782Y-74748776D01*
X158016780Y-74748781D01*
X158013670Y-74756291D01*
X158012609Y-74764348D01*
X158012608Y-74764353D01*
X157995811Y-74891941D01*
X157994750Y-74900000D01*
X157995811Y-74908059D01*
X158012608Y-75035648D01*
X158012609Y-75035653D01*
X158013670Y-75043709D01*
X158016778Y-75051213D01*
X158016781Y-75051223D01*
X158027683Y-75077541D01*
X158034351Y-75102006D01*
X158034554Y-75101958D01*
X158035900Y-75107624D01*
X158036710Y-75113399D01*
X158038582Y-75118915D01*
X158038584Y-75118923D01*
X158242922Y-75721019D01*
X158249500Y-75760869D01*
X158249500Y-77598144D01*
X158249251Y-77601724D01*
X158247227Y-77607765D01*
X158247757Y-77619239D01*
X158247757Y-77619243D01*
X158249368Y-77654080D01*
X158249500Y-77659806D01*
X158249500Y-77677844D01*
X158250552Y-77683471D01*
X158250635Y-77684368D01*
X158251031Y-77690072D01*
X158251884Y-77708516D01*
X158252415Y-77719992D01*
X158257054Y-77730499D01*
X158258792Y-77737888D01*
X158260082Y-77742052D01*
X158262827Y-77749137D01*
X158264939Y-77760433D01*
X158279001Y-77783146D01*
X158287003Y-77798327D01*
X158293152Y-77812254D01*
X158293153Y-77812256D01*
X158297794Y-77822765D01*
X158305917Y-77830888D01*
X158310209Y-77837153D01*
X158312915Y-77840569D01*
X158318031Y-77846181D01*
X158324081Y-77855952D01*
X158345396Y-77872048D01*
X158358351Y-77883322D01*
X158800841Y-78325812D01*
X158803202Y-78328525D01*
X158806042Y-78334228D01*
X158814530Y-78341966D01*
X158814531Y-78341967D01*
X158840317Y-78365474D01*
X158844458Y-78369429D01*
X158857203Y-78382174D01*
X158861930Y-78385412D01*
X158862621Y-78385986D01*
X158866928Y-78389733D01*
X158889067Y-78409916D01*
X158899784Y-78414067D01*
X158906250Y-78418071D01*
X158910065Y-78420082D01*
X158917035Y-78423159D01*
X158926520Y-78429657D01*
X158951578Y-78435550D01*
X158952514Y-78435771D01*
X158968916Y-78440849D01*
X158993827Y-78450500D01*
X159005320Y-78450500D01*
X159012789Y-78451896D01*
X159017095Y-78452396D01*
X159024691Y-78452747D01*
X159035881Y-78455379D01*
X159062332Y-78451689D01*
X159079465Y-78450500D01*
X165124167Y-78450500D01*
X165171620Y-78459939D01*
X165211848Y-78486819D01*
X165463181Y-78738152D01*
X165490061Y-78778380D01*
X165499500Y-78825833D01*
X165499500Y-83554822D01*
X165482893Y-83616812D01*
X165437521Y-83662197D01*
X165375536Y-83678822D01*
X165328794Y-83666314D01*
X165327625Y-83669139D01*
X165201223Y-83616782D01*
X165201220Y-83616781D01*
X165193709Y-83613670D01*
X165185649Y-83612608D01*
X165185646Y-83612608D01*
X165058059Y-83595811D01*
X165050000Y-83594750D01*
X165041941Y-83595811D01*
X164914353Y-83612608D01*
X164914348Y-83612609D01*
X164906291Y-83613670D01*
X164898781Y-83616780D01*
X164898776Y-83616782D01*
X164779885Y-83666028D01*
X164779883Y-83666029D01*
X164772375Y-83669139D01*
X164753984Y-83683251D01*
X164663821Y-83752435D01*
X164663817Y-83752438D01*
X164657379Y-83757379D01*
X164652438Y-83763817D01*
X164652435Y-83763821D01*
X164574083Y-83865930D01*
X164574078Y-83865937D01*
X164569139Y-83872375D01*
X164566031Y-83879876D01*
X164566028Y-83879883D01*
X164555122Y-83906212D01*
X164542543Y-83928211D01*
X164542723Y-83928322D01*
X164539659Y-83933295D01*
X164536153Y-83937945D01*
X164533576Y-83943170D01*
X164252316Y-84513409D01*
X164228789Y-84546238D01*
X162961848Y-85813181D01*
X162921620Y-85840061D01*
X162874167Y-85849500D01*
X141351864Y-85849500D01*
X141348278Y-85849251D01*
X141342236Y-85847226D01*
X141330760Y-85847756D01*
X141330757Y-85847756D01*
X141295900Y-85849368D01*
X141290174Y-85849500D01*
X141272156Y-85849500D01*
X141266540Y-85850548D01*
X141265632Y-85850633D01*
X141259939Y-85851028D01*
X141241489Y-85851881D01*
X141241478Y-85851883D01*
X141230009Y-85852414D01*
X141219504Y-85857052D01*
X141212121Y-85858789D01*
X141207959Y-85860078D01*
X141200861Y-85862827D01*
X141189567Y-85864939D01*
X141179798Y-85870986D01*
X141179796Y-85870988D01*
X141166858Y-85878999D01*
X141151679Y-85887000D01*
X141142936Y-85890860D01*
X141137747Y-85893152D01*
X141137745Y-85893152D01*
X141127235Y-85897794D01*
X141119109Y-85905919D01*
X141112844Y-85910211D01*
X141109422Y-85912921D01*
X141103813Y-85918033D01*
X141094048Y-85924081D01*
X141087124Y-85933248D01*
X141087122Y-85933251D01*
X141077949Y-85945398D01*
X141066679Y-85958348D01*
X118946242Y-108078785D01*
X118913413Y-108102312D01*
X118343169Y-108383575D01*
X118343162Y-108383579D01*
X118337944Y-108386153D01*
X118333294Y-108389659D01*
X118328327Y-108392720D01*
X118328216Y-108392541D01*
X118306212Y-108405122D01*
X118279883Y-108416028D01*
X118279876Y-108416031D01*
X118272375Y-108419139D01*
X118265937Y-108424078D01*
X118265930Y-108424083D01*
X118163821Y-108502435D01*
X118163817Y-108502438D01*
X118157379Y-108507379D01*
X118152438Y-108513817D01*
X118152435Y-108513821D01*
X118074085Y-108615928D01*
X118074082Y-108615933D01*
X118069139Y-108622375D01*
X118066029Y-108629883D01*
X118066028Y-108629885D01*
X118016782Y-108748776D01*
X118016780Y-108748781D01*
X118013670Y-108756291D01*
X118012609Y-108764348D01*
X118012608Y-108764353D01*
X118004211Y-108828139D01*
X117994750Y-108900000D01*
X100668436Y-108900000D01*
X100847682Y-108536587D01*
X100871205Y-108503764D01*
X125138151Y-84236819D01*
X125178380Y-84209939D01*
X125225833Y-84200500D01*
X161231800Y-84200500D01*
X161276458Y-84208821D01*
X161315123Y-84232667D01*
X161537098Y-84434071D01*
X161654428Y-84540528D01*
X161656879Y-84542020D01*
X161656992Y-84542118D01*
X161657379Y-84542621D01*
X161659087Y-84543932D01*
X161659091Y-84543935D01*
X161759756Y-84621178D01*
X161772375Y-84630861D01*
X161906291Y-84686330D01*
X162050000Y-84705250D01*
X162193709Y-84686330D01*
X162327625Y-84630861D01*
X162442621Y-84542621D01*
X162530861Y-84427625D01*
X162586330Y-84293709D01*
X162605250Y-84150000D01*
X162586330Y-84006291D01*
X162530861Y-83872375D01*
X162442621Y-83757379D01*
X162327625Y-83669139D01*
X162276093Y-83647794D01*
X162201223Y-83616782D01*
X162201220Y-83616781D01*
X162193709Y-83613670D01*
X162185649Y-83612608D01*
X162185646Y-83612608D01*
X162058054Y-83595810D01*
X162058051Y-83595810D01*
X162050000Y-83594750D01*
X162044578Y-83595463D01*
X162042722Y-83595372D01*
X162038329Y-83594500D01*
X161356912Y-83594500D01*
X161350937Y-83595688D01*
X161350932Y-83595689D01*
X161343755Y-83597117D01*
X161319563Y-83599500D01*
X125101856Y-83599500D01*
X125098275Y-83599251D01*
X125092235Y-83597227D01*
X125080759Y-83597757D01*
X125080756Y-83597757D01*
X125045920Y-83599368D01*
X125040194Y-83599500D01*
X125022156Y-83599500D01*
X125016530Y-83600551D01*
X125015639Y-83600634D01*
X125009932Y-83601031D01*
X124991481Y-83601884D01*
X124991477Y-83601884D01*
X124980008Y-83602415D01*
X124969502Y-83607053D01*
X124962139Y-83608785D01*
X124957917Y-83610092D01*
X124950852Y-83612828D01*
X124939567Y-83614939D01*
X124929803Y-83620983D01*
X124929798Y-83620986D01*
X124916858Y-83628998D01*
X124901677Y-83637000D01*
X124887746Y-83643151D01*
X124887739Y-83643155D01*
X124877235Y-83647794D01*
X124869113Y-83655914D01*
X124862851Y-83660205D01*
X124859422Y-83662921D01*
X124853813Y-83668033D01*
X124844048Y-83674081D01*
X124837124Y-83683248D01*
X124837122Y-83683251D01*
X124827949Y-83695398D01*
X124816679Y-83708348D01*
X100446242Y-108078785D01*
X100413413Y-108102312D01*
X99843169Y-108383575D01*
X99843162Y-108383579D01*
X99837944Y-108386153D01*
X99833294Y-108389659D01*
X99828327Y-108392720D01*
X99828216Y-108392541D01*
X99806212Y-108405122D01*
X99779883Y-108416028D01*
X99779876Y-108416031D01*
X99772375Y-108419139D01*
X99765937Y-108424078D01*
X99765930Y-108424083D01*
X99663821Y-108502435D01*
X99663817Y-108502438D01*
X99657379Y-108507379D01*
X99652438Y-108513817D01*
X99652435Y-108513821D01*
X99574085Y-108615928D01*
X99574082Y-108615933D01*
X99569139Y-108622375D01*
X99566029Y-108629883D01*
X99566028Y-108629885D01*
X99516782Y-108748776D01*
X99516780Y-108748781D01*
X99513670Y-108756291D01*
X99512609Y-108764348D01*
X99512608Y-108764353D01*
X99504211Y-108828139D01*
X99494750Y-108900000D01*
X90060500Y-108900000D01*
X90060500Y-90699500D01*
X96494750Y-90699500D01*
X96513670Y-90843209D01*
X96516781Y-90850720D01*
X96516782Y-90850723D01*
X96530441Y-90883699D01*
X96569139Y-90977125D01*
X96574084Y-90983569D01*
X96574085Y-90983571D01*
X96617326Y-91039923D01*
X96657379Y-91092121D01*
X96772375Y-91180361D01*
X96906291Y-91235830D01*
X97050000Y-91254750D01*
X97193709Y-91235830D01*
X97327625Y-91180361D01*
X97442621Y-91092121D01*
X97530861Y-90977125D01*
X97586330Y-90843209D01*
X97605250Y-90699500D01*
X97586330Y-90555791D01*
X97583218Y-90548279D01*
X97572314Y-90521954D01*
X97565649Y-90497492D01*
X97565445Y-90497541D01*
X97564098Y-90491875D01*
X97563289Y-90486101D01*
X97386303Y-89964598D01*
X97379726Y-89924749D01*
X97386304Y-89884899D01*
X97431259Y-89752435D01*
X97563289Y-89363398D01*
X97564098Y-89357622D01*
X97565445Y-89351958D01*
X97565649Y-89352006D01*
X97572315Y-89327543D01*
X97572316Y-89327541D01*
X97586330Y-89293709D01*
X97605250Y-89150000D01*
X97586330Y-89006291D01*
X97530861Y-88872375D01*
X97442621Y-88757379D01*
X97327625Y-88669139D01*
X97291592Y-88654214D01*
X97201223Y-88616782D01*
X97201220Y-88616781D01*
X97193709Y-88613670D01*
X97185649Y-88612608D01*
X97185646Y-88612608D01*
X97058059Y-88595811D01*
X97050000Y-88594750D01*
X97041941Y-88595811D01*
X96914353Y-88612608D01*
X96914348Y-88612609D01*
X96906291Y-88613670D01*
X96898781Y-88616780D01*
X96898776Y-88616782D01*
X96779885Y-88666028D01*
X96779883Y-88666029D01*
X96772375Y-88669139D01*
X96765933Y-88674082D01*
X96765928Y-88674085D01*
X96663821Y-88752435D01*
X96663817Y-88752438D01*
X96657379Y-88757379D01*
X96652438Y-88763817D01*
X96652435Y-88763821D01*
X96574085Y-88865928D01*
X96574082Y-88865933D01*
X96569139Y-88872375D01*
X96566029Y-88879883D01*
X96566028Y-88879885D01*
X96516782Y-88998776D01*
X96516780Y-88998781D01*
X96513670Y-89006291D01*
X96512609Y-89014348D01*
X96512608Y-89014353D01*
X96495811Y-89141941D01*
X96494750Y-89150000D01*
X96495811Y-89158059D01*
X96512608Y-89285648D01*
X96512609Y-89285653D01*
X96513670Y-89293709D01*
X96516778Y-89301213D01*
X96516781Y-89301223D01*
X96527683Y-89327541D01*
X96534351Y-89352006D01*
X96534554Y-89351958D01*
X96535900Y-89357624D01*
X96536710Y-89363399D01*
X96538582Y-89368915D01*
X96538584Y-89368923D01*
X96713694Y-89884899D01*
X96720272Y-89924749D01*
X96713694Y-89964599D01*
X96538582Y-90480584D01*
X96536710Y-90486101D01*
X96535901Y-90491867D01*
X96534553Y-90497542D01*
X96534350Y-90497493D01*
X96527684Y-90521958D01*
X96516781Y-90548279D01*
X96516781Y-90548280D01*
X96513670Y-90555791D01*
X96512609Y-90563848D01*
X96512608Y-90563853D01*
X96501421Y-90648830D01*
X96494750Y-90699500D01*
X90060500Y-90699500D01*
X90060500Y-69716495D01*
X93617248Y-69716495D01*
X93624705Y-69727884D01*
X93827140Y-69904745D01*
X93831482Y-69908208D01*
X94175775Y-70158351D01*
X94180412Y-70161412D01*
X94545763Y-70379700D01*
X94550634Y-70382321D01*
X94934065Y-70566971D01*
X94939192Y-70569163D01*
X95337612Y-70718692D01*
X95342910Y-70720413D01*
X95753133Y-70833628D01*
X95758568Y-70834869D01*
X96177290Y-70910855D01*
X96182800Y-70911602D01*
X96606668Y-70949751D01*
X96612209Y-70950000D01*
X97037791Y-70950000D01*
X97043331Y-70949751D01*
X97467199Y-70911602D01*
X97472709Y-70910855D01*
X97891431Y-70834869D01*
X97896866Y-70833628D01*
X98307089Y-70720413D01*
X98312387Y-70718692D01*
X98710807Y-70569163D01*
X98715934Y-70566971D01*
X99099365Y-70382321D01*
X99104236Y-70379700D01*
X99469587Y-70161412D01*
X99474224Y-70158351D01*
X99818505Y-69908216D01*
X99822864Y-69904741D01*
X100025295Y-69727882D01*
X100032750Y-69716495D01*
X169574436Y-69716495D01*
X169581893Y-69727884D01*
X169784328Y-69904745D01*
X169788670Y-69908208D01*
X170132963Y-70158351D01*
X170137600Y-70161412D01*
X170502951Y-70379700D01*
X170507822Y-70382321D01*
X170891253Y-70566971D01*
X170896380Y-70569163D01*
X171294800Y-70718692D01*
X171300098Y-70720413D01*
X171710321Y-70833628D01*
X171715756Y-70834869D01*
X172134478Y-70910855D01*
X172139988Y-70911602D01*
X172563856Y-70949751D01*
X172569397Y-70950000D01*
X172994979Y-70950000D01*
X173000519Y-70949751D01*
X173424387Y-70911602D01*
X173429897Y-70910855D01*
X173848619Y-70834869D01*
X173854054Y-70833628D01*
X174264277Y-70720413D01*
X174269575Y-70718692D01*
X174667995Y-70569163D01*
X174673122Y-70566971D01*
X175056553Y-70382321D01*
X175061424Y-70379700D01*
X175426775Y-70161412D01*
X175431412Y-70158351D01*
X175775693Y-69908216D01*
X175780052Y-69904741D01*
X175982483Y-69727882D01*
X175989938Y-69716495D01*
X175983264Y-69704630D01*
X172793730Y-66515095D01*
X172782188Y-66508431D01*
X172770645Y-66515095D01*
X169581110Y-69704630D01*
X169574436Y-69716495D01*
X100032750Y-69716495D01*
X100026076Y-69704630D01*
X96836542Y-66515095D01*
X96825000Y-66508431D01*
X96813457Y-66515095D01*
X93623922Y-69704630D01*
X93617248Y-69716495D01*
X90060500Y-69716495D01*
X90060500Y-66152783D01*
X92020287Y-66152783D01*
X92039380Y-66577924D01*
X92039877Y-66583452D01*
X92097004Y-67005177D01*
X92097998Y-67010654D01*
X92192697Y-67425557D01*
X92194173Y-67430905D01*
X92325678Y-67835637D01*
X92327644Y-67840876D01*
X92494893Y-68232172D01*
X92497310Y-68237193D01*
X92698975Y-68611949D01*
X92701827Y-68616722D01*
X92936267Y-68971885D01*
X92939540Y-68976391D01*
X93204879Y-69309114D01*
X93208533Y-69313296D01*
X93245778Y-69352252D01*
X93257280Y-69359182D01*
X93268932Y-69352512D01*
X96459903Y-66161541D01*
X96466566Y-66150000D01*
X97183431Y-66150000D01*
X97190095Y-66161542D01*
X100381065Y-69352511D01*
X100392719Y-69359182D01*
X100404219Y-69352253D01*
X100441467Y-69313295D01*
X100445119Y-69309115D01*
X100710459Y-68976391D01*
X100713732Y-68971885D01*
X100948172Y-68616722D01*
X100951024Y-68611949D01*
X101152689Y-68237193D01*
X101155106Y-68232172D01*
X101322355Y-67840876D01*
X101324321Y-67835637D01*
X101455826Y-67430905D01*
X101457302Y-67425557D01*
X101552001Y-67010654D01*
X101552995Y-67005177D01*
X101610122Y-66583452D01*
X101610619Y-66577924D01*
X101629713Y-66152783D01*
X167977475Y-66152783D01*
X167996568Y-66577924D01*
X167997065Y-66583452D01*
X168054192Y-67005177D01*
X168055186Y-67010654D01*
X168149885Y-67425557D01*
X168151361Y-67430905D01*
X168282866Y-67835637D01*
X168284832Y-67840876D01*
X168452081Y-68232172D01*
X168454498Y-68237193D01*
X168656163Y-68611949D01*
X168659015Y-68616722D01*
X168893455Y-68971885D01*
X168896728Y-68976391D01*
X169162067Y-69309114D01*
X169165721Y-69313296D01*
X169202966Y-69352252D01*
X169214468Y-69359182D01*
X169226120Y-69352512D01*
X172417091Y-66161541D01*
X172423754Y-66150000D01*
X173140619Y-66150000D01*
X173147283Y-66161542D01*
X176338253Y-69352511D01*
X176349907Y-69359182D01*
X176361407Y-69352253D01*
X176398655Y-69313295D01*
X176402307Y-69309115D01*
X176667647Y-68976391D01*
X176670920Y-68971885D01*
X176905360Y-68616722D01*
X176908212Y-68611949D01*
X177109877Y-68237193D01*
X177112294Y-68232172D01*
X177279543Y-67840876D01*
X177281509Y-67835637D01*
X177413014Y-67430905D01*
X177414490Y-67425557D01*
X177509189Y-67010654D01*
X177510183Y-67005177D01*
X177567310Y-66583452D01*
X177567807Y-66577924D01*
X177586901Y-66152783D01*
X177586901Y-66147217D01*
X177567807Y-65722075D01*
X177567310Y-65716547D01*
X177510183Y-65294822D01*
X177509189Y-65289345D01*
X177414490Y-64874442D01*
X177413014Y-64869094D01*
X177281509Y-64464362D01*
X177279543Y-64459123D01*
X177112294Y-64067827D01*
X177109877Y-64062806D01*
X176908212Y-63688050D01*
X176905360Y-63683277D01*
X176670920Y-63328114D01*
X176667647Y-63323608D01*
X176402308Y-62990885D01*
X176398654Y-62986703D01*
X176361408Y-62947746D01*
X176349906Y-62940816D01*
X176338254Y-62947486D01*
X173147283Y-66138457D01*
X173140619Y-66150000D01*
X172423754Y-66150000D01*
X172423755Y-66149998D01*
X172417091Y-66138456D01*
X169226122Y-62947488D01*
X169214467Y-62940817D01*
X169202966Y-62947747D01*
X169165732Y-62986692D01*
X169162062Y-62990891D01*
X168896728Y-63323608D01*
X168893455Y-63328114D01*
X168659015Y-63683277D01*
X168656163Y-63688050D01*
X168454498Y-64062806D01*
X168452081Y-64067827D01*
X168284832Y-64459123D01*
X168282866Y-64464362D01*
X168151361Y-64869094D01*
X168149885Y-64874442D01*
X168055186Y-65289345D01*
X168054192Y-65294822D01*
X167997065Y-65716547D01*
X167996568Y-65722075D01*
X167977475Y-66147217D01*
X167977475Y-66152783D01*
X101629713Y-66152783D01*
X101629713Y-66147217D01*
X101610619Y-65722075D01*
X101610122Y-65716547D01*
X101552995Y-65294822D01*
X101552001Y-65289345D01*
X101457302Y-64874442D01*
X101455826Y-64869094D01*
X101324321Y-64464362D01*
X101322355Y-64459123D01*
X101155106Y-64067827D01*
X101152689Y-64062806D01*
X100951024Y-63688050D01*
X100948172Y-63683277D01*
X100713732Y-63328114D01*
X100710459Y-63323608D01*
X100445120Y-62990885D01*
X100441466Y-62986703D01*
X100404220Y-62947746D01*
X100392718Y-62940816D01*
X100381066Y-62947486D01*
X97190095Y-66138457D01*
X97183431Y-66150000D01*
X96466566Y-66150000D01*
X96466567Y-66149998D01*
X96459903Y-66138456D01*
X93268934Y-62947488D01*
X93257279Y-62940817D01*
X93245778Y-62947747D01*
X93208544Y-62986692D01*
X93204874Y-62990891D01*
X92939540Y-63323608D01*
X92936267Y-63328114D01*
X92701827Y-63683277D01*
X92698975Y-63688050D01*
X92497310Y-64062806D01*
X92494893Y-64067827D01*
X92327644Y-64459123D01*
X92325678Y-64464362D01*
X92194173Y-64869094D01*
X92192697Y-64874442D01*
X92097998Y-65289345D01*
X92097004Y-65294822D01*
X92039877Y-65716547D01*
X92039380Y-65722075D01*
X92020287Y-66147217D01*
X92020287Y-66152783D01*
X90060500Y-66152783D01*
X90060500Y-63652561D01*
X90060606Y-63647437D01*
X90060618Y-63647147D01*
X90077330Y-63243076D01*
X90078173Y-63232906D01*
X90127918Y-62833824D01*
X90129598Y-62823752D01*
X90179973Y-62583503D01*
X93617248Y-62583503D01*
X93623922Y-62595368D01*
X96813457Y-65784903D01*
X96824999Y-65791567D01*
X96836542Y-65784903D01*
X100026076Y-62595368D01*
X100032750Y-62583503D01*
X169574436Y-62583503D01*
X169581110Y-62595368D01*
X172770645Y-65784903D01*
X172782188Y-65791567D01*
X172793730Y-65784903D01*
X175983264Y-62595368D01*
X175989938Y-62583503D01*
X175982481Y-62572114D01*
X175780047Y-62395254D01*
X175775705Y-62391791D01*
X175431412Y-62141648D01*
X175426775Y-62138587D01*
X175061424Y-61920299D01*
X175056553Y-61917678D01*
X174673122Y-61733028D01*
X174667995Y-61730836D01*
X174269575Y-61581307D01*
X174264277Y-61579586D01*
X173854054Y-61466371D01*
X173848619Y-61465130D01*
X173429897Y-61389144D01*
X173424387Y-61388397D01*
X173000519Y-61350248D01*
X172994979Y-61350000D01*
X172569397Y-61350000D01*
X172563856Y-61350248D01*
X172139988Y-61388397D01*
X172134478Y-61389144D01*
X171715756Y-61465130D01*
X171710321Y-61466371D01*
X171300098Y-61579586D01*
X171294800Y-61581307D01*
X170896380Y-61730836D01*
X170891253Y-61733028D01*
X170507822Y-61917678D01*
X170502951Y-61920299D01*
X170137600Y-62138587D01*
X170132963Y-62141648D01*
X169788670Y-62391791D01*
X169784328Y-62395254D01*
X169581893Y-62572115D01*
X169574436Y-62583503D01*
X100032750Y-62583503D01*
X100025293Y-62572114D01*
X99822859Y-62395254D01*
X99818517Y-62391791D01*
X99474224Y-62141648D01*
X99469587Y-62138587D01*
X99104236Y-61920299D01*
X99099365Y-61917678D01*
X98715934Y-61733028D01*
X98710807Y-61730836D01*
X98312387Y-61581307D01*
X98307089Y-61579586D01*
X97896866Y-61466371D01*
X97891431Y-61465130D01*
X97472709Y-61389144D01*
X97467199Y-61388397D01*
X97043331Y-61350248D01*
X97037791Y-61350000D01*
X96612209Y-61350000D01*
X96606668Y-61350248D01*
X96182800Y-61388397D01*
X96177290Y-61389144D01*
X95758568Y-61465130D01*
X95753133Y-61466371D01*
X95342910Y-61579586D01*
X95337612Y-61581307D01*
X94939192Y-61730836D01*
X94934065Y-61733028D01*
X94550634Y-61917678D01*
X94545763Y-61920299D01*
X94180412Y-62138587D01*
X94175775Y-62141648D01*
X93831482Y-62391791D01*
X93827140Y-62395254D01*
X93624705Y-62572115D01*
X93617248Y-62583503D01*
X90179973Y-62583503D01*
X90212128Y-62430148D01*
X90214635Y-62420252D01*
X90329388Y-62034802D01*
X90332703Y-62025150D01*
X90478891Y-61650502D01*
X90483002Y-61641132D01*
X90659612Y-61279870D01*
X90664485Y-61270864D01*
X90664490Y-61270856D01*
X90870344Y-60925388D01*
X90875937Y-60916828D01*
X91109614Y-60589543D01*
X91115882Y-60581489D01*
X91375802Y-60274604D01*
X91382719Y-60267090D01*
X91667090Y-59982719D01*
X91674604Y-59975802D01*
X91981489Y-59715882D01*
X91989543Y-59709614D01*
X92316831Y-59475936D01*
X92325388Y-59470344D01*
X92670872Y-59264480D01*
X92679870Y-59259612D01*
X93041142Y-59082997D01*
X93050502Y-59078891D01*
X93425150Y-58932703D01*
X93434802Y-58929388D01*
X93820252Y-58814635D01*
X93830148Y-58812128D01*
X94223752Y-58729598D01*
X94233824Y-58727918D01*
X94632906Y-58678173D01*
X94643076Y-58677330D01*
X95047437Y-58660605D01*
X95052561Y-58660500D01*
X95053412Y-58660500D01*
X175003776Y-58660500D01*
X175004627Y-58660500D01*
X175009750Y-58660605D01*
G37*
%TD.AperFunction*%
%TD*%
%TA.AperFunction,Conductor*%
%TO.N,VBUS*%
G36*
X156221266Y-148897711D02*
G01*
X156227563Y-148901881D01*
X156230000Y-148909029D01*
X156230000Y-149390971D01*
X156227563Y-149398119D01*
X156221266Y-149402289D01*
X155431193Y-149609357D01*
X155423033Y-149608523D01*
X155417426Y-149602536D01*
X155230871Y-149154494D01*
X155229973Y-149150000D01*
X155230872Y-149145503D01*
X155332311Y-148901881D01*
X155417427Y-148697461D01*
X155423033Y-148691476D01*
X155431193Y-148690642D01*
X156221266Y-148897711D01*
G37*
%TD.AperFunction*%
%TD*%
%TA.AperFunction,Conductor*%
%TO.N,SDA*%
G36*
X146179604Y-116907950D02*
G01*
X146700397Y-117122998D01*
X146939142Y-117221581D01*
X146942949Y-117224122D01*
X146945490Y-117227930D01*
X147259121Y-117987467D01*
X147259862Y-117993768D01*
X147257205Y-117999529D01*
X147251931Y-118003057D01*
X145959801Y-118424002D01*
X145953450Y-118424255D01*
X145947904Y-118421150D01*
X145745921Y-118219167D01*
X145742816Y-118213621D01*
X145743068Y-118207272D01*
X146164015Y-116915137D01*
X146167542Y-116909866D01*
X146173303Y-116907209D01*
X146179604Y-116907950D01*
G37*
%TD.AperFunction*%
%TD*%
%TA.AperFunction,Conductor*%
%TO.N,STATUS*%
G36*
X167202266Y-94308112D02*
G01*
X167692653Y-94525822D01*
X167698769Y-94532170D01*
X167698720Y-94540983D01*
X167551858Y-94896500D01*
X167549312Y-94900312D01*
X167545496Y-94902853D01*
X167191605Y-95048481D01*
X167185480Y-95049241D01*
X167179820Y-95046778D01*
X167176202Y-95041779D01*
X166905945Y-94322921D01*
X166905666Y-94315529D01*
X166909878Y-94309446D01*
X166916898Y-94307106D01*
X167197519Y-94307106D01*
X167202266Y-94308112D01*
G37*
%TD.AperFunction*%
%TD*%
%TA.AperFunction,Conductor*%
%TO.N,/Output Relays/RELAY2_NC*%
G36*
X113130763Y-121841394D02*
G01*
X114379128Y-122774752D01*
X114383083Y-122780029D01*
X114383555Y-122786607D01*
X114380395Y-122792395D01*
X113685140Y-123487650D01*
X113679689Y-123490732D01*
X112593222Y-123760751D01*
X112586001Y-123760238D01*
X112580464Y-123755574D01*
X111806074Y-122510198D01*
X111804310Y-122504040D01*
X111806053Y-122497875D01*
X111810779Y-122493555D01*
X113118530Y-121840296D01*
X113124801Y-121839111D01*
X113130763Y-121841394D01*
G37*
%TD.AperFunction*%
%TD*%
%TA.AperFunction,Conductor*%
%TO.N,SDA*%
G36*
X135964132Y-118735124D02*
G01*
X136669208Y-119065115D01*
X136674551Y-119070168D01*
X136675823Y-119077412D01*
X136672520Y-119083984D01*
X136474053Y-119282451D01*
X136469703Y-119285201D01*
X135963539Y-119465327D01*
X135954871Y-119464998D01*
X135948812Y-119458793D01*
X135801159Y-119103287D01*
X135800265Y-119098793D01*
X135801165Y-119094302D01*
X135948374Y-118741216D01*
X135952204Y-118736322D01*
X135958003Y-118734080D01*
X135964132Y-118735124D01*
G37*
%TD.AperFunction*%
%TD*%
%TA.AperFunction,Conductor*%
%TO.N,STATUS*%
G36*
X167054497Y-83400875D02*
G01*
X167369439Y-83532180D01*
X167409461Y-83548866D01*
X167415622Y-83554848D01*
X167416038Y-83563425D01*
X167202695Y-84192060D01*
X167198431Y-84197810D01*
X167191616Y-84200000D01*
X166908384Y-84200000D01*
X166901569Y-84197810D01*
X166897305Y-84192060D01*
X166683961Y-83563425D01*
X166684377Y-83554848D01*
X166690537Y-83548866D01*
X167045502Y-83400875D01*
X167050000Y-83399975D01*
X167054497Y-83400875D01*
G37*
%TD.AperFunction*%
%TD*%
%TA.AperFunction,Conductor*%
%TO.N,SDA*%
G36*
X158342060Y-90546805D02*
G01*
X158347810Y-90551069D01*
X158350000Y-90557884D01*
X158350000Y-90841116D01*
X158347810Y-90847931D01*
X158342060Y-90852194D01*
X158146513Y-90918558D01*
X157713425Y-91065538D01*
X157704848Y-91065122D01*
X157698866Y-91058961D01*
X157612661Y-90852195D01*
X157550875Y-90703997D01*
X157549975Y-90699500D01*
X157550875Y-90695002D01*
X157698866Y-90340037D01*
X157704848Y-90333877D01*
X157713424Y-90333461D01*
X158342060Y-90546805D01*
G37*
%TD.AperFunction*%
%TD*%
%TA.AperFunction,Conductor*%
%TO.N,/Output Relays/RELAY2_NC*%
G36*
X126713920Y-151101747D02*
G01*
X126718234Y-151106468D01*
X127211723Y-152093447D01*
X127212904Y-152099799D01*
X127210534Y-152105809D01*
X126224276Y-153388931D01*
X126218515Y-153392960D01*
X126211485Y-153392960D01*
X126205724Y-153388931D01*
X125219465Y-152105809D01*
X125217095Y-152099799D01*
X125218276Y-152093447D01*
X125711766Y-151106468D01*
X125716080Y-151101747D01*
X125722231Y-151100000D01*
X126707769Y-151100000D01*
X126713920Y-151101747D01*
G37*
%TD.AperFunction*%
%TD*%
%TA.AperFunction,Conductor*%
%TO.N,SDA*%
G36*
X160395151Y-90333877D02*
G01*
X160401133Y-90340038D01*
X160549123Y-90694998D01*
X160550024Y-90699500D01*
X160549123Y-90704002D01*
X160401133Y-91058961D01*
X160395151Y-91065122D01*
X160386574Y-91065538D01*
X160038499Y-90947410D01*
X159757939Y-90852194D01*
X159752190Y-90847931D01*
X159750000Y-90841116D01*
X159750000Y-90557884D01*
X159752190Y-90551069D01*
X159757939Y-90546805D01*
X160386575Y-90333461D01*
X160395151Y-90333877D01*
G37*
%TD.AperFunction*%
%TD*%
%TA.AperFunction,Conductor*%
%TO.N,BOOT*%
G36*
X158554497Y-74900875D02*
G01*
X158869439Y-75032180D01*
X158909461Y-75048866D01*
X158915622Y-75054848D01*
X158916038Y-75063425D01*
X158702695Y-75692060D01*
X158698431Y-75697810D01*
X158691616Y-75700000D01*
X158408384Y-75700000D01*
X158401569Y-75697810D01*
X158397305Y-75692060D01*
X158183961Y-75063425D01*
X158184377Y-75054848D01*
X158190537Y-75048866D01*
X158545502Y-74900875D01*
X158550000Y-74899975D01*
X158554497Y-74900875D01*
G37*
%TD.AperFunction*%
%TD*%
%TA.AperFunction,Conductor*%
%TO.N,SDA*%
G36*
X97054497Y-89150875D02*
G01*
X97369439Y-89282180D01*
X97409461Y-89298866D01*
X97415622Y-89304848D01*
X97416038Y-89313425D01*
X97202695Y-89942060D01*
X97198431Y-89947810D01*
X97191616Y-89950000D01*
X96908384Y-89950000D01*
X96901569Y-89947810D01*
X96897305Y-89942060D01*
X96683961Y-89313425D01*
X96684377Y-89304848D01*
X96690537Y-89298866D01*
X97045502Y-89150875D01*
X97050000Y-89149975D01*
X97054497Y-89150875D01*
G37*
%TD.AperFunction*%
%TD*%
%TA.AperFunction,Conductor*%
%TO.N,RELAY1*%
G36*
X162046592Y-83753417D02*
G01*
X162050029Y-83761671D01*
X162050987Y-84145124D01*
X162050098Y-84149626D01*
X162047546Y-84153441D01*
X161775038Y-84424989D01*
X161767053Y-84428398D01*
X161758917Y-84425366D01*
X161349050Y-84053482D01*
X161346214Y-84049555D01*
X161345212Y-84044817D01*
X161345212Y-83761700D01*
X161348639Y-83753427D01*
X161356912Y-83750000D01*
X162038329Y-83750000D01*
X162046592Y-83753417D01*
G37*
%TD.AperFunction*%
%TD*%
%TA.AperFunction,Conductor*%
%TO.N,/Output Relays/RELAY1_NO*%
G36*
X104284083Y-121736943D02*
G01*
X105539613Y-122492616D01*
X105544003Y-122497324D01*
X105545237Y-122503641D01*
X105542943Y-122509655D01*
X104657879Y-123690933D01*
X104651857Y-123695131D01*
X104644520Y-123694915D01*
X103596373Y-123314058D01*
X103592096Y-123311334D01*
X102897209Y-122616447D01*
X102893986Y-122610347D01*
X102894760Y-122603491D01*
X102899264Y-122598263D01*
X103060138Y-122497324D01*
X104271834Y-121737055D01*
X104277941Y-121735268D01*
X104284083Y-121736943D01*
G37*
%TD.AperFunction*%
%TD*%
%TA.AperFunction,Conductor*%
%TO.N,+3V3*%
G36*
X155298119Y-97152437D02*
G01*
X155302289Y-97158734D01*
X155509357Y-97948806D01*
X155508523Y-97956966D01*
X155502536Y-97962573D01*
X155054497Y-98149127D01*
X155050000Y-98150026D01*
X155045503Y-98149127D01*
X154597463Y-97962573D01*
X154591476Y-97956966D01*
X154590642Y-97948806D01*
X154797711Y-97158734D01*
X154801881Y-97152437D01*
X154809029Y-97150000D01*
X155290971Y-97150000D01*
X155298119Y-97152437D01*
G37*
%TD.AperFunction*%
%TD*%
%TA.AperFunction,Conductor*%
%TO.N,RELAY2*%
G36*
X164690557Y-84001087D02*
G01*
X165046196Y-84147436D01*
X165050016Y-84149983D01*
X165052563Y-84153804D01*
X165198912Y-84509442D01*
X165199037Y-84518028D01*
X165193268Y-84524387D01*
X164597900Y-84818041D01*
X164590819Y-84819092D01*
X164584451Y-84815821D01*
X164384178Y-84615548D01*
X164380907Y-84609180D01*
X164381958Y-84602099D01*
X164422673Y-84519552D01*
X164675612Y-84006730D01*
X164681971Y-84000962D01*
X164690557Y-84001087D01*
G37*
%TD.AperFunction*%
%TD*%
%TA.AperFunction,Conductor*%
%TO.N,SCL*%
G36*
X146179604Y-114367950D02*
G01*
X146700397Y-114582998D01*
X146939142Y-114681581D01*
X146942949Y-114684122D01*
X146945490Y-114687930D01*
X147259121Y-115447467D01*
X147259862Y-115453768D01*
X147257205Y-115459529D01*
X147251931Y-115463057D01*
X145959801Y-115884002D01*
X145953450Y-115884255D01*
X145947904Y-115881150D01*
X145745921Y-115679167D01*
X145742816Y-115673621D01*
X145743068Y-115667272D01*
X146164015Y-114375137D01*
X146167542Y-114369866D01*
X146173303Y-114367209D01*
X146179604Y-114367950D01*
G37*
%TD.AperFunction*%
%TD*%
%TA.AperFunction,Conductor*%
%TO.N,/Output Relays/RELAY1_NC*%
G36*
X94779809Y-121641180D02*
G01*
X96272286Y-122421909D01*
X96277325Y-122427039D01*
X96278412Y-122434148D01*
X96275136Y-122440549D01*
X95580772Y-123134913D01*
X95577388Y-123137270D01*
X94530998Y-123618510D01*
X94523639Y-123619316D01*
X94517270Y-123615545D01*
X93557776Y-122509075D01*
X93555059Y-122503240D01*
X93555840Y-122496851D01*
X93559880Y-122491843D01*
X94767653Y-121641977D01*
X94773619Y-121639872D01*
X94779809Y-121641180D01*
G37*
%TD.AperFunction*%
%TD*%
%TA.AperFunction,Conductor*%
%TO.N,SDA*%
G36*
X164690983Y-90001279D02*
G01*
X165046500Y-90148141D01*
X165050312Y-90150687D01*
X165052853Y-90154503D01*
X165198481Y-90508394D01*
X165199241Y-90514519D01*
X165196778Y-90520179D01*
X165191778Y-90523798D01*
X164857051Y-90649639D01*
X164472921Y-90794054D01*
X164465529Y-90794334D01*
X164459446Y-90790122D01*
X164457106Y-90783102D01*
X164457106Y-90502481D01*
X164458112Y-90497734D01*
X164612490Y-90150000D01*
X164675822Y-90007345D01*
X164682170Y-90001230D01*
X164690983Y-90001279D01*
G37*
%TD.AperFunction*%
%TD*%
%TA.AperFunction,Conductor*%
%TO.N,/Output Relays/RELAY1_NC*%
G36*
X108298920Y-151101747D02*
G01*
X108303234Y-151106468D01*
X108796723Y-152093447D01*
X108797904Y-152099799D01*
X108795534Y-152105809D01*
X107809276Y-153388931D01*
X107803515Y-153392960D01*
X107796485Y-153392960D01*
X107790724Y-153388931D01*
X106804465Y-152105809D01*
X106802095Y-152099799D01*
X106803276Y-152093447D01*
X107296766Y-151106468D01*
X107301080Y-151101747D01*
X107307231Y-151100000D01*
X108292769Y-151100000D01*
X108298920Y-151101747D01*
G37*
%TD.AperFunction*%
%TD*%
%TA.AperFunction,Conductor*%
%TO.N,+3V3*%
G36*
X177588604Y-101702042D02*
G01*
X177592903Y-101707455D01*
X178121146Y-103064058D01*
X178121006Y-103072890D01*
X178114732Y-103079108D01*
X177344488Y-103399134D01*
X177339999Y-103400029D01*
X177335510Y-103399134D01*
X176565267Y-103079108D01*
X176558993Y-103072890D01*
X176558853Y-103064058D01*
X177087097Y-101707455D01*
X177091396Y-101702042D01*
X177098000Y-101700000D01*
X177582000Y-101700000D01*
X177588604Y-101702042D01*
G37*
%TD.AperFunction*%
%TD*%
%TA.AperFunction,Conductor*%
%TO.N,/Output Relays/RELAY2_NO*%
G36*
X122419051Y-121962563D02*
G01*
X123788721Y-122494636D01*
X123793831Y-122498506D01*
X123796135Y-122504488D01*
X123794941Y-122510787D01*
X123139747Y-123817165D01*
X123134855Y-123822211D01*
X123127954Y-123823544D01*
X121971008Y-123690616D01*
X121964070Y-123687265D01*
X121268629Y-122991824D01*
X121265543Y-122986355D01*
X121265730Y-122980077D01*
X121269135Y-122974801D01*
X121798969Y-122504488D01*
X122407049Y-121964719D01*
X122412747Y-121961954D01*
X122419051Y-121962563D01*
G37*
%TD.AperFunction*%
%TD*%
%TA.AperFunction,Conductor*%
%TO.N,+3V3*%
G36*
X172262143Y-83215692D02*
G01*
X172265595Y-83221147D01*
X172545614Y-84177907D01*
X172545439Y-84185026D01*
X172541169Y-84190726D01*
X172534385Y-84192893D01*
X172053807Y-84192893D01*
X172046921Y-84190652D01*
X172039192Y-84185026D01*
X171457495Y-83761595D01*
X171453458Y-83756327D01*
X171452935Y-83749711D01*
X171456093Y-83743878D01*
X171798346Y-83400658D01*
X171802164Y-83398108D01*
X172249910Y-83213614D01*
X172256324Y-83212898D01*
X172262143Y-83215692D01*
G37*
%TD.AperFunction*%
%TD*%
%TA.AperFunction,Conductor*%
%TO.N,SDA*%
G36*
X97198431Y-89901690D02*
G01*
X97202695Y-89907440D01*
X97416038Y-90536074D01*
X97415622Y-90544651D01*
X97409461Y-90550633D01*
X97054501Y-90698623D01*
X97049999Y-90699524D01*
X97045498Y-90698623D01*
X96920600Y-90646550D01*
X96690538Y-90550633D01*
X96684377Y-90544651D01*
X96683961Y-90536075D01*
X96897305Y-89907439D01*
X96901569Y-89901690D01*
X96908384Y-89899500D01*
X97191616Y-89899500D01*
X97198431Y-89901690D01*
G37*
%TD.AperFunction*%
%TD*%
%TA.AperFunction,Conductor*%
%TO.N,BOOT*%
G36*
X165940122Y-90809446D02*
G01*
X165944334Y-90815529D01*
X165944054Y-90822921D01*
X165799639Y-91207051D01*
X165673798Y-91541778D01*
X165670179Y-91546778D01*
X165664519Y-91549241D01*
X165658394Y-91548481D01*
X165304503Y-91402853D01*
X165300687Y-91400312D01*
X165298141Y-91396500D01*
X165151279Y-91040983D01*
X165151230Y-91032170D01*
X165157345Y-91025822D01*
X165647734Y-90808111D01*
X165652481Y-90807106D01*
X165933102Y-90807106D01*
X165940122Y-90809446D01*
G37*
%TD.AperFunction*%
%TD*%
%TA.AperFunction,Conductor*%
%TO.N,SDA*%
G36*
X161331471Y-90497682D02*
G01*
X161337733Y-90501859D01*
X161340154Y-90508986D01*
X161340154Y-90792241D01*
X161338205Y-90798708D01*
X161333006Y-90803018D01*
X161133819Y-90887139D01*
X160713900Y-91064479D01*
X160707883Y-91065309D01*
X160702261Y-91063010D01*
X160698550Y-91058205D01*
X160550875Y-90703997D01*
X160549975Y-90699500D01*
X160550875Y-90695002D01*
X160699138Y-90339385D01*
X160704768Y-90333392D01*
X160712952Y-90332585D01*
X161331471Y-90497682D01*
G37*
%TD.AperFunction*%
%TD*%
%TA.AperFunction,Conductor*%
%TO.N,VBUS*%
G36*
X159286966Y-148691476D02*
G01*
X159292573Y-148697463D01*
X159479127Y-149145503D01*
X159480026Y-149150000D01*
X159479127Y-149154497D01*
X159292573Y-149602536D01*
X159286966Y-149608523D01*
X159278806Y-149609357D01*
X158488734Y-149402289D01*
X158482437Y-149398119D01*
X158480000Y-149390971D01*
X158480000Y-148909029D01*
X158482437Y-148901881D01*
X158488734Y-148897711D01*
X158850440Y-148802911D01*
X159278806Y-148690642D01*
X159286966Y-148691476D01*
G37*
%TD.AperFunction*%
%TD*%
%TA.AperFunction,Conductor*%
%TO.N,/Output Relays/RELAY2_NO*%
G36*
X136873449Y-151121925D02*
G01*
X136877717Y-151127640D01*
X137372365Y-152563900D01*
X137372569Y-152570868D01*
X137368772Y-152576715D01*
X136382469Y-153394804D01*
X136375000Y-153397499D01*
X136367531Y-153394804D01*
X135381227Y-152576715D01*
X135377430Y-152570868D01*
X135377633Y-152563902D01*
X135872282Y-151127640D01*
X135876551Y-151121925D01*
X135883345Y-151119750D01*
X136866655Y-151119750D01*
X136873449Y-151121925D01*
G37*
%TD.AperFunction*%
%TD*%
%TA.AperFunction,Conductor*%
%TO.N,RELAY2*%
G36*
X119015548Y-108234178D02*
G01*
X119215821Y-108434451D01*
X119219092Y-108440819D01*
X119218041Y-108447900D01*
X118924387Y-109043268D01*
X118918028Y-109049037D01*
X118909442Y-109048912D01*
X118553804Y-108902563D01*
X118549983Y-108900016D01*
X118547436Y-108896195D01*
X118401087Y-108540557D01*
X118400962Y-108531971D01*
X118406730Y-108525612D01*
X119002099Y-108231957D01*
X119009180Y-108230907D01*
X119015548Y-108234178D01*
G37*
%TD.AperFunction*%
%TD*%
%TA.AperFunction,Conductor*%
%TO.N,/Output Relays/RELAY1_NO*%
G36*
X118458449Y-151121925D02*
G01*
X118462717Y-151127640D01*
X118957365Y-152563900D01*
X118957569Y-152570868D01*
X118953772Y-152576715D01*
X117967469Y-153394804D01*
X117960000Y-153397499D01*
X117952531Y-153394804D01*
X116966227Y-152576715D01*
X116962430Y-152570868D01*
X116962633Y-152563902D01*
X117457282Y-151127640D01*
X117461551Y-151121925D01*
X117468345Y-151119750D01*
X118451655Y-151119750D01*
X118458449Y-151121925D01*
G37*
%TD.AperFunction*%
%TD*%
%TA.AperFunction,Conductor*%
%TO.N,RELAY1*%
G36*
X100515548Y-108234178D02*
G01*
X100715821Y-108434451D01*
X100719092Y-108440819D01*
X100718041Y-108447900D01*
X100424387Y-109043268D01*
X100418028Y-109049037D01*
X100409442Y-109048912D01*
X100053804Y-108902563D01*
X100049983Y-108900016D01*
X100047436Y-108896195D01*
X99901087Y-108540557D01*
X99900962Y-108531971D01*
X99906730Y-108525612D01*
X100502099Y-108231957D01*
X100509180Y-108230907D01*
X100515548Y-108234178D01*
G37*
%TD.AperFunction*%
%TD*%
%TA.AperFunction,Conductor*%
%TO.N,SCL*%
G36*
X135092550Y-118246810D02*
G01*
X135098307Y-118251073D01*
X135100500Y-118257893D01*
X135100500Y-118541119D01*
X135098312Y-118547932D01*
X135092565Y-118552197D01*
X134463427Y-118766032D01*
X134454848Y-118765618D01*
X134448864Y-118759457D01*
X134300875Y-118404497D01*
X134299975Y-118400000D01*
X134300875Y-118395502D01*
X134448870Y-118040527D01*
X134454846Y-118034371D01*
X134463418Y-118033948D01*
X135092550Y-118246810D01*
G37*
%TD.AperFunction*%
%TD*%
M02*
