%TF.GenerationSoftware,KiCad,Pcbnew,(7.0.0-0)*%
%TF.CreationDate,2023-03-25T06:26:20-04:00*%
%TF.ProjectId,KwartzLab-SensorBoard-Rev1,4b776172-747a-44c6-9162-2d53656e736f,1*%
%TF.SameCoordinates,Original*%
%TF.FileFunction,Soldermask,Top*%
%TF.FilePolarity,Negative*%
%FSLAX46Y46*%
G04 Gerber Fmt 4.6, Leading zero omitted, Abs format (unit mm)*
G04 Created by KiCad (PCBNEW (7.0.0-0)) date 2023-03-25 06:26:20*
%MOMM*%
%LPD*%
G01*
G04 APERTURE LIST*
G04 Aperture macros list*
%AMRoundRect*
0 Rectangle with rounded corners*
0 $1 Rounding radius*
0 $2 $3 $4 $5 $6 $7 $8 $9 X,Y pos of 4 corners*
0 Add a 4 corners polygon primitive as box body*
4,1,4,$2,$3,$4,$5,$6,$7,$8,$9,$2,$3,0*
0 Add four circle primitives for the rounded corners*
1,1,$1+$1,$2,$3*
1,1,$1+$1,$4,$5*
1,1,$1+$1,$6,$7*
1,1,$1+$1,$8,$9*
0 Add four rect primitives between the rounded corners*
20,1,$1+$1,$2,$3,$4,$5,0*
20,1,$1+$1,$4,$5,$6,$7,0*
20,1,$1+$1,$6,$7,$8,$9,0*
20,1,$1+$1,$8,$9,$2,$3,0*%
%AMFreePoly0*
4,1,6,0.725000,-0.725000,-0.725000,-0.725000,-0.725000,0.125000,-0.125000,0.725000,0.725000,0.725000,0.725000,-0.725000,0.725000,-0.725000,$1*%
%AMFreePoly1*
4,1,17,0.356937,0.810921,0.810921,0.356937,0.825800,0.321016,0.825800,-0.321016,0.810921,-0.356937,0.356937,-0.810921,0.321016,-0.825800,-0.321016,-0.825800,-0.356937,-0.810921,-0.810921,-0.356937,-0.825800,-0.321016,-0.825800,0.321016,-0.810921,0.356937,-0.356937,0.810921,-0.321016,0.825800,0.321016,0.825800,0.356937,0.810921,0.356937,0.810921,$1*%
G04 Aperture macros list end*
%ADD10RoundRect,0.250000X0.350000X-0.850000X0.350000X0.850000X-0.350000X0.850000X-0.350000X-0.850000X0*%
%ADD11RoundRect,0.249997X2.650003X-2.950003X2.650003X2.950003X-2.650003X2.950003X-2.650003X-2.950003X0*%
%ADD12R,1.000000X1.250000*%
%ADD13RoundRect,0.225000X-0.225000X-0.250000X0.225000X-0.250000X0.225000X0.250000X-0.225000X0.250000X0*%
%ADD14C,0.900000*%
%ADD15C,8.600000*%
%ADD16RoundRect,0.200000X0.200000X0.275000X-0.200000X0.275000X-0.200000X-0.275000X0.200000X-0.275000X0*%
%ADD17R,1.700000X1.700000*%
%ADD18O,1.700000X1.700000*%
%ADD19C,1.000000*%
%ADD20RoundRect,0.150000X0.150000X-0.587500X0.150000X0.587500X-0.150000X0.587500X-0.150000X-0.587500X0*%
%ADD21RoundRect,0.250000X0.265000X0.615000X-0.265000X0.615000X-0.265000X-0.615000X0.265000X-0.615000X0*%
%ADD22O,1.030000X1.730000*%
%ADD23RoundRect,0.225000X0.375000X-0.225000X0.375000X0.225000X-0.375000X0.225000X-0.375000X-0.225000X0*%
%ADD24R,0.400000X0.800000*%
%ADD25R,0.800000X0.400000*%
%ADD26FreePoly0,270.000000*%
%ADD27R,1.450000X1.450000*%
%ADD28R,0.700000X0.700000*%
%ADD29RoundRect,0.200000X-0.275000X0.200000X-0.275000X-0.200000X0.275000X-0.200000X0.275000X0.200000X0*%
%ADD30C,3.000000*%
%ADD31RoundRect,0.200000X-0.200000X-0.275000X0.200000X-0.275000X0.200000X0.275000X-0.200000X0.275000X0*%
%ADD32RoundRect,0.225000X0.225000X0.250000X-0.225000X0.250000X-0.225000X-0.250000X0.225000X-0.250000X0*%
%ADD33R,2.600000X2.600000*%
%ADD34C,2.600000*%
%ADD35RoundRect,0.225000X0.250000X-0.225000X0.250000X0.225000X-0.250000X0.225000X-0.250000X-0.225000X0*%
%ADD36R,0.900000X1.500000*%
%ADD37RoundRect,0.225000X-0.375000X0.225000X-0.375000X-0.225000X0.375000X-0.225000X0.375000X0.225000X0*%
%ADD38RoundRect,0.150000X0.150000X0.625000X-0.150000X0.625000X-0.150000X-0.625000X0.150000X-0.625000X0*%
%ADD39RoundRect,0.250000X0.350000X0.650000X-0.350000X0.650000X-0.350000X-0.650000X0.350000X-0.650000X0*%
%ADD40FreePoly1,180.000000*%
%ADD41RoundRect,0.250000X-0.625000X0.375000X-0.625000X-0.375000X0.625000X-0.375000X0.625000X0.375000X0*%
%ADD42RoundRect,0.125000X-0.125000X-0.137500X0.125000X-0.137500X0.125000X0.137500X-0.125000X0.137500X0*%
%ADD43RoundRect,0.225000X-0.250000X0.225000X-0.250000X-0.225000X0.250000X-0.225000X0.250000X0.225000X0*%
%ADD44C,0.650000*%
%ADD45R,0.600000X1.150000*%
%ADD46R,0.300000X1.150000*%
%ADD47O,1.000000X2.100000*%
%ADD48O,1.000000X1.800000*%
%ADD49RoundRect,0.087500X-0.187500X-0.087500X0.187500X-0.087500X0.187500X0.087500X-0.187500X0.087500X0*%
%ADD50RoundRect,0.175000X-0.175000X-0.625000X0.175000X-0.625000X0.175000X0.625000X-0.175000X0.625000X0*%
%ADD51R,0.700000X1.000000*%
%ADD52R,0.700000X0.600000*%
G04 APERTURE END LIST*
D10*
%TO.C,U2*%
X133495000Y-139275000D03*
D11*
X135775000Y-132975000D03*
D10*
X138055000Y-139275000D03*
%TD*%
D12*
%TO.C,SW1*%
X154349999Y-60774999D03*
X154349999Y-68524999D03*
%TD*%
D13*
%TO.C,C7*%
X151600000Y-71900000D03*
X153150000Y-71900000D03*
%TD*%
D14*
%TO.C,H3*%
X169557188Y-66150000D03*
X170501769Y-63869581D03*
X170501769Y-68430419D03*
X172782188Y-62925000D03*
D15*
X172782188Y-66150000D03*
D14*
X172782188Y-69375000D03*
X175062607Y-63869581D03*
X175062607Y-68430419D03*
X176007188Y-66150000D03*
%TD*%
%TO.C,H1*%
X93600000Y-151650000D03*
X94544581Y-149369581D03*
X94544581Y-153930419D03*
X96825000Y-148425000D03*
D15*
X96825000Y-151650000D03*
D14*
X96825000Y-154875000D03*
X99105419Y-149369581D03*
X99105419Y-153930419D03*
X100050000Y-151650000D03*
%TD*%
D16*
%TO.C,R13*%
X120800000Y-113900000D03*
X119150000Y-113900000D03*
%TD*%
D17*
%TO.C,J1*%
X169719999Y-103399999D03*
D18*
X172259999Y-103399999D03*
X174799999Y-103399999D03*
X177339999Y-103399999D03*
%TD*%
D19*
%TO.C,TP1*%
X161300000Y-80900000D03*
%TD*%
D14*
%TO.C,H4*%
X93600000Y-66150000D03*
X94544581Y-63869581D03*
X94544581Y-68430419D03*
X96825000Y-62925000D03*
D15*
X96825000Y-66150000D03*
D14*
X96825000Y-69375000D03*
X99105419Y-63869581D03*
X99105419Y-68430419D03*
X100050000Y-66150000D03*
%TD*%
D20*
%TO.C,Q2*%
X114400000Y-113900000D03*
X116300000Y-113900000D03*
X115350000Y-112025000D03*
%TD*%
D21*
%TO.C,J3*%
X137300000Y-125400000D03*
D22*
X135799999Y-125399999D03*
X134299999Y-125399999D03*
X132799999Y-125399999D03*
X131299999Y-125399999D03*
%TD*%
D23*
%TO.C,D6*%
X105800000Y-108700000D03*
X105800000Y-105400000D03*
%TD*%
D24*
%TO.C,U1*%
X172649999Y-81699999D03*
X171849999Y-81699999D03*
X171049999Y-81699999D03*
X170249999Y-81699999D03*
X169449999Y-81699999D03*
X168649999Y-81699999D03*
X167849999Y-81699999D03*
X167049999Y-81699999D03*
X166249999Y-81699999D03*
X165449999Y-81699999D03*
X164649999Y-81699999D03*
D25*
X163749999Y-82799999D03*
X163749999Y-83599999D03*
X163749999Y-84399999D03*
X163749999Y-85199999D03*
X163749999Y-85999999D03*
X163749999Y-86799999D03*
X163749999Y-87599999D03*
X163749999Y-88399999D03*
X163749999Y-89199999D03*
X163749999Y-89999999D03*
X163749999Y-90799999D03*
X163749999Y-91599999D03*
X163749999Y-92399999D03*
D24*
X164649999Y-93499999D03*
X165449999Y-93499999D03*
X166249999Y-93499999D03*
X167049999Y-93499999D03*
X167849999Y-93499999D03*
X168649999Y-93499999D03*
X169449999Y-93499999D03*
X170249999Y-93499999D03*
X171049999Y-93499999D03*
X171849999Y-93499999D03*
X172649999Y-93499999D03*
D25*
X173549999Y-92399999D03*
X173549999Y-91599999D03*
X173549999Y-90799999D03*
X173549999Y-89999999D03*
X173549999Y-89199999D03*
X173549999Y-88399999D03*
X173549999Y-87599999D03*
X173549999Y-86799999D03*
X173549999Y-85999999D03*
X173549999Y-85199999D03*
X173549999Y-84399999D03*
X173549999Y-83599999D03*
X173549999Y-82799999D03*
D26*
X170625000Y-85625000D03*
D27*
X168649999Y-85624999D03*
X166674999Y-85624999D03*
X170624999Y-87599999D03*
X168649999Y-87599999D03*
X166674999Y-87599999D03*
X170624999Y-89574999D03*
X168649999Y-89574999D03*
X166674999Y-89574999D03*
D28*
X173599999Y-93549999D03*
X163699999Y-93549999D03*
X163699999Y-81649999D03*
X173599999Y-81649999D03*
%TD*%
D29*
%TO.C,R4*%
X150230000Y-151000000D03*
X150230000Y-152650000D03*
%TD*%
D30*
%TO.C,K2*%
X117800000Y-136700000D03*
X111800000Y-122500000D03*
X123800000Y-122500000D03*
X123800000Y-134700000D03*
X111800000Y-134700000D03*
%TD*%
D13*
%TO.C,C2*%
X171000000Y-79400000D03*
X172550000Y-79400000D03*
%TD*%
D31*
%TO.C,R8*%
X100650000Y-110525000D03*
X102300000Y-110525000D03*
%TD*%
D14*
%TO.C,H2*%
X169544581Y-151650000D03*
X170489162Y-149369581D03*
X170489162Y-153930419D03*
X172769581Y-148425000D03*
D15*
X172769581Y-151650000D03*
D14*
X172769581Y-154875000D03*
X175050000Y-149369581D03*
X175050000Y-153930419D03*
X175994581Y-151650000D03*
%TD*%
D32*
%TO.C,C14*%
X147850000Y-121400000D03*
X146300000Y-121400000D03*
%TD*%
D29*
%TO.C,R1*%
X160300000Y-98150000D03*
X160300000Y-99800000D03*
%TD*%
D13*
%TO.C,C10*%
X93300000Y-74837500D03*
X94850000Y-74837500D03*
%TD*%
D33*
%TO.C,J6*%
X126214999Y-153399999D03*
D34*
X131295000Y-153400000D03*
X136375000Y-153400000D03*
%TD*%
D19*
%TO.C,TP10*%
X129300000Y-139400000D03*
%TD*%
D35*
%TO.C,C15*%
X140800000Y-116150000D03*
X140800000Y-114600000D03*
%TD*%
D36*
%TO.C,D3*%
X142799999Y-156049999D03*
X146099999Y-156049999D03*
X146099999Y-151149999D03*
X142799999Y-151149999D03*
%TD*%
D35*
%TO.C,C13*%
X140800000Y-125900000D03*
X140800000Y-124350000D03*
%TD*%
D29*
%TO.C,R5*%
X165730000Y-151000000D03*
X165730000Y-152650000D03*
%TD*%
D19*
%TO.C,TP9*%
X160300000Y-103650000D03*
%TD*%
D12*
%TO.C,SW2*%
X163299999Y-60899999D03*
X163299999Y-68649999D03*
%TD*%
D35*
%TO.C,C5*%
X140800000Y-131900000D03*
X140800000Y-130350000D03*
%TD*%
D19*
%TO.C,TP4*%
X153800000Y-103650000D03*
%TD*%
D31*
%TO.C,R7*%
X164550000Y-71900000D03*
X166200000Y-71900000D03*
%TD*%
D37*
%TO.C,D2*%
X152480000Y-145350000D03*
X152480000Y-148650000D03*
%TD*%
D19*
%TO.C,TP3*%
X115300000Y-108150000D03*
%TD*%
D13*
%TO.C,C1*%
X163500000Y-76150000D03*
X165050000Y-76150000D03*
%TD*%
D38*
%TO.C,J7*%
X135800000Y-113875000D03*
X134800000Y-113875000D03*
X133800000Y-113875000D03*
X132800000Y-113875000D03*
D39*
X137100000Y-116400000D03*
X131500000Y-116400000D03*
%TD*%
D13*
%TO.C,C8*%
X160750000Y-71900000D03*
X162300000Y-71900000D03*
%TD*%
D19*
%TO.C,TP13*%
X160050000Y-74900000D03*
%TD*%
%TO.C,TP6*%
X168550000Y-79400000D03*
%TD*%
D33*
%TO.C,J5*%
X107799999Y-153399999D03*
D34*
X112880000Y-153400000D03*
X117960000Y-153400000D03*
%TD*%
D30*
%TO.C,J4*%
X176023128Y-140594944D03*
X176023128Y-110114944D03*
X145543128Y-140594944D03*
X145543128Y-110114944D03*
D40*
X149482928Y-114684144D03*
X149482928Y-117224144D03*
X146942928Y-114684144D03*
X146942928Y-117224144D03*
X144402928Y-114684144D03*
X144402928Y-117224144D03*
%TD*%
D16*
%TO.C,R10*%
X102300000Y-107150000D03*
X100650000Y-107150000D03*
%TD*%
%TO.C,R12*%
X120800000Y-107150000D03*
X119150000Y-107150000D03*
%TD*%
D23*
%TO.C,D7*%
X124300000Y-108700000D03*
X124300000Y-105400000D03*
%TD*%
D41*
%TO.C,D4*%
X105800000Y-111350000D03*
X105800000Y-114150000D03*
%TD*%
D19*
%TO.C,TP11*%
X157050000Y-103650000D03*
%TD*%
%TO.C,TP14*%
X159800000Y-84900000D03*
%TD*%
D13*
%TO.C,C3*%
X171000000Y-76150000D03*
X172550000Y-76150000D03*
%TD*%
D42*
%TO.C,U4*%
X92700000Y-88775000D03*
X93500000Y-88775000D03*
X94300000Y-88775000D03*
X95100000Y-88775000D03*
X95100000Y-91150000D03*
X94300000Y-91150000D03*
X93500000Y-91150000D03*
X92700000Y-91150000D03*
%TD*%
D19*
%TO.C,TP8*%
X161300000Y-88400000D03*
%TD*%
%TO.C,TP5*%
X163550000Y-103650000D03*
%TD*%
%TO.C,TP12*%
X160800000Y-94400000D03*
%TD*%
D43*
%TO.C,C6*%
X148980000Y-145350000D03*
X148980000Y-146900000D03*
%TD*%
D44*
%TO.C,J2*%
X155090000Y-152370000D03*
X160870000Y-152370000D03*
D45*
X154779999Y-151294999D03*
X155579999Y-151294999D03*
D46*
X156729999Y-151294999D03*
X157729999Y-151294999D03*
X158229999Y-151294999D03*
X159229999Y-151294999D03*
D45*
X160379999Y-151294999D03*
X161179999Y-151294999D03*
X161179999Y-151294999D03*
X160379999Y-151294999D03*
D46*
X159729999Y-151294999D03*
X158729999Y-151294999D03*
X157229999Y-151294999D03*
X156229999Y-151294999D03*
D45*
X155579999Y-151294999D03*
X154779999Y-151294999D03*
D47*
X153659999Y-151869999D03*
D48*
X153659999Y-156049999D03*
D47*
X162299999Y-151869999D03*
D48*
X162299999Y-156049999D03*
%TD*%
D16*
%TO.C,R11*%
X102300000Y-113900000D03*
X100650000Y-113900000D03*
%TD*%
D20*
%TO.C,Q1*%
X95900000Y-113900000D03*
X97800000Y-113900000D03*
X96850000Y-112025000D03*
%TD*%
D29*
%TO.C,R2*%
X157050000Y-98150000D03*
X157050000Y-99800000D03*
%TD*%
D49*
%TO.C,U3*%
X93100000Y-78150000D03*
X93100000Y-79150000D03*
X94950000Y-79150000D03*
X94950000Y-78150000D03*
D50*
X94025000Y-78650000D03*
%TD*%
D31*
%TO.C,R9*%
X119150000Y-110525000D03*
X120800000Y-110525000D03*
%TD*%
D19*
%TO.C,TP15*%
X169050000Y-72900000D03*
%TD*%
D41*
%TO.C,D5*%
X124300000Y-111350000D03*
X124300000Y-114150000D03*
%TD*%
D51*
%TO.C,D1*%
X158479999Y-147399999D03*
D52*
X158479999Y-145699999D03*
X156479999Y-145699999D03*
X156479999Y-147599999D03*
%TD*%
D35*
%TO.C,C4*%
X140800000Y-139200000D03*
X140800000Y-137650000D03*
%TD*%
D31*
%TO.C,R6*%
X155400000Y-71900000D03*
X157050000Y-71900000D03*
%TD*%
D30*
%TO.C,K1*%
X99550000Y-136700000D03*
X93550000Y-122500000D03*
X105550000Y-122500000D03*
X105550000Y-134700000D03*
X93550000Y-134700000D03*
%TD*%
D13*
%TO.C,C11*%
X93250000Y-85900000D03*
X94800000Y-85900000D03*
%TD*%
%TO.C,C9*%
X143750000Y-148400000D03*
X145300000Y-148400000D03*
%TD*%
D19*
%TO.C,TP7*%
X158300000Y-88400000D03*
%TD*%
%TO.C,TP2*%
X96800000Y-108150000D03*
%TD*%
D16*
%TO.C,R3*%
X168950000Y-76150000D03*
X167300000Y-76150000D03*
%TD*%
D13*
%TO.C,C12*%
X93250000Y-94150000D03*
X94800000Y-94150000D03*
%TD*%
M02*
