M48
; DRILL file {KiCad (7.0.0-0)} date Saturday, March 25, 2023 at 06:26:22
; FORMAT={-:-/ absolute / inch / decimal}
; #@! TF.CreationDate,2023-03-25T06:26:22-04:00
; #@! TF.GenerationSoftware,Kicad,Pcbnew,(7.0.0-0)
; #@! TF.FileFunction,Plated,1,2,PTH
FMAT,2
INCH
; #@! TA.AperFunction,Plated,PTH,ViaDrill
T1C0.0157
; #@! TA.AperFunction,Plated,PTH,ViaDrill
T2C0.0236
; #@! TA.AperFunction,Plated,PTH,ComponentDrill
T3C0.0236
; #@! TA.AperFunction,Plated,PTH,ComponentDrill
T4C0.0287
; #@! TA.AperFunction,Plated,PTH,ComponentDrill
T5C0.0374
; #@! TA.AperFunction,Plated,PTH,ComponentDrill
T6C0.0394
; #@! TA.AperFunction,Plated,PTH,ComponentDrill
T7C0.0512
; #@! TA.AperFunction,Plated,PTH,ComponentDrill
T8C0.1693
%
G90
G05
T1
X3.6831Y-3.185
X3.6929Y-3.5394
X3.7224Y-3.2539
X3.752Y-3.4409
X3.7717Y-3.185
X3.8209Y-3.5098
X3.8209Y-3.5708
X3.939Y-4.2874
X4.6673Y-4.2874
X5.2874Y-4.6614
X5.3465Y-4.689
X6.2028Y-3.5708
X6.2421Y-2.9488
X6.3209Y-3.5708
X6.3799Y-3.313
X6.4941Y-3.374
X6.4941Y-3.4213
X6.4941Y-3.4705
X6.498Y-3.313
X6.498Y-3.5492
X6.5079Y-3.5984
X6.5413Y-3.6339
X6.5768Y-3.2835
X6.5965Y-3.7362
X6.6161Y-3.5945
X6.6634Y-3.5945
X6.685Y-3.313
X6.7087Y-3.5945
X6.7244Y-3.313
T2
X6.1043Y-3.8642
X6.1114Y-5.872
X6.2787Y-5.872
X6.3307Y-3.7854
X6.7638Y-3.2835
T3
X3.685Y-2.6043
X3.685Y-5.9705
X3.7222Y-2.5146
X3.7222Y-2.6941
X3.7222Y-5.8807
X3.7222Y-6.0603
X3.812Y-2.4774
X3.812Y-2.7313
X3.812Y-5.8435
X3.812Y-6.0974
X3.9018Y-2.5146
X3.9018Y-2.6941
X3.9018Y-5.8807
X3.9018Y-6.0603
X3.939Y-2.6043
X3.939Y-5.9705
X6.675Y-5.9705
X6.6755Y-2.6043
X6.7122Y-5.8807
X6.7122Y-6.0603
X6.7127Y-2.5146
X6.7127Y-2.6941
X6.802Y-5.8435
X6.802Y-6.0974
X6.8024Y-2.4774
X6.8024Y-2.7313
X6.8917Y-5.8807
X6.8917Y-6.0603
X6.8922Y-2.5146
X6.8922Y-2.6941
X6.9289Y-5.9705
X6.9294Y-2.6043
T4
X5.1693Y-4.937
X5.2283Y-4.937
X5.2874Y-4.937
X5.3465Y-4.937
X5.4055Y-4.937
T5
X5.6852Y-4.5151
X5.6852Y-4.6151
X5.7852Y-4.5151
X5.7852Y-4.6151
X5.8852Y-4.5151
X5.8852Y-4.6151
T6
X6.6819Y-4.0709
X6.7819Y-4.0709
X6.8819Y-4.0709
X6.9819Y-4.0709
T7
X3.6831Y-4.8228
X3.6831Y-5.3031
X3.9193Y-5.3819
X4.1555Y-4.8228
X4.1555Y-5.3031
X4.2441Y-6.0394
X4.4016Y-4.8228
X4.4016Y-5.3031
X4.4441Y-6.0394
X4.6378Y-5.3819
X4.6441Y-6.0394
X4.874Y-4.8228
X4.874Y-5.3031
X4.9691Y-6.0394
X5.1691Y-6.0394
X5.3691Y-6.0394
T8
X3.812Y-2.6043
X3.812Y-5.9705
X6.802Y-5.9705
X6.8024Y-2.6043
T3
G00X6.0496Y-5.9575
M15
G01X6.0496Y-6.0008
M16
G05
G00X6.0496Y-6.128
M15
G01X6.0496Y-6.1594
M16
G05
G00X6.3898Y-5.9575
M15
G01X6.3898Y-6.0008
M16
G05
G00X6.3898Y-6.128
M15
G01X6.3898Y-6.1594
M16
G05
T0
M30
